SplineFontDB: 3.2
FontName: Lacquer-Regular
FullName: Lacquer Regular
FamilyName: Lacquer
Weight: Book
Copyright: Copyright 2019 The Lacquer Project Authors (https://github.com/Lacquer-Font/Lacquer)
Version: 1.100
ItalicAngle: 0
UnderlinePosition: -125
UnderlineWidth: 50
Ascent: 800
Descent: 200
InvalidEm: 0
sfntRevision: 0x0001199a
LayerCount: 2
Layer: 0 1 "Back" 1
Layer: 1 1 "Fore" 0
XUID: [1021 231 1662144305 28926]
StyleMap: 0x0040
FSType: 0
OS2Version: 4
OS2_WeightWidthSlopeOnly: 0
OS2_UseTypoMetrics: 1
CreationTime: 1556725954
ModificationTime: 1688762143
PfmFamily: 81
TTFWeight: 400
TTFWidth: 5
LineGap: 0
VLineGap: 0
Panose: 0 0 0 0 0 0 0 0 0 0
OS2TypoAscent: 1000
OS2TypoAOffset: 0
OS2TypoDescent: -200
OS2TypoDOffset: 0
OS2TypoLinegap: 0
OS2WinAscent: 1150
OS2WinAOffset: 0
OS2WinDescent: 557
OS2WinDOffset: 0
HheadAscent: 1000
HheadAOffset: 0
HheadDescent: -200
HheadDOffset: 0
OS2SubXSize: 650
OS2SubYSize: 600
OS2SubXOff: 0
OS2SubYOff: 75
OS2SupXSize: 650
OS2SupYSize: 600
OS2SupXOff: 0
OS2SupYOff: 350
OS2StrikeYSize: 50
OS2StrikeYPos: 300
OS2CapHeight: 700
OS2XHeight: 500
OS2Vendor: 'NONE'
OS2CodePages: 00000001.00000000
OS2UnicodeRanges: a000006f.1000006b.00000000.00000000
Lookup: 1 0 0 "'aalt' Access All Alternates lookup 0" { "'aalt' Access All Alternates lookup 0 subtable"  } ['aalt' ('DFLT' <'dflt' > ) ]
Lookup: 3 0 0 "'aalt' Access All Alternates lookup 1" { "'aalt' Access All Alternates lookup 1 subtable"  } ['aalt' ('DFLT' <'dflt' > ) ]
Lookup: 6 0 0 "'ccmp' Glyph Composition/Decomposition lookup 2" { "'ccmp' Glyph Composition/Decomposition lookup 2 contextual 0"  "'ccmp' Glyph Composition/Decomposition lookup 2 contextual 1"  } ['ccmp' ('DFLT' <'dflt' > ) ]
Lookup: 1 0 0 "Single Substitution lookup 3" { "Single Substitution lookup 3 subtable"  } []
Lookup: 1 0 0 "Single Substitution lookup 4" { "Single Substitution lookup 4 subtable"  } []

StartChar: .notdef
Encoding: 65536 -1 0
Width: 500
GlyphClass: 1
Flags: W
LayerCount: 2
Fore
SplineSet
50 -200 m 1,0,-1
 450 -200 l 1,1,-1
 450 800 l 1,2,-1
 50 800 l 1,3,-1
 50 -200 l 1,0,-1
100 -150 m 1,4,-1
 100 750 l 1,5,-1
 400 750 l 1,6,-1
 400 -150 l 1,7,-1
 100 -150 l 1,4,-1
EndSplineSet
EndChar

StartChar: A
Encoding: 65 65 1
Width: 546
GlyphClass: 2
Flags: W
AnchorPoint: "Anchor-1" 273 0 basechar 0
AnchorPoint: "Anchor-0" 270 695 basechar 0
LayerCount: 2
Fore
SplineSet
75 -90 m 0,0,1
 74 -90 74 -90 68 -88 c 0,2,3
 65 -87 65 -87 61 -81 c 0,4,5
 60 -78 60 -78 59 -75 c 128,-1,6
 58 -72 58 -72 58 -69 c 0,7,8
 55 -54 55 -54 55 -39 c 2,9,-1
 55 30 l 2,10,11
 55 39 55 39 53 48 c 128,-1,12
 51 57 51 57 49 66 c 0,13,14
 49 68 49 68 47 72 c 0,15,16
 46 75 46 75 44 78.5 c 128,-1,17
 42 82 42 82 40 85 c 0,18,19
 36 92 36 92 34 100 c 128,-1,20
 32 108 32 108 31 115 c 0,21,22
 30 126 30 126 31 136 c 0,23,24
 33 142 33 142 34 147.5 c 128,-1,25
 35 153 35 153 37 158 c 0,26,27
 40 166 40 166 42 174.5 c 128,-1,28
 44 183 44 183 47 192 c 2,29,-1
 62 241 l 2,30,31
 69 262 69 262 80 284 c 0,32,33
 91 305 91 305 101 331 c 0,34,35
 103 337 103 337 106 344 c 0,36,37
 110 355 110 355 114.5 365.5 c 128,-1,38
 119 376 119 376 123 386 c 2,39,-1
 138 428 l 2,40,41
 140 432 140 432 141 436 c 128,-1,42
 142 440 142 440 143 444 c 0,43,44
 151 464 151 464 159 482 c 0,45,46
 165 494 165 494 167 508 c 128,-1,47
 169 522 169 522 167 536 c 0,48,49
 166 542 166 542 165.5 548.5 c 128,-1,50
 165 555 165 555 165 561 c 0,51,52
 165 564 165 564 163.5 566.5 c 128,-1,53
 162 569 162 569 163 572 c 0,54,55
 164 574 164 574 165.5 576 c 128,-1,56
 167 578 167 578 168 580 c 0,57,58
 171 591 171 591 177.5 599.5 c 128,-1,59
 184 608 184 608 192 615 c 0,60,61
 196 619 196 619 203 621 c 0,62,63
 207 623 207 623 210.5 625 c 128,-1,64
 214 627 214 627 217 630 c 0,65,66
 222 634 222 634 228 635 c 0,67,68
 236 636 236 636 245 641 c 0,69,70
 253 646 253 646 263 644 c 2,71,-1
 272 644 l 2,72,73
 279 644 279 644 287 639 c 0,74,75
 289 638 289 638 291.5 636.5 c 128,-1,76
 294 635 294 635 297 633 c 0,77,78
 305 627 305 627 305 618 c 0,79,80
 305 611 305 611 306.5 605 c 128,-1,81
 308 599 308 599 309 592 c 0,82,83
 311 586 311 586 309 579 c 0,84,85
 308 577 308 577 308 574.5 c 128,-1,86
 308 572 308 572 307 570 c 0,87,88
 307 566 307 566 306.5 562 c 128,-1,89
 306 558 306 558 305 554 c 0,90,91
 302 547 302 547 307 540 c 0,92,93
 315 527 315 527 321.5 513 c 128,-1,94
 328 499 328 499 335 485 c 2,95,-1
 353 453 l 2,96,97
 361 440 361 440 369 422 c 0,98,99
 371 419 371 419 372.5 416 c 128,-1,100
 374 413 374 413 376 410 c 0,101,102
 379 405 379 405 381.5 399 c 128,-1,103
 384 393 384 393 387 387 c 0,104,105
 395 372 395 372 400.5 356.5 c 128,-1,106
 406 341 406 341 412 324 c 0,107,108
 412 323 412 323 412.5 322.5 c 128,-1,109
 413 322 413 322 413 321 c 0,110,111
 414 314 414 314 423 314 c 0,112,113
 426 315 426 315 429.5 315 c 128,-1,114
 433 315 433 315 436 315 c 0,115,116
 447 315 447 315 455 311 c 0,117,118
 460 310 460 310 465 305 c 0,119,120
 473 297 473 297 476 292 c 128,-1,121
 479 287 479 287 480 277 c 0,122,123
 484 258 484 258 472 244 c 2,124,-1
 466 239 l 2,125,126
 464 237 464 237 461 235.5 c 128,-1,127
 458 234 458 234 456 232 c 0,128,129
 451 228 451 228 450.5 226 c 128,-1,130
 450 224 450 224 453 217 c 2,131,-1
 468 181 l 2,132,133
 477 161 477 161 486.5 141 c 128,-1,134
 496 121 496 121 506 101 c 0,135,136
 510 94 510 94 512.5 87 c 128,-1,137
 515 80 515 80 516 72 c 0,138,139
 517 66 517 66 516.5 60 c 128,-1,140
 516 54 516 54 515 48 c 0,141,142
 515 47 515 47 513 41 c 0,143,144
 510 37 510 37 507.5 33 c 128,-1,145
 505 29 505 29 502 25 c 0,146,147
 494 14 494 14 489 0 c 0,148,149
 487 -9 487 -9 476 -14 c 0,150,151
 470 -17 470 -17 463 -14 c 0,152,153
 454 -11 454 -11 451 -2 c 2,154,-1
 449 3 l 2,155,156
 446 13 446 13 440 22 c 0,157,158
 436 29 436 29 432.5 36.5 c 128,-1,159
 429 44 429 44 425 51 c 0,160,161
 424 53 424 53 424 54.5 c 128,-1,162
 424 56 424 56 423 57 c 0,163,164
 422 63 422 63 419.5 68.5 c 128,-1,165
 417 74 417 74 414 79 c 0,166,167
 408 94 408 94 401.5 108.5 c 128,-1,168
 395 123 395 123 388 138 c 2,169,-1
 373 170 l 2,170,171
 372 173 372 173 371 176.5 c 128,-1,172
 370 180 370 180 368 184 c 2,173,-1
 356 211 l 2,174,175
 356 213 356 213 354 217 c 0,176,177
 349 225 349 225 341 226 c 0,178,179
 334 226 334 226 328 227 c 128,-1,180
 322 228 322 228 316 228 c 0,181,182
 300 228 300 228 284 225 c 128,-1,183
 268 222 268 222 254 214 c 0,184,185
 235 203 235 203 215 200 c 0,186,187
 211 200 211 200 207 199 c 128,-1,188
 203 198 203 198 199 196 c 0,189,190
 193 192 193 192 192 187 c 0,191,192
 190 181 190 181 190 178 c 2,193,-1
 187 164 l 2,194,195
 186 157 186 157 179 150 c 0,196,197
 174 145 174 145 165 145 c 0,198,199
 152 147 152 147 148 158 c 0,200,201
 147 161 147 161 146 164 c 128,-1,202
 145 167 145 167 144 171 c 1,203,204
 140 165 140 165 143 161 c 0,205,206
 145 157 145 157 141 154 c 0,207,208
 139 152 139 152 140 151 c 0,209,210
 142 147 142 147 139 144 c 128,-1,211
 136 141 136 141 137 137 c 0,212,213
 138 135 138 135 137 132 c 0,214,215
 132 125 132 125 130 115 c 0,216,217
 131 111 131 111 125 109 c 0,218,219
 123 109 123 109 123 107 c 0,220,221
 121 104 121 104 119 98 c 0,222,223
 118 93 118 93 116.5 87.5 c 128,-1,224
 115 82 115 82 113 77 c 2,225,-1
 107 52 l 1,226,-1
 107 48 l 2,227,228
 107 39 107 39 105.5 30.5 c 128,-1,229
 104 22 104 22 104 13 c 2,230,-1
 101 -20 l 2,231,232
 100 -27 100 -27 99.5 -34.5 c 128,-1,233
 99 -42 99 -42 99 -50 c 0,234,235
 98 -56 98 -56 97.5 -61.5 c 128,-1,236
 97 -67 97 -67 95 -73 c 0,237,238
 93 -82 93 -82 88 -86 c 0,239,240
 84 -92 84 -92 75 -90 c 0,0,1
205 315 m 2,241,-1
 206 315 l 2,242,243
 216 317 216 317 225 318 c 128,-1,244
 234 319 234 319 243 320 c 0,245,246
 249 321 249 321 255 321.5 c 128,-1,247
 261 322 261 322 267 322 c 2,248,-1
 288 322 l 2,249,250
 290 322 290 322 292 322.5 c 128,-1,251
 294 323 294 323 295 323 c 0,252,253
 297 323 297 323 297 327 c 0,254,255
 294 331 294 331 292 335 c 128,-1,256
 290 339 290 339 288 343 c 0,257,258
 282 357 282 357 272 367 c 0,259,260
 271 369 271 369 270 370.5 c 128,-1,261
 269 372 269 372 268 374 c 256,262,263
 267 376 267 376 265.5 378.5 c 128,-1,264
 264 381 264 381 262 383 c 0,265,266
 257 387 257 387 252 381 c 2,267,-1
 249 373 l 2,268,269
 248 365 248 365 246 356.5 c 128,-1,270
 244 348 244 348 242 340 c 0,271,272
 242 338 242 338 240 334 c 0,273,274
 238 328 238 328 230.5 325 c 128,-1,275
 223 322 223 322 215 327 c 2,276,-1
 209 331 l 1,277,278
 209 331 209 331 207 331 c 0,279,280
 205 327 205 327 205 325 c 256,281,282
 205 323 205 323 205.5 321 c 128,-1,283
 206 319 206 319 204 317 c 256,284,285
 202 315 202 315 205 315 c 2,241,-1
EndSplineSet
Substitution2: "'ss02' Style Set 2 lookup 11 subtable" A.ss02
Substitution2: "'ss01' Style Set 1 lookup 10 subtable" A.ss01
Substitution2: "'salt' Stylistic Alternatives lookup 9 subtable" A.ss01
Substitution2: "Single Substitution lookup 8 subtable" ordfeminine
AlternateSubs2: "'aalt' Access All Alternates lookup 1 subtable" A.ss01 A.ss02 ordfeminine
EndChar

StartChar: AE
Encoding: 198 198 8
Width: 870
GlyphClass: 2
Flags: W
AnchorPoint: "Anchor-1" 435 0 basechar 0
AnchorPoint: "Anchor-0" 425 700 basechar 0
LayerCount: 2
Fore
SplineSet
104 -550 m 0,0,1
 89 -557 89 -557 80 -544 c 0,2,3
 74 -536 74 -536 72 -525 c 0,4,5
 71 -513 71 -513 70.5 -501 c 128,-1,6
 70 -489 70 -489 68 -476 c 0,7,8
 66 -461 66 -461 65.5 -446 c 128,-1,9
 65 -431 65 -431 65 -416 c 0,10,11
 65 -412 65 -412 64.5 -407.5 c 128,-1,12
 64 -403 64 -403 64 -399 c 0,13,14
 63 -394 63 -394 62 -388.5 c 128,-1,15
 61 -383 61 -383 62 -377 c 0,16,17
 62 -374 62 -374 61.5 -370.5 c 128,-1,18
 61 -367 61 -367 61 -364 c 0,19,20
 60 -359 60 -359 60 -353.5 c 128,-1,21
 60 -348 60 -348 60 -343 c 2,22,-1
 60 -318 l 2,23,24
 60 -314 60 -314 60 -311 c 128,-1,25
 60 -308 60 -308 59 -304 c 0,26,27
 56 -287 56 -287 59 -271 c 2,28,-1
 59 -263 l 2,29,30
 58 -254 58 -254 57.5 -245 c 128,-1,31
 57 -236 57 -236 57 -227 c 0,32,33
 57 -224 57 -224 56.5 -220.5 c 128,-1,34
 56 -217 56 -217 56 -214 c 0,35,36
 54 -201 54 -201 56 -189 c 0,37,38
 57 -180 57 -180 56 -172 c 128,-1,39
 55 -164 55 -164 54 -156 c 0,40,41
 53 -151 53 -151 53 -147.5 c 128,-1,42
 53 -144 53 -144 53 -140 c 0,43,44
 53 -132 53 -132 53 -123.5 c 128,-1,45
 53 -115 53 -115 52 -107 c 0,46,47
 52 -103 52 -103 51.5 -99.5 c 128,-1,48
 51 -96 51 -96 52 -92 c 2,49,-1
 52 -87 l 2,50,51
 51 -79 51 -79 51 -70 c 128,-1,52
 51 -61 51 -61 51 -53 c 0,53,54
 50 -39 50 -39 50 -25 c 128,-1,55
 50 -11 50 -11 50 3 c 0,56,57
 50 6 50 6 50 6 c 2,58,59
 49 12 49 12 49 18 c 128,-1,60
 49 24 49 24 50 31 c 0,61,62
 50 34 50 34 49 35 c 0,63,64
 48 44 48 44 46.5 53 c 128,-1,65
 45 62 45 62 43 71 c 0,66,67
 42 77 42 77 40 83 c 128,-1,68
 38 89 38 89 36 95 c 0,69,70
 36 97 36 97 35.5 98 c 128,-1,71
 35 99 35 99 35 100 c 0,72,73
 31 110 31 110 30 120 c 128,-1,74
 29 130 29 130 30 140 c 0,75,76
 31 147 31 147 32 153 c 128,-1,77
 33 159 33 159 34 165 c 0,78,79
 35 168 35 168 36 171 c 128,-1,80
 37 174 37 174 38 177 c 0,81,82
 42 188 42 188 46 199 c 128,-1,83
 50 210 50 210 54 221 c 0,84,85
 62 239 62 239 63 258 c 2,86,-1
 63 264 l 2,87,88
 66 274 66 274 64 287 c 0,89,90
 63 292 63 292 63 296 c 128,-1,91
 63 300 63 300 63 304 c 0,92,93
 63 309 63 309 65 313.5 c 128,-1,94
 67 318 67 318 69 322 c 0,95,96
 73 327 73 327 77 330 c 0,97,98
 81 332 81 332 82 333 c 0,99,100
 92 340 92 340 95 349 c 0,101,102
 97 354 97 354 99 357.5 c 128,-1,103
 101 361 101 361 102 365 c 0,104,105
 105 376 105 376 108.5 386 c 128,-1,106
 112 396 112 396 116 406 c 0,107,108
 117 410 117 410 118 413 c 128,-1,109
 119 416 119 416 120 420 c 0,110,111
 120 424 120 424 122 428 c 0,112,113
 124 434 124 434 124 435 c 0,114,115
 127 450 127 450 132.5 464.5 c 128,-1,116
 138 479 138 479 142 493 c 2,117,-1
 146 509 l 2,118,119
 147 511 147 511 147 513 c 0,120,121
 152 521 152 521 154 530 c 128,-1,122
 156 539 156 539 159 548 c 0,123,124
 162 556 162 556 163.5 564 c 128,-1,125
 165 572 165 572 166 580 c 0,126,127
 168 601 168 601 177 616 c 0,128,129
 183 625 183 625 191 632 c 128,-1,130
 199 639 199 639 209 642 c 0,131,132
 228 647 228 647 244 640 c 2,133,-1
 251 636 l 2,134,135
 254 634 254 634 257 631 c 128,-1,136
 260 628 260 628 264 626 c 0,137,138
 266 624 266 624 270 624 c 2,139,-1
 287 627 l 2,140,141
 302 628 302 628 316 627 c 2,142,-1
 327 627 l 2,143,144
 334 628 334 628 341.5 628 c 128,-1,145
 349 628 349 628 356 628 c 0,146,147
 361 628 361 628 366 628.5 c 128,-1,148
 371 629 371 629 376 629 c 0,149,150
 380 629 380 629 384.5 629.5 c 128,-1,151
 389 630 389 630 393 631 c 0,152,153
 401 632 401 632 409.5 633 c 128,-1,154
 418 634 418 634 426 635 c 2,155,-1
 430 636 l 2,156,157
 441 636 441 636 452 638 c 128,-1,158
 463 640 463 640 473 642 c 0,159,160
 481 643 481 643 489.5 645 c 128,-1,161
 498 647 498 647 507 648 c 0,162,163
 521 650 521 650 535 653 c 128,-1,164
 549 656 549 656 562 660 c 0,165,166
 568 662 568 662 571 662 c 0,167,168
 581 664 581 664 589.5 666.5 c 128,-1,169
 598 669 598 669 607 672 c 0,170,171
 611 673 611 673 614.5 674 c 128,-1,172
 618 675 618 675 622 676 c 0,173,174
 632 679 632 679 645 675 c 0,175,176
 660 672 660 672 671 661 c 0,177,178
 676 657 676 657 680 648 c 2,179,-1
 683 639 l 2,180,181
 684 634 684 634 685 628 c 128,-1,182
 686 622 686 622 687 617 c 0,183,184
 687 613 687 613 686.5 609.5 c 128,-1,185
 686 606 686 606 683 603 c 2,186,-1
 680 598 l 2,187,188
 678 594 678 594 674 594 c 0,189,190
 671 594 671 594 669 592 c 0,191,192
 666 589 666 589 664 588 c 256,193,194
 662 587 662 587 661 584.5 c 128,-1,195
 660 582 660 582 658 580 c 0,196,197
 657 578 657 578 657 576 c 128,-1,198
 657 574 657 574 655 572 c 0,199,200
 650 561 650 561 641 560 c 0,201,202
 640 560 640 560 638.5 559.5 c 128,-1,203
 637 559 637 559 636 559 c 0,204,205
 631 559 631 559 629 560 c 0,206,207
 626 562 626 562 623.5 563.5 c 128,-1,208
 621 565 621 565 619 566 c 0,209,210
 617 568 617 568 611 568 c 0,211,212
 610 567 610 567 608.5 567 c 128,-1,213
 607 567 607 567 605 566 c 0,214,215
 603 566 603 566 600.5 565.5 c 128,-1,216
 598 565 598 565 595 565 c 0,217,218
 588 566 588 566 580 563 c 0,219,220
 571 562 571 562 562.5 560 c 128,-1,221
 554 558 554 558 546 556 c 0,222,223
 537 554 537 554 528.5 550 c 128,-1,224
 520 546 520 546 512 540 c 0,225,226
 508 537 508 537 503 536.5 c 128,-1,227
 498 536 498 536 493 537 c 0,228,229
 487 539 487 539 484 541 c 0,230,231
 481 542 481 542 474 542 c 0,232,233
 464 541 464 541 453.5 539 c 128,-1,234
 443 537 443 537 432 535 c 2,235,-1
 422 534 l 2,236,237
 406 532 406 532 396 522 c 2,238,-1
 376 507 l 2,239,240
 370 503 370 503 364 499 c 128,-1,241
 358 495 358 495 351 492 c 2,242,-1
 348 490 l 2,243,244
 339 487 339 487 343 479 c 0,245,246
 346 465 346 465 350 457 c 0,247,248
 353 450 353 450 356.5 442.5 c 128,-1,249
 360 435 360 435 363 427 c 0,250,251
 367 418 367 418 371 409.5 c 128,-1,252
 375 401 375 401 379 391 c 0,253,254
 384 380 384 380 396 380 c 0,255,256
 399 381 399 381 401.5 380.5 c 128,-1,257
 404 380 404 380 407 381 c 0,258,259
 414 382 414 382 421 382 c 128,-1,260
 428 382 428 382 435 383 c 2,261,-1
 474 386 l 2,262,263
 478 386 478 386 481.5 386.5 c 128,-1,264
 485 387 485 387 489 388 c 0,265,266
 500 389 500 389 510 390.5 c 128,-1,267
 520 392 520 392 530 393 c 0,268,269
 532 393 532 393 533.5 393.5 c 128,-1,270
 535 394 535 394 536 394 c 0,271,272
 553 399 553 399 569 402.5 c 128,-1,273
 585 406 585 406 601 409 c 0,274,275
 618 412 618 412 632 419 c 0,276,277
 636 420 636 420 639 421 c 128,-1,278
 642 422 642 422 645 423 c 0,279,280
 666 429 666 429 685 416 c 0,281,282
 693 412 693 412 698 405 c 128,-1,283
 703 398 703 398 704 389 c 2,284,-1
 707 381 l 2,285,286
 710 375 710 375 706 369 c 0,287,288
 702 365 702 365 702 359 c 256,289,290
 702 353 702 353 697 346 c 0,291,292
 693 341 693 341 687 337 c 128,-1,293
 681 333 681 333 676 329 c 0,294,295
 674 328 674 328 671 328 c 2,296,-1
 645 322 l 2,297,298
 638 321 638 321 632 320 c 128,-1,299
 626 319 626 319 619 317 c 0,300,301
 610 316 610 316 601 314 c 128,-1,302
 592 312 592 312 583 310 c 0,303,304
 579 309 579 309 575 307 c 128,-1,305
 571 305 571 305 567 303 c 0,306,307
 557 298 557 298 547 298 c 0,308,309
 543 298 543 298 538.5 297 c 128,-1,310
 534 296 534 296 529 295 c 0,311,312
 523 293 523 293 518 293 c 0,313,314
 508 294 508 294 498 292.5 c 128,-1,315
 488 291 488 291 478 289 c 0,316,317
 468 286 468 286 457 286 c 0,318,319
 452 286 452 286 444 283 c 2,320,-1
 433 280 l 1,321,-1
 427 277 l 2,322,323
 422 274 422 274 422 268 c 0,324,325
 423 267 423 267 423 265.5 c 128,-1,326
 423 264 423 264 424 262 c 0,327,328
 426 253 426 253 428 244.5 c 128,-1,329
 430 236 430 236 432 228 c 0,330,331
 435 221 435 221 435 213 c 0,332,333
 436 212 436 212 436 210.5 c 128,-1,334
 436 209 436 209 437 207 c 0,335,336
 439 201 439 201 443 198 c 0,337,338
 451 195 451 195 458 192.5 c 128,-1,339
 465 190 465 190 472 188 c 0,340,341
 484 186 484 186 496 184 c 128,-1,342
 508 182 508 182 519 180 c 0,343,344
 525 179 525 179 531 178 c 128,-1,345
 537 177 537 177 543 175 c 0,346,347
 545 175 545 175 547 174.5 c 128,-1,348
 549 174 549 174 551 174 c 0,349,350
 557 174 557 174 563 173 c 128,-1,351
 569 172 569 172 575 171 c 0,352,353
 579 170 579 170 583 169.5 c 128,-1,354
 587 169 587 169 591 169 c 0,355,356
 593 169 593 169 595.5 168.5 c 128,-1,357
 598 168 598 168 601 168 c 0,358,359
 612 167 612 167 623 166.5 c 128,-1,360
 634 166 634 166 645 164 c 2,361,-1
 647 164 l 2,362,363
 659 166 659 166 671 164 c 2,364,-1
 718 164 l 2,365,366
 727 164 727 164 736 165 c 128,-1,367
 745 166 745 166 754 168 c 0,368,369
 768 171 768 171 779.5 167.5 c 128,-1,370
 791 164 791 164 802 156 c 0,371,372
 807 151 807 151 809 147 c 0,373,374
 811 146 811 146 811.5 144 c 128,-1,375
 812 142 812 142 813 140 c 0,376,377
 817 136 817 136 819 136 c 0,378,379
 824 137 824 137 827 132 c 0,380,381
 832 123 832 123 829 115 c 2,382,-1
 826 108 l 2,383,384
 826 105 826 105 823 108 c 2,385,-1
 821 111 l 2,386,387
 820 113 820 113 817 113 c 0,388,389
 813 111 813 111 813 108 c 0,390,391
 814 107 814 107 814 104 c 0,392,393
 815 100 815 100 812 97 c 0,394,395
 807 91 807 91 801 86 c 2,396,-1
 795 82 l 2,397,398
 782 72 782 72 765 72 c 2,399,-1
 737 72 l 2,400,401
 727 72 727 72 717.5 72 c 128,-1,402
 708 72 708 72 699 71 c 0,403,404
 691 70 691 70 683 70 c 128,-1,405
 675 70 675 70 667 70 c 2,406,-1
 635 70 l 2,407,408
 627 69 627 69 619 68.5 c 128,-1,409
 611 68 611 68 603 69 c 0,410,411
 602 69 602 69 601 68.5 c 128,-1,412
 600 68 600 68 598 68 c 0,413,414
 590 67 590 67 581.5 66.5 c 128,-1,415
 573 66 573 66 565 67 c 0,416,417
 557 67 557 67 548 67 c 128,-1,418
 539 67 539 67 531 68 c 0,419,420
 522 68 522 68 515 63 c 0,421,422
 513 61 513 61 511 59 c 128,-1,423
 509 57 509 57 507 54 c 2,424,-1
 504 48 l 2,425,426
 503 45 503 45 501 42 c 128,-1,427
 499 39 499 39 497 36 c 0,428,429
 493 31 493 31 485 29.5 c 128,-1,430
 477 28 477 28 471 32 c 0,431,432
 469 34 469 34 466.5 35.5 c 128,-1,433
 464 37 464 37 462 40 c 0,434,435
 462 42 462 42 459 45 c 2,436,-1
 455 45 l 1,437,-1
 453 43 l 2,438,439
 448 36 448 36 443.5 28.5 c 128,-1,440
 439 21 439 21 435 13 c 0,441,442
 431 3 431 3 429 -8 c 0,443,444
 428 -18 428 -18 427.5 -29 c 128,-1,445
 427 -40 427 -40 427 -51 c 0,446,447
 427 -64 427 -64 427 -76.5 c 128,-1,448
 427 -89 427 -89 426 -103 c 0,449,450
 425 -111 425 -111 425 -120 c 128,-1,451
 425 -129 425 -129 425 -138 c 0,452,453
 424 -143 424 -143 424.5 -148 c 128,-1,454
 425 -153 425 -153 424 -158 c 0,455,456
 424 -162 424 -162 424 -167 c 128,-1,457
 424 -172 424 -172 423 -177 c 0,458,459
 423 -182 423 -182 422.5 -187.5 c 128,-1,460
 422 -193 422 -193 422 -198 c 2,461,-1
 422 -220 l 2,462,463
 422 -223 422 -223 421.5 -226 c 128,-1,464
 421 -229 421 -229 420 -232 c 0,465,466
 415 -245 415 -245 402 -242 c 0,467,468
 390 -239 390 -239 386 -228 c 0,469,470
 385 -225 385 -225 384 -221.5 c 128,-1,471
 383 -218 383 -218 382 -214 c 0,472,473
 378 -196 378 -196 376.5 -178 c 128,-1,474
 375 -160 375 -160 374 -141 c 0,475,476
 374 -137 374 -137 374 -132.5 c 128,-1,477
 374 -128 374 -128 373 -124 c 0,478,479
 372 -121 372 -121 372 -117.5 c 128,-1,480
 372 -114 372 -114 372 -111 c 2,481,-1
 372 -62 l 1,482,-1
 369 -20 l 2,483,484
 368 -19 368 -19 368 -16 c 0,485,486
 369 -11 369 -11 368 -5.5 c 128,-1,487
 367 0 367 0 367 6 c 0,488,489
 367 14 367 14 364 23 c 0,490,491
 363 28 363 28 361 34 c 128,-1,492
 359 40 359 40 357 46 c 0,493,494
 355 50 355 50 355 52 c 0,495,496
 354 63 354 63 352.5 73.5 c 128,-1,497
 351 84 351 84 352 95 c 0,498,499
 352 97 352 97 352 100 c 128,-1,500
 352 103 352 103 351 106 c 0,501,502
 350 112 350 112 349 118.5 c 128,-1,503
 348 125 348 125 346 132 c 0,504,505
 345 134 345 134 345 138 c 0,506,507
 345 144 345 144 342 150 c 2,508,-1
 340 158 l 1,509,-1
 334 185 l 2,510,511
 333 190 333 190 332 196 c 128,-1,512
 331 202 331 202 330 208 c 0,513,514
 329 212 329 212 328.5 216 c 128,-1,515
 328 220 328 220 326 224 c 0,516,517
 325 229 325 229 324 234.5 c 128,-1,518
 323 240 323 240 322 245 c 0,519,520
 322 247 322 247 321.5 248.5 c 128,-1,521
 321 250 321 250 321 251 c 1,522,-1
 319 251 l 1,523,-1
 319 247 l 2,524,525
 318 237 318 237 318 227.5 c 128,-1,526
 318 218 318 218 317 208 c 0,527,528
 317 204 317 204 318 202 c 0,529,530
 319 191 319 191 319 180 c 128,-1,531
 319 169 319 169 317 158 c 2,532,-1
 317 139 l 2,533,534
 316 135 316 135 315.5 130 c 128,-1,535
 315 125 315 125 313 120 c 0,536,537
 310 112 310 112 300.5 110 c 128,-1,538
 291 108 291 108 285 115 c 0,539,540
 275 123 275 123 275 135 c 2,541,-1
 275 139 l 2,542,543
 273 146 273 146 272.5 152.5 c 128,-1,544
 272 159 272 159 270 166 c 0,545,546
 269 168 269 168 269 172 c 0,547,548
 269 183 269 183 267 193 c 128,-1,549
 265 203 265 203 265 213 c 0,550,551
 265 217 265 217 264 219 c 0,552,553
 263 226 263 226 261 232 c 128,-1,554
 259 238 259 238 257 245 c 0,555,556
 257 246 257 246 256.5 246 c 128,-1,557
 256 246 256 246 256 247 c 0,558,559
 253 257 253 257 244 251 c 2,560,-1
 233 245 l 2,561,562
 229 243 229 243 225.5 240.5 c 128,-1,563
 222 238 222 238 219 234 c 0,564,565
 212 225 212 225 203 221 c 0,566,567
 199 220 199 220 196 217 c 0,568,569
 194 215 194 215 191 212 c 128,-1,570
 188 209 188 209 186 206 c 0,571,572
 184 204 184 204 182 198 c 0,573,574
 178 188 178 188 175.5 178.5 c 128,-1,575
 173 169 173 169 171 159 c 2,576,-1
 168 151 l 2,577,578
 166 141 166 141 163.5 131 c 128,-1,579
 161 121 161 121 158 110 c 0,580,581
 154 97 154 97 151 84 c 128,-1,582
 148 71 148 71 143 57 c 0,583,584
 143 55 143 55 141 53 c 0,585,586
 137 43 137 43 133.5 34 c 128,-1,587
 130 25 130 25 127 15 c 0,588,589
 124 8 124 8 123 1 c 128,-1,590
 122 -6 122 -6 120 -14 c 0,591,592
 120 -19 120 -19 118 -27 c 0,593,594
 117 -31 117 -31 117 -34.5 c 128,-1,595
 117 -38 117 -38 117 -42 c 0,596,597
 118 -58 118 -58 117.5 -73.5 c 128,-1,598
 117 -89 117 -89 117 -104 c 0,599,600
 117 -109 117 -109 116.5 -113.5 c 128,-1,601
 116 -118 116 -118 115 -123 c 0,602,603
 114 -126 114 -126 113.5 -129.5 c 128,-1,604
 113 -133 113 -133 112 -137 c 0,605,606
 112 -147 112 -147 112 -157.5 c 128,-1,607
 112 -168 112 -168 114 -179 c 2,608,-1
 114 -187 l 2,609,610
 115 -191 115 -191 115 -195 c 128,-1,611
 115 -199 115 -199 116 -203 c 0,612,613
 116 -207 116 -207 116.5 -210 c 128,-1,614
 117 -213 117 -213 117 -217 c 0,615,616
 117 -223 117 -223 117.5 -229.5 c 128,-1,617
 118 -236 118 -236 119 -242 c 0,618,619
 120 -246 120 -246 120 -252 c 0,620,621
 120 -256 120 -256 120.5 -260.5 c 128,-1,622
 121 -265 121 -265 121 -270 c 256,623,624
 121 -275 121 -275 120.5 -279.5 c 128,-1,625
 120 -284 120 -284 120 -289 c 2,626,-1
 120 -340 l 2,627,628
 120 -344 120 -344 120 -347.5 c 128,-1,629
 120 -351 120 -351 119 -355 c 0,630,631
 118 -358 118 -358 118 -361 c 128,-1,632
 118 -364 118 -364 118 -367 c 0,633,634
 120 -377 120 -377 120 -386.5 c 128,-1,635
 120 -396 120 -396 119 -406 c 0,636,637
 118 -413 118 -413 117.5 -419.5 c 128,-1,638
 117 -426 117 -426 117 -433 c 0,639,640
 117 -443 117 -443 117.5 -453.5 c 128,-1,641
 118 -464 118 -464 117 -475 c 2,642,-1
 116 -485 l 2,643,644
 115 -496 115 -496 114 -507.5 c 128,-1,645
 113 -519 113 -519 113 -530 c 0,646,647
 112 -533 112 -533 112 -539 c 0,648,649
 110 -547 110 -547 104 -550 c 0,0,1
221 361 m 2,650,651
 227 360 227 360 232.5 361 c 128,-1,652
 238 362 238 362 242 363 c 0,653,654
 246 365 246 365 244 367 c 0,655,656
 243 372 243 372 241 376 c 128,-1,657
 239 380 239 380 237 384 c 0,658,659
 234 392 234 392 227 396 c 0,660,661
 223 400 223 400 221 394 c 0,662,663
 220 389 220 389 218 383 c 128,-1,664
 216 377 216 377 214 371 c 2,665,-1
 214 365 l 2,666,667
 214 364 214 364 217 361 c 2,668,-1
 221 361 l 2,650,651
EndSplineSet
EndChar

StartChar: B
Encoding: 66 66 9
Width: 539
GlyphClass: 2
Flags: W
AnchorPoint: "Anchor-1" 270 0 basechar 0
AnchorPoint: "Anchor-0" 270 700 basechar 0
LayerCount: 2
Fore
SplineSet
174 -137 m 0,0,1
 169 -139 169 -139 166 -136 c 0,2,3
 155 -131 155 -131 152 -119 c 2,4,-1
 152 -117 l 2,5,6
 151 -108 151 -108 150 -99 c 128,-1,7
 149 -90 149 -90 148 -82 c 0,8,9
 148 -80 148 -80 147.5 -77.5 c 128,-1,10
 147 -75 147 -75 147 -73 c 0,11,12
 146 -70 146 -70 146 -67 c 128,-1,13
 146 -64 146 -64 146 -61 c 0,14,15
 146 -53 146 -53 144 -47 c 128,-1,16
 142 -41 142 -41 140 -35 c 0,17,18
 138 -31 138 -31 136 -30 c 0,19,20
 132 -25 132 -25 130 -19.5 c 128,-1,21
 128 -14 128 -14 125 -8 c 2,22,-1
 125 -7 l 1,23,24
 120 7 120 7 119 11.5 c 128,-1,25
 118 16 118 16 118 30 c 2,26,-1
 118 43 l 2,27,28
 118 53 118 53 124 59 c 0,29,30
 125 61 125 61 126.5 63 c 128,-1,31
 128 65 128 65 129 67 c 0,32,33
 131 73 131 73 129 76 c 0,34,35
 125 84 125 84 123 92.5 c 128,-1,36
 121 101 121 101 119 110 c 2,37,-1
 119 121 l 2,38,39
 120 127 120 127 120.5 132.5 c 128,-1,40
 121 138 121 138 122 144 c 0,41,42
 124 153 124 153 122 164 c 0,43,44
 120 170 120 170 120 173 c 0,45,46
 119 176 119 176 118.5 179 c 128,-1,47
 118 182 118 182 118 185 c 0,48,49
 118 197 118 197 115 207 c 0,50,51
 113 213 113 213 113 217 c 0,52,53
 113 233 113 233 111 248.5 c 128,-1,54
 109 264 109 264 107 280 c 0,55,56
 107 282 107 282 106.5 282.5 c 128,-1,57
 106 283 106 283 106 284 c 0,58,59
 106 292 106 292 104 300.5 c 128,-1,60
 102 309 102 309 100 316 c 0,61,62
 99 318 99 318 99 321 c 128,-1,63
 99 324 99 324 98 326 c 0,64,65
 97 333 97 333 96.5 339 c 128,-1,66
 96 345 96 345 94 352 c 2,67,-1
 94 356 l 2,68,69
 93 367 93 367 90.5 377 c 128,-1,70
 88 387 88 387 86 397 c 0,71,72
 86 401 86 401 85.5 405 c 128,-1,73
 85 409 85 409 84 413 c 2,74,-1
 81 424 l 2,75,76
 80 428 80 428 79.5 432.5 c 128,-1,77
 79 437 79 437 78 441 c 0,78,79
 77 448 77 448 77 454.5 c 128,-1,80
 77 461 77 461 76 468 c 256,81,82
 75 475 75 475 74.5 481 c 128,-1,83
 74 487 74 487 72 493 c 0,84,85
 71 501 71 501 70.5 509.5 c 128,-1,86
 70 518 70 518 68 526 c 0,87,88
 65 542 65 542 56 555 c 0,89,90
 37 583 37 583 40 618 c 0,91,92
 42 629 42 629 49 638 c 0,93,94
 50 640 50 640 54 644 c 0,95,96
 61 653 61 653 70.5 657.5 c 128,-1,97
 80 662 80 662 91 663 c 0,98,99
 108 666 108 666 122 672 c 0,100,101
 149 680 149 680 176 684 c 0,102,103
 194 687 194 687 212 687 c 2,104,-1
 222 687 l 2,105,106
 230 689 230 689 238.5 689 c 128,-1,107
 247 689 247 689 255 689 c 2,108,-1
 264 689 l 2,109,110
 270 689 270 689 274 693 c 2,111,-1
 286 700 l 2,112,113
 289 702 289 702 292 700 c 256,114,115
 295 698 295 698 298.5 697 c 128,-1,116
 302 696 302 696 305 694 c 0,117,118
 310 692 310 692 314 690 c 128,-1,119
 318 688 318 688 322 686 c 0,120,121
 324 684 324 684 327 683 c 128,-1,122
 330 682 330 682 333 681 c 2,123,-1
 352 677 l 2,124,125
 360 676 360 676 366.5 673.5 c 128,-1,126
 373 671 373 671 380 668 c 0,127,128
 388 665 388 665 394 659.5 c 128,-1,129
 400 654 400 654 406 647 c 0,130,131
 420 634 420 634 424 614 c 0,132,133
 425 606 425 606 429 595 c 0,134,135
 431 588 431 588 431 581 c 128,-1,136
 431 574 431 574 432 566 c 2,137,138
 432 566 432 566 432 561 c 0,139,140
 431 550 431 550 429 538.5 c 128,-1,141
 427 527 427 527 424 516 c 0,142,143
 421 506 421 506 417.5 495 c 128,-1,144
 414 484 414 484 409 474 c 0,145,146
 403 459 403 459 392 445 c 0,147,148
 385 436 385 436 378.5 426.5 c 128,-1,149
 372 417 372 417 364 408 c 0,150,151
 360 404 360 404 356 399.5 c 128,-1,152
 352 395 352 395 348 391 c 2,153,-1
 336 379 l 1,154,-1
 336 377 l 2,155,156
 336 375 336 375 338 375 c 2,157,-1
 353 375 l 2,158,159
 367 374 367 374 381 371.5 c 128,-1,160
 395 369 395 369 408 365 c 0,161,162
 411 364 411 364 413.5 363 c 128,-1,163
 416 362 416 362 419 360 c 2,164,-1
 431 353 l 2,165,166
 437 349 437 349 442 345 c 128,-1,167
 447 341 447 341 449 333 c 0,168,169
 451 328 451 328 454 323 c 0,170,171
 459 314 459 314 463 304.5 c 128,-1,172
 467 295 467 295 471 285 c 0,173,174
 473 281 473 281 474.5 277.5 c 128,-1,175
 476 274 476 274 477 270 c 0,176,177
 482 256 482 256 487 242 c 128,-1,178
 492 228 492 228 495 213 c 2,179,-1
 498 188 l 2,180,181
 500 182 500 182 498 175 c 0,182,183
 497 169 497 169 496 163.5 c 128,-1,184
 495 158 495 158 494 152 c 0,185,186
 491 139 491 139 485 127 c 0,187,188
 482 121 482 121 477 116 c 0,189,190
 464 100 464 100 450 91 c 0,191,192
 443 87 443 87 436.5 82 c 128,-1,193
 430 77 430 77 422 72 c 0,194,195
 407 63 407 63 388 53 c 0,196,197
 383 51 383 51 377.5 48 c 128,-1,198
 372 45 372 45 367 43 c 0,199,200
 351 36 351 36 336 29 c 128,-1,201
 321 22 321 22 306 16 c 0,202,203
 290 10 290 10 275 4 c 128,-1,204
 260 -2 260 -2 243 -7 c 0,205,206
 239 -8 239 -8 235.5 -9 c 128,-1,207
 232 -10 232 -10 228 -11 c 0,208,209
 210 -14 210 -14 199 -30 c 0,210,211
 195 -34 195 -34 195 -40 c 0,212,213
 194 -44 194 -44 193.5 -47.5 c 128,-1,214
 193 -51 193 -51 193 -55 c 0,215,216
 192 -58 192 -58 192 -63 c 2,217,-1
 192 -98 l 2,218,219
 192 -103 192 -103 192 -108.5 c 128,-1,220
 192 -114 192 -114 190 -119 c 0,221,222
 188 -130 188 -130 174 -137 c 0,0,1
197 388 m 2,223,224
 198 387 198 387 198 387.5 c 128,-1,225
 198 388 198 388 199 388 c 0,226,227
 200 389 200 389 200.5 389 c 128,-1,228
 201 389 201 389 201 389 c 2,229,230
 206 388 206 388 211 391 c 0,231,232
 216 395 216 395 221.5 398.5 c 128,-1,233
 227 402 227 402 233 406 c 0,234,235
 242 412 242 412 250.5 419.5 c 128,-1,236
 259 427 259 427 267 435 c 0,237,238
 279 448 279 448 290 461.5 c 128,-1,239
 301 475 301 475 310 490 c 0,240,241
 315 499 315 499 320 507.5 c 128,-1,242
 325 516 325 516 329 526 c 0,243,244
 334 539 334 539 336 556 c 0,245,246
 338 566 338 566 335 574 c 256,247,248
 332 582 332 582 326 585 c 0,249,250
 308 593 308 593 292 593 c 0,251,252
 282 593 282 593 273 593 c 128,-1,253
 264 593 264 593 255 592 c 0,254,255
 247 591 247 591 239 590 c 128,-1,256
 231 589 231 589 223 587 c 0,257,258
 216 585 216 585 208.5 582.5 c 128,-1,259
 201 580 201 580 193 578 c 0,260,261
 182 575 182 575 179 565 c 0,262,263
 177 562 177 562 177 556 c 2,264,-1
 177 540 l 2,265,266
 176 530 176 530 177 520 c 128,-1,267
 178 510 178 510 179 500 c 1,268,-1
 180 499 l 1,269,270
 179 492 179 492 180.5 485 c 128,-1,271
 182 478 182 478 183 470 c 0,272,273
 183 467 183 467 186 465 c 0,274,275
 190 463 190 463 187 457 c 2,276,277
 187 457 187 457 186.5 456.5 c 128,-1,278
 186 456 186 456 187 455 c 0,279,280
 189 454 189 454 188 451.5 c 128,-1,281
 187 449 187 449 187 447 c 0,282,283
 187 439 187 439 188 436 c 0,284,285
 189 434 189 434 189 431 c 0,286,287
 189 427 189 427 190 422.5 c 128,-1,288
 191 418 191 418 192 414 c 0,289,290
 192 412 192 412 194 413 c 0,291,292
 195 414 195 414 197 414 c 0,293,294
 198 414 198 414 198 411 c 2,295,-1
 198 408 l 1,296,297
 193 401 193 401 196 393 c 2,298,-1
 196 389 l 1,299,300
 197 389 197 389 197 388.5 c 128,-1,301
 197 388 197 388 197 388 c 2,223,224
215 83 m 0,302,303
 218 83 218 83 221 83 c 128,-1,304
 224 83 224 83 228 84 c 0,305,306
 246 87 246 87 266 95 c 2,307,-1
 305 113 l 2,308,309
 321 121 321 121 336 128.5 c 128,-1,310
 351 136 351 136 367 143 c 0,311,312
 384 152 384 152 398 167 c 0,313,314
 407 176 407 176 407 189 c 2,315,-1
 407 194 l 2,316,317
 406 196 406 196 406 197.5 c 128,-1,318
 406 199 406 199 405 201 c 0,319,320
 402 217 402 217 396.5 231.5 c 128,-1,321
 391 246 391 246 385 261 c 0,322,323
 384 265 384 265 382 268.5 c 128,-1,324
 380 272 380 272 378 276 c 0,325,326
 375 282 375 282 370 283 c 0,327,328
 361 286 361 286 353 286 c 2,329,-1
 337 286 l 2,330,331
 310 287 310 287 282 283 c 256,332,333
 254 279 254 279 225 271 c 1,334,-1
 218 268 l 2,335,336
 217 267 217 267 216.5 267 c 128,-1,337
 216 267 216 267 215 266 c 0,338,339
 212 263 212 263 214 260 c 2,340,-1
 216 258 l 2,341,342
 219 255 219 255 217 252 c 256,343,344
 215 249 215 249 215 244 c 0,345,346
 215 240 215 240 215 236.5 c 128,-1,347
 215 233 215 233 216 229 c 256,348,349
 217 225 217 225 217 221 c 128,-1,350
 217 217 217 217 217 213 c 2,351,-1
 217 201 l 2,352,353
 217 191 217 191 221 186 c 0,354,355
 223 182 223 182 223.5 178 c 128,-1,356
 224 174 224 174 224 170 c 0,357,358
 224 165 224 165 221 159 c 0,359,360
 218 154 218 154 220 147 c 0,361,362
 221 145 221 145 223 143 c 0,363,364
 225 136 225 136 221 132 c 0,365,366
 218 127 218 127 219 123 c 0,367,368
 219 117 219 117 218 114 c 0,369,370
 217 112 217 112 215.5 109 c 128,-1,371
 214 106 214 106 211 104 c 0,372,373
 206 100 206 100 204 92 c 0,374,375
 202 88 202 88 202 85.5 c 128,-1,376
 202 83 202 83 209 84 c 0,377,378
 211 84 211 84 212.5 83.5 c 128,-1,379
 214 83 214 83 215 83 c 0,302,303
EndSplineSet
Substitution2: "'ss01' Style Set 1 lookup 10 subtable" B.ss01
Substitution2: "'salt' Stylistic Alternatives lookup 9 subtable" B.ss01
Substitution2: "'aalt' Access All Alternates lookup 0 subtable" B.ss01
EndChar

StartChar: C
Encoding: 67 67 10
Width: 566
GlyphClass: 2
Flags: W
AnchorPoint: "Anchor-1" 313 40 basechar 0
AnchorPoint: "Anchor-0" 294 765 basechar 0
LayerCount: 2
Fore
SplineSet
171 -126 m 0,0,1
 168 -126 168 -126 166 -124.5 c 128,-1,2
 164 -123 164 -123 162 -122 c 0,3,4
 158 -116 158 -116 156 -110 c 0,5,6
 155 -104 155 -104 154 -98.5 c 128,-1,7
 153 -93 153 -93 153 -87 c 0,8,9
 153 -84 153 -84 153 -80.5 c 128,-1,10
 153 -77 153 -77 152 -73 c 0,11,12
 151 -68 151 -68 150 -63.5 c 128,-1,13
 149 -59 149 -59 148 -55 c 0,14,15
 145 -42 145 -42 137 -34 c 0,16,17
 132 -31 132 -31 129 -26 c 0,18,19
 122 -19 122 -19 116 -11.5 c 128,-1,20
 110 -4 110 -4 105 4 c 2,21,-1
 100 13 l 2,22,23
 93 21 93 21 88.5 30 c 128,-1,24
 84 39 84 39 80 48 c 2,25,-1
 74 64 l 1,26,-1
 71 70 l 2,27,28
 70 78 70 78 68 85.5 c 128,-1,29
 66 93 66 93 64 100 c 0,30,31
 63 105 63 105 62 108.5 c 128,-1,32
 61 112 61 112 60 116 c 0,33,34
 59 124 59 124 58 132 c 128,-1,35
 57 140 57 140 55 147 c 0,36,37
 54 149 54 149 54 154 c 2,38,-1
 51 182 l 2,39,40
 50 193 50 193 49 203 c 128,-1,41
 48 213 48 213 46 223 c 2,42,-1
 46 227 l 2,43,44
 46 235 46 235 45 243 c 128,-1,45
 44 251 44 251 43 258 c 0,46,47
 42 262 42 262 42 265.5 c 128,-1,48
 42 269 42 269 42 273 c 0,49,50
 44 278 44 278 42 282 c 0,51,52
 41 287 41 287 41 292.5 c 128,-1,53
 41 298 41 298 41 302 c 0,54,55
 41 312 41 312 40.5 321.5 c 128,-1,56
 40 331 40 331 40 341 c 0,57,58
 40 352 40 352 40.5 363 c 128,-1,59
 41 374 41 374 42 384 c 2,60,-1
 42 391 l 2,61,62
 43 413 43 413 47 434 c 128,-1,63
 51 455 51 455 57 475 c 2,64,-1
 69 515 l 2,65,66
 71 521 71 521 73 526.5 c 128,-1,67
 75 532 75 532 77 537 c 0,68,69
 80 545 80 545 83 553.5 c 128,-1,70
 86 562 86 562 88 570 c 0,71,72
 90 580 90 580 93 590.5 c 128,-1,73
 96 601 96 601 98 611 c 0,74,75
 102 626 102 626 109 640 c 128,-1,76
 116 654 116 654 127 664 c 0,77,78
 129 666 129 666 131 668.5 c 128,-1,79
 133 671 133 671 136 672 c 0,80,81
 141 675 141 675 145.5 678 c 128,-1,82
 150 681 150 681 155 684 c 0,83,84
 175 695 175 695 195 702 c 2,85,-1
 233 717 l 2,86,87
 239 719 239 719 247 721 c 0,88,89
 252 723 252 723 257 723.5 c 128,-1,90
 262 724 262 724 266 725 c 0,91,92
 296 731 296 731 325 725 c 0,93,94
 336 722 336 722 347 716 c 0,95,96
 366 707 366 707 385 693 c 0,97,98
 396 684 396 684 406 673.5 c 128,-1,99
 416 663 416 663 423 649 c 0,100,101
 430 636 430 636 436 623 c 0,102,103
 439 612 439 612 446 604 c 2,104,-1
 458 586 l 2,105,106
 460 584 460 584 461.5 581 c 128,-1,107
 463 578 463 578 464 576 c 0,108,109
 471 559 471 559 468 539 c 0,110,111
 465 523 465 523 458 513 c 0,112,113
 454 507 454 507 452 505 c 0,114,115
 438 490 438 490 438 467 c 2,116,-1
 438 464 l 2,117,118
 437 454 437 454 437 443.5 c 128,-1,119
 437 433 437 433 436 422 c 2,120,-1
 436 380 l 2,121,122
 435 375 435 375 435 369.5 c 128,-1,123
 435 364 435 364 434 359 c 0,124,125
 433 356 433 356 433 352.5 c 128,-1,126
 433 349 433 349 433 345 c 0,127,128
 433 335 433 335 428 325 c 0,129,130
 421 315 421 315 409 318 c 0,131,132
 400 321 400 321 397 330 c 0,133,134
 396 333 396 333 394.5 336 c 128,-1,135
 393 339 393 339 392 343 c 0,136,137
 391 348 391 348 390.5 354 c 128,-1,138
 390 360 390 360 390 365 c 0,139,140
 390 372 390 372 389.5 378.5 c 128,-1,141
 389 385 389 385 389 392 c 2,142,-1
 389 395 l 2,143,144
 388 402 388 402 387.5 408.5 c 128,-1,145
 387 415 387 415 387 422 c 0,146,147
 386 433 386 433 385 444 c 128,-1,148
 384 455 384 455 382 465 c 2,149,-1
 373 489 l 2,150,151
 369 497 369 497 365.5 505 c 128,-1,152
 362 513 362 513 358 521 c 0,153,154
 356 528 356 528 352 534 c 128,-1,155
 348 540 348 540 344 547 c 0,156,157
 336 562 336 562 326 573 c 0,158,159
 324 575 324 575 322 577 c 128,-1,160
 320 579 320 579 318 581 c 0,161,162
 314 583 314 583 310.5 585.5 c 128,-1,163
 307 588 307 588 304 592 c 0,164,165
 303 593 303 593 301.5 593.5 c 128,-1,166
 300 594 300 594 298 595 c 0,167,168
 277 601 277 601 261 596 c 2,169,-1
 246 593 l 2,170,171
 242 593 242 593 238.5 592.5 c 128,-1,172
 235 592 235 592 231 591 c 2,173,-1
 224 588 l 2,174,175
 221 587 221 587 217 581 c 0,176,177
 217 577 217 577 215 573 c 0,178,179
 214 570 214 570 213.5 567.5 c 128,-1,180
 213 565 213 565 213 563 c 0,181,182
 210 549 210 549 205 536 c 128,-1,183
 200 523 200 523 194 509 c 0,184,185
 192 504 192 504 188 498 c 0,186,187
 186 495 186 495 184 492.5 c 128,-1,188
 182 490 182 490 181 485 c 2,189,-1
 175 476 l 2,190,191
 170 471 170 471 168 462 c 0,192,193
 165 454 165 454 163.5 445.5 c 128,-1,194
 162 437 162 437 160 429 c 0,195,196
 157 417 157 417 156 405 c 128,-1,197
 155 393 155 393 154 381 c 2,198,-1
 154 315 l 2,199,200
 154 311 154 311 153.5 308 c 128,-1,201
 153 305 153 305 153 301 c 0,202,203
 153 293 153 293 152.5 284 c 128,-1,204
 152 275 152 275 153 267 c 0,205,206
 154 264 154 264 154 258 c 0,207,208
 154 245 154 245 157 231 c 0,209,210
 157 227 157 227 158 226 c 0,211,212
 163 221 163 221 160 216 c 0,213,214
 160 213 160 213 161 212 c 0,215,216
 165 199 165 199 168 186.5 c 128,-1,217
 171 174 171 174 175 161 c 0,218,219
 179 150 179 150 183.5 139 c 128,-1,220
 188 128 188 128 195 117 c 0,221,222
 203 105 203 105 218 98 c 0,223,224
 224 96 224 96 230 94 c 128,-1,225
 236 92 236 92 242 91 c 0,226,227
 249 90 249 90 255 89.5 c 128,-1,228
 261 89 261 89 267 89 c 0,229,230
 275 89 275 89 283 90 c 128,-1,231
 291 91 291 91 298 92 c 0,232,233
 309 94 309 94 318.5 96 c 128,-1,234
 328 98 328 98 338 100 c 0,235,236
 355 103 355 103 369 110 c 0,237,238
 370 110 370 110 372 112 c 0,239,240
 380 117 380 117 387.5 122.5 c 128,-1,241
 395 128 395 128 402 135 c 0,242,243
 408 141 408 141 414.5 147 c 128,-1,244
 421 153 421 153 426 160 c 2,245,-1
 435 173 l 2,246,247
 441 184 441 184 448 189 c 0,248,249
 452 193 452 193 454 196 c 256,250,251
 456 199 456 199 459 199 c 0,252,253
 465 199 465 199 471 200 c 128,-1,254
 477 201 477 201 484 200 c 0,255,256
 490 199 490 199 495.5 196.5 c 128,-1,257
 501 194 501 194 506 192 c 0,258,259
 508 191 508 191 511 188 c 0,260,261
 516 182 516 182 519.5 176.5 c 128,-1,262
 523 171 523 171 524 164 c 0,263,264
 526 156 526 156 526 153 c 0,265,266
 527 147 527 147 524 139 c 0,267,268
 520 130 520 130 512 120 c 0,269,270
 507 116 507 116 502 110 c 128,-1,271
 497 104 497 104 492 99 c 0,272,273
 485 92 485 92 479 84.5 c 128,-1,274
 473 77 473 77 465 70 c 0,275,276
 462 68 462 68 459.5 65.5 c 128,-1,277
 457 63 457 63 455 61 c 0,278,279
 446 52 446 52 435.5 45.5 c 128,-1,280
 425 39 425 39 414 34 c 2,281,-1
 387 22 l 2,282,283
 377 18 377 18 366.5 15 c 128,-1,284
 356 12 356 12 345 9 c 0,285,286
 335 6 335 6 324.5 3.5 c 128,-1,287
 314 1 314 1 303 -1 c 2,288,-1
 264 -7 l 2,289,290
 257 -8 257 -8 249.5 -9.5 c 128,-1,291
 242 -11 242 -11 234 -10 c 0,292,293
 224 -9 224 -9 213 -16 c 0,294,295
 203 -21 203 -21 202 -30 c 0,296,297
 200 -36 200 -36 200 -39 c 2,298,-1
 197 -65 l 2,299,300
 197 -72 197 -72 196.5 -80 c 128,-1,301
 196 -88 196 -88 195 -96 c 0,302,303
 194 -100 194 -100 193 -104.5 c 128,-1,304
 192 -109 192 -109 190 -114 c 0,305,306
 185 -126 185 -126 171 -126 c 0,0,1
EndSplineSet
EndChar

StartChar: D
Encoding: 68 68 12
Width: 555
GlyphClass: 2
Flags: W
AnchorPoint: "Anchor-1" 278 0 basechar 0
AnchorPoint: "Anchor-0" 278 700 basechar 0
LayerCount: 2
Fore
SplineSet
142 -370 m 0,0,1
 131 -373 131 -373 123 -362 c 2,2,-1
 120 -354 l 2,3,4
 118 -346 118 -346 116 -337 c 128,-1,5
 114 -328 114 -328 113 -320 c 2,6,-1
 110 -300 l 2,7,8
 109 -295 109 -295 108.5 -289.5 c 128,-1,9
 108 -284 108 -284 107 -279 c 0,10,11
 107 -273 107 -273 106.5 -267.5 c 128,-1,12
 106 -262 106 -262 105 -256 c 0,13,14
 105 -251 105 -251 105 -246.5 c 128,-1,15
 105 -242 105 -242 104 -237 c 0,16,17
 104 -233 104 -233 104 -229 c 128,-1,18
 104 -225 104 -225 103 -221 c 0,19,20
 103 -216 103 -216 102.5 -210.5 c 128,-1,21
 102 -205 102 -205 102 -200 c 0,22,23
 101 -193 101 -193 101 -186 c 128,-1,24
 101 -179 101 -179 100 -172 c 2,25,-1
 97 -145 l 1,26,-1
 97 -136 l 2,27,28
 98 -129 98 -129 98 -122.5 c 128,-1,29
 98 -116 98 -116 99 -109 c 2,30,-1
 99 -101 l 2,31,32
 100 -92 100 -92 98.5 -83.5 c 128,-1,33
 97 -75 97 -75 99 -66 c 0,34,35
 99 -58 99 -58 98.5 -49 c 128,-1,36
 98 -40 98 -40 98 -32 c 0,37,38
 98 -26 98 -26 99 -23 c 0,39,40
 100 -12 100 -12 98.5 -1.5 c 128,-1,41
 97 9 97 9 97 19 c 0,42,43
 97 23 97 23 96 25.5 c 128,-1,44
 95 28 95 28 93 31 c 0,45,46
 86 41 86 41 86 55 c 0,47,48
 86 62 86 62 85 66 c 0,49,50
 85 72 85 72 86 75 c 0,51,52
 88 92 88 92 85 106 c 0,53,54
 85 111 85 111 85 115.5 c 128,-1,55
 85 120 85 120 84 124 c 0,56,57
 84 131 84 131 84 138.5 c 128,-1,58
 84 146 84 146 82 153 c 2,59,-1
 82 154 l 2,60,61
 81 167 81 167 80.5 179 c 128,-1,62
 80 191 80 191 79 204 c 2,63,-1
 79 209 l 2,64,65
 77 223 77 223 76.5 237.5 c 128,-1,66
 76 252 76 252 73 267 c 0,67,68
 72 272 72 272 72 277.5 c 128,-1,69
 72 283 72 283 72 288 c 0,70,71
 72 297 72 297 71 305.5 c 128,-1,72
 70 314 70 314 68 323 c 0,73,74
 68 327 68 327 67.5 331 c 128,-1,75
 67 335 67 335 67 339 c 2,76,-1
 64 360 l 2,77,78
 63 363 63 363 62.5 366 c 128,-1,79
 62 369 62 369 62 373 c 2,80,-1
 59 404 l 2,81,82
 59 408 59 408 57 412 c 0,83,84
 56 420 56 420 54.5 428.5 c 128,-1,85
 53 437 53 437 54 445 c 0,86,87
 54 452 54 452 53 456 c 0,88,89
 52 462 52 462 52 468.5 c 128,-1,90
 52 475 52 475 52 481 c 0,91,92
 52 495 52 495 51.5 509 c 128,-1,93
 51 523 51 523 52 536 c 0,94,95
 52 545 52 545 52.5 553.5 c 128,-1,96
 53 562 53 562 54 570 c 2,97,-1
 54 580 l 2,98,99
 54 588 54 588 51 595 c 0,100,101
 49 598 49 598 47 602 c 0,102,103
 46 605 46 605 45 608.5 c 128,-1,104
 44 612 44 612 42 616 c 0,105,106
 37 630 37 630 45 644 c 0,107,108
 45 645 45 645 45.5 645.5 c 128,-1,109
 46 646 46 646 46 647 c 0,110,111
 49 655 49 655 57 662 c 0,112,113
 69 671 69 671 73 684 c 0,114,115
 79 698 79 698 91 706 c 0,116,117
 94 708 94 708 96.5 709.5 c 128,-1,118
 99 711 99 711 102 711 c 0,119,120
 106 712 106 712 111 717 c 0,121,122
 112 718 112 718 115 718 c 2,123,-1
 135 715 l 2,124,125
 141 715 141 715 145 711 c 256,126,127
 149 707 149 707 152.5 704 c 128,-1,128
 156 701 156 701 157 696 c 2,129,-1
 163 690 l 2,130,131
 168 685 168 685 173 686 c 256,132,133
 178 687 178 687 182 686 c 128,-1,134
 186 685 186 685 190 683 c 0,135,136
 196 680 196 680 202.5 678 c 128,-1,137
 209 676 209 676 215 674 c 0,138,139
 219 673 219 673 222.5 671 c 128,-1,140
 226 669 226 669 230 667 c 0,141,142
 242 662 242 662 254 656.5 c 128,-1,143
 266 651 266 651 277 643 c 0,144,145
 289 635 289 635 301.5 626.5 c 128,-1,146
 314 618 314 618 324 608 c 2,147,-1
 369 570 l 2,148,149
 375 566 375 566 380 560.5 c 128,-1,150
 385 555 385 555 390 550 c 0,151,152
 400 540 400 540 412 531 c 0,153,154
 420 526 420 526 426.5 520 c 128,-1,155
 433 514 433 514 440 508 c 0,156,157
 448 501 448 501 455 493 c 128,-1,158
 462 485 462 485 469 477 c 0,159,160
 478 467 478 467 485 456 c 128,-1,161
 492 445 492 445 496 432 c 2,162,-1
 505 408 l 2,163,164
 510 396 510 396 513 383.5 c 128,-1,165
 516 371 516 371 515 357 c 2,166,-1
 515 342 l 2,167,168
 516 330 516 330 514 318 c 128,-1,169
 512 306 512 306 509 295 c 0,170,171
 508 290 508 290 507 285.5 c 128,-1,172
 506 281 506 281 505 276 c 0,173,174
 499 259 499 259 490 242 c 0,175,176
 486 235 486 235 482 227.5 c 128,-1,177
 478 220 478 220 473 212 c 0,178,179
 471 208 471 208 468 205 c 0,180,181
 458 192 458 192 446.5 180 c 128,-1,182
 435 168 435 168 422 157 c 0,183,184
 418 154 418 154 414 150.5 c 128,-1,185
 410 147 410 147 406 143 c 0,186,187
 405 141 405 141 402.5 139 c 128,-1,188
 400 137 400 137 398 135 c 0,189,190
 392 129 392 129 386.5 123.5 c 128,-1,191
 381 118 381 118 376 111 c 2,192,-1
 373 107 l 2,193,194
 366 101 366 101 360 94 c 128,-1,195
 354 87 354 87 347 81 c 0,196,197
 343 77 343 77 338 72.5 c 128,-1,198
 333 68 333 68 328 63 c 0,199,200
 327 62 327 62 326 61 c 128,-1,201
 325 60 325 60 323 58 c 0,202,203
 322 56 322 56 320 54.5 c 128,-1,204
 318 53 318 53 316 51 c 2,205,-1
 304 39 l 2,206,207
 297 32 297 32 290 26 c 128,-1,208
 283 20 283 20 275 13 c 0,209,210
 274 12 274 12 272.5 11 c 128,-1,211
 271 10 271 10 270 8 c 0,212,213
 266 4 266 4 261 1 c 128,-1,214
 256 -2 256 -2 251 -6 c 0,215,216
 248 -9 248 -9 244 -9 c 0,217,218
 238 -11 238 -11 234 -11 c 0,219,220
 227 -11 227 -11 222 -17 c 0,221,222
 218 -21 218 -21 214 -26 c 128,-1,223
 210 -31 210 -31 206 -36 c 2,224,-1
 183 -66 l 2,225,226
 174 -75 174 -75 171 -89 c 0,227,228
 170 -96 170 -96 169 -103.5 c 128,-1,229
 168 -111 168 -111 166 -119 c 0,230,231
 163 -131 163 -131 163 -145 c 0,232,233
 164 -156 164 -156 162.5 -166.5 c 128,-1,234
 161 -177 161 -177 160 -188 c 2,235,-1
 160 -194 l 2,236,237
 160 -201 160 -201 161 -208.5 c 128,-1,238
 162 -216 162 -216 161 -224 c 0,239,240
 160 -231 160 -231 160 -238.5 c 128,-1,241
 160 -246 160 -246 160 -253 c 256,242,243
 160 -260 160 -260 160 -266 c 128,-1,244
 160 -272 160 -272 159 -278 c 0,245,246
 159 -285 159 -285 158.5 -292.5 c 128,-1,247
 158 -300 158 -300 159 -307 c 2,248,-1
 159 -317 l 2,249,250
 159 -321 159 -321 159 -325 c 128,-1,251
 159 -329 159 -329 158 -334 c 0,252,253
 158 -339 158 -339 157.5 -344.5 c 128,-1,254
 157 -350 157 -350 156 -355 c 0,255,256
 156 -356 156 -356 155.5 -356 c 128,-1,257
 155 -356 155 -356 155 -357 c 0,258,259
 152 -369 152 -369 142 -370 c 0,0,1
228 127 m 0,260,261
 230 127 230 127 232 129 c 0,262,263
 237 131 237 131 242 134 c 128,-1,264
 247 137 247 137 251 140 c 0,265,266
 259 144 259 144 268 153 c 0,267,268
 279 165 279 165 291 176.5 c 128,-1,269
 303 188 303 188 314 200 c 256,270,271
 325 212 325 212 337 224.5 c 128,-1,272
 349 237 349 237 360 248 c 2,273,-1
 380 269 l 2,274,275
 384 273 384 273 387 277.5 c 128,-1,276
 390 282 390 282 393 286 c 0,277,278
 401 297 401 297 398 311 c 0,279,280
 395 333 395 333 386 352 c 0,281,282
 383 361 383 361 379 369.5 c 128,-1,283
 375 378 375 378 371 386 c 0,284,285
 367 392 367 392 366 395 c 0,286,287
 363 398 363 398 361 402 c 0,288,289
 355 411 355 411 348 418 c 0,290,291
 346 420 346 420 343.5 422.5 c 128,-1,292
 341 425 341 425 339 428 c 0,293,294
 335 434 335 434 331.5 440 c 128,-1,295
 328 446 328 446 323 451 c 0,296,297
 316 462 316 462 313 464.5 c 128,-1,298
 310 467 310 467 299 474 c 0,299,300
 287 481 287 481 279 489 c 2,301,-1
 273 495 l 2,302,303
 264 502 264 502 255.5 508 c 128,-1,304
 247 514 247 514 238 521 c 0,305,306
 228 528 228 528 218 533.5 c 128,-1,307
 208 539 208 539 197 545 c 0,308,309
 194 547 194 547 190 548 c 128,-1,310
 186 549 186 549 182 550 c 256,311,312
 178 551 178 551 175 548 c 2,313,-1
 173 543 l 2,314,315
 171 539 171 539 171 529 c 2,316,-1
 174 502 l 2,317,318
 176 491 176 491 178.5 480 c 128,-1,319
 181 469 181 469 183 458 c 2,320,-1
 183 454 l 2,321,322
 185 444 185 444 186 433 c 128,-1,323
 187 422 187 422 189 411 c 0,324,325
 191 402 191 402 192 393 c 128,-1,326
 193 384 193 384 194 375 c 0,327,328
 195 367 195 367 196.5 359.5 c 128,-1,329
 198 352 198 352 199 344 c 0,330,331
 202 327 202 327 204.5 310.5 c 128,-1,332
 207 294 207 294 209 277 c 2,333,-1
 212 252 l 2,334,335
 213 248 213 248 213 244.5 c 128,-1,336
 213 241 213 241 214 238 c 2,337,-1
 214 230 l 2,338,339
 216 219 216 219 217.5 207.5 c 128,-1,340
 219 196 219 196 220 184 c 0,341,342
 221 182 221 182 221 178 c 0,343,344
 220 167 220 167 222 155 c 128,-1,345
 224 143 224 143 224 132 c 2,346,-1
 224 129 l 2,347,348
 224 128 224 128 225.5 127 c 128,-1,349
 227 126 227 126 228 127 c 0,260,261
EndSplineSet
EndChar

StartChar: Eth
Encoding: 208 208 13
Width: 600
GlyphClass: 1
Flags: W
LayerCount: 2
Fore
SplineSet
132 -381 m 0,0,1
 129 -383 129 -383 122 -381 c 0,2,3
 115 -378 115 -378 114 -373 c 256,4,5
 113 -368 113 -368 111.5 -362.5 c 128,-1,6
 110 -357 110 -357 109 -352 c 0,7,8
 109 -346 109 -346 108.5 -340 c 128,-1,9
 108 -334 108 -334 108 -328 c 2,10,-1
 108 -323 l 2,11,12
 107 -319 107 -319 107 -315.5 c 128,-1,13
 107 -312 107 -312 107 -308 c 0,14,15
 106 -304 106 -304 106 -301 c 128,-1,16
 106 -298 106 -298 106 -294 c 0,17,18
 105 -292 105 -292 105 -288 c 0,19,20
 105 -283 105 -283 105 -277.5 c 128,-1,21
 105 -272 105 -272 104 -267 c 2,22,-1
 104 -253 l 2,23,24
 104 -246 104 -246 103 -242 c 256,25,26
 102 -238 102 -238 101.5 -235 c 128,-1,27
 101 -232 101 -232 102 -228 c 2,28,-1
 102 -223 l 2,29,30
 102 -221 102 -221 102.5 -219 c 128,-1,31
 103 -217 103 -217 103 -216 c 0,32,33
 103 -214 103 -214 103.5 -213 c 128,-1,34
 104 -212 104 -212 104 -211 c 0,35,36
 103 -203 103 -203 103.5 -194.5 c 128,-1,37
 104 -186 104 -186 104 -178 c 2,38,-1
 104 -177 l 2,39,40
 103 -171 103 -171 103.5 -165.5 c 128,-1,41
 104 -160 104 -160 104 -154 c 2,42,-1
 104 -150 l 2,43,44
 104 -144 104 -144 104 -138.5 c 128,-1,45
 104 -133 104 -133 105 -127 c 0,46,47
 107 -124 107 -124 105 -121 c 2,48,-1
 105 -113 l 2,49,50
 104 -108 104 -108 104.5 -103 c 128,-1,51
 105 -98 105 -98 104 -94 c 2,52,-1
 104 -86 l 2,53,54
 104 -81 104 -81 104 -75.5 c 128,-1,55
 104 -70 104 -70 103 -66 c 0,56,57
 102 -64 102 -64 102 -61.5 c 128,-1,58
 102 -59 102 -59 101 -58 c 0,59,60
 101 -54 101 -54 102 -52 c 2,61,-1
 102 -45 l 2,62,63
 103 -41 103 -41 100 -36 c 0,64,65
 98 -32 98 -32 96 -26 c 0,66,67
 95 -23 95 -23 93 -19.5 c 128,-1,68
 91 -16 91 -16 89 -13 c 0,69,70
 87 -9 87 -9 85 -3 c 0,71,72
 84 1 84 1 82.5 4 c 128,-1,73
 81 7 81 7 80 11 c 0,74,75
 79 14 79 14 75 20 c 2,76,-1
 73 23 l 2,77,78
 69 29 69 29 69 33 c 2,79,-1
 69 36 l 2,80,81
 69 37 69 37 68.5 39 c 128,-1,82
 68 41 68 41 69 42 c 0,83,84
 71 42 71 42 71 44 c 0,85,86
 71 45 71 45 70.5 46 c 128,-1,87
 70 47 70 47 70 48 c 2,88,-1
 70 49 l 1,89,-1
 71 50 l 2,90,91
 75 54 75 54 75 56 c 256,92,93
 75 58 75 58 77 60 c 0,94,95
 77 61 77 61 80 64 c 2,96,-1
 90 67 l 2,97,98
 91 68 91 68 93 68 c 0,99,100
 99 70 99 70 100 74 c 2,101,-1
 101 75 l 2,102,103
 101 76 101 76 103 76 c 0,104,105
 107 75 107 75 110 75 c 128,-1,106
 113 75 113 75 116 75 c 2,107,-1
 128 72 l 2,108,109
 131 71 131 71 134 71 c 128,-1,110
 137 71 137 71 140 70 c 256,111,112
 143 69 143 69 143 72 c 2,113,-1
 142 79 l 1,114,-1
 142 98 l 2,115,116
 139 105 139 105 141 114 c 0,117,118
 141 119 141 119 140.5 124 c 128,-1,119
 140 129 140 129 140 134 c 2,120,121
 140 134 140 134 140 134.5 c 128,-1,122
 140 135 140 135 139 136 c 0,123,124
 138 141 138 141 138 146.5 c 128,-1,125
 138 152 138 152 138 157 c 0,126,127
 138 166 138 166 137.5 174.5 c 128,-1,128
 137 183 137 183 136 191 c 0,129,130
 135 193 135 193 135 196 c 0,131,132
 137 201 137 201 135 205 c 0,133,134
 134 209 134 209 133.5 213.5 c 128,-1,135
 133 218 133 218 133 222 c 0,136,137
 133 229 133 229 132 233 c 0,138,139
 131 235 131 235 131 238 c 128,-1,140
 131 241 131 241 131 243 c 0,141,142
 132 245 132 245 131.5 246.5 c 128,-1,143
 131 248 131 248 131 250 c 0,144,145
 131 255 131 255 130 258 c 0,146,147
 130 260 130 260 129.5 263 c 128,-1,148
 129 266 129 266 130 268 c 0,149,150
 130 271 130 271 129 272 c 2,151,-1
 129 293 l 2,152,153
 128 295 128 295 128 296.5 c 128,-1,154
 128 298 128 298 126 299 c 0,155,156
 124 303 124 303 121 301 c 0,157,158
 119 301 119 301 117 299 c 0,159,160
 113 297 113 297 108.5 295.5 c 128,-1,161
 104 294 104 294 99 292 c 0,162,163
 98 292 98 292 97 291.5 c 128,-1,164
 96 291 96 291 95 291 c 0,165,166
 92 290 92 290 90 289 c 128,-1,167
 88 288 88 288 86 286 c 0,168,169
 82 282 82 282 80 274 c 0,170,171
 80 271 80 271 79.5 268 c 128,-1,172
 79 265 79 265 79 261 c 256,173,174
 79 257 79 257 78.5 253 c 128,-1,175
 78 249 78 249 77 244 c 0,176,177
 77 239 77 239 72 234 c 0,178,179
 67 226 67 226 57 229 c 0,180,181
 51 231 51 231 48 235 c 0,182,183
 44 241 44 241 44 244 c 0,184,185
 44 246 44 246 44 249 c 128,-1,186
 44 252 44 252 43 254 c 0,187,188
 43 256 43 256 42.5 257.5 c 128,-1,189
 42 259 42 259 42 260 c 0,190,191
 41 265 41 265 41 270.5 c 128,-1,192
 41 276 41 276 40 281 c 0,193,194
 40 282 40 282 38 286 c 0,195,196
 37 292 37 292 31 300 c 0,197,198
 29 302 29 302 27.5 304 c 128,-1,199
 26 306 26 306 24 307 c 0,200,201
 20 313 20 313 19 317 c 0,202,203
 19 320 19 320 15 326 c 1,204,205
 15 326 15 326 14.5 326 c 128,-1,206
 14 326 14 326 14 327 c 0,207,208
 8 333 8 333 6 337 c 128,-1,209
 4 341 4 341 1 349 c 0,210,211
 0 353 0 353 -0.5 356 c 128,-1,212
 -1 359 -1 359 0 363 c 0,213,214
 1 366 1 366 1 371 c 0,215,216
 1 379 1 379 8 382 c 2,217,-1
 11 386 l 2,218,219
 13 390 13 390 16 390 c 2,220,-1
 19 393 l 2,221,222
 25 397 25 397 30 397 c 2,223,-1
 34 397 l 2,224,225
 37 398 37 398 43 398 c 2,226,-1
 47 398 l 2,227,228
 50 399 50 399 57 397 c 0,229,230
 58 397 58 397 58.5 396.5 c 128,-1,231
 59 396 59 396 60 396 c 0,232,233
 66 396 66 396 72.5 395 c 128,-1,234
 79 394 79 394 86 395 c 0,235,236
 88 395 88 395 88 395 c 2,237,238
 96 395 96 395 99 394 c 2,239,-1
 105 394 l 2,240,241
 108 393 108 393 113 393 c 0,242,243
 116 393 116 393 118 394 c 0,244,245
 121 394 121 394 121 398 c 2,246,-1
 121 433 l 2,247,248
 120 435 120 435 120.5 437.5 c 128,-1,249
 121 440 121 440 121 442 c 0,250,251
 123 456 123 456 121 469 c 0,252,253
 120 473 120 473 120 477 c 128,-1,254
 120 481 120 481 119 485 c 2,255,-1
 119 487 l 2,256,257
 120 492 120 492 119 497 c 128,-1,258
 118 502 118 502 118 506 c 2,259,-1
 118 511 l 2,260,261
 118 513 118 513 117.5 514.5 c 128,-1,262
 117 516 117 516 117 517 c 0,263,264
 117 522 117 522 117 525.5 c 128,-1,265
 117 529 117 529 116 533 c 2,266,-1
 116 536 l 2,267,268
 116 546 116 546 115.5 555 c 128,-1,269
 115 564 115 564 116 574 c 0,270,271
 118 580 118 580 117 586 c 128,-1,272
 116 592 116 592 117 598 c 0,273,274
 118 600 118 600 118 604 c 0,275,276
 118 609 118 609 119 611 c 0,277,278
 119 617 119 617 120 620 c 2,279,-1
 120 626 l 2,280,281
 120 629 120 629 120.5 632 c 128,-1,282
 121 635 121 635 121 637 c 2,283,-1
 121 639 l 2,284,285
 119 644 119 644 117 642 c 0,286,287
 114 642 114 642 112 641 c 0,288,289
 106 639 106 639 103 637 c 0,290,291
 97 635 97 635 94 633 c 2,292,-1
 92 633 l 2,293,294
 89 633 89 633 87 632 c 0,295,296
 80 629 80 629 74 627 c 0,297,298
 73 627 73 627 71.5 626.5 c 128,-1,299
 70 626 70 626 68 626 c 0,300,301
 58 626 58 626 53 635 c 0,302,303
 52 637 52 637 51 639.5 c 128,-1,304
 50 642 50 642 48 643 c 0,305,306
 48 645 48 645 45 645 c 0,307,308
 44 645 44 645 43.5 645.5 c 128,-1,309
 43 646 43 646 42 646 c 0,310,311
 35 646 35 646 31 653 c 2,312,-1
 27 660 l 2,313,314
 26 664 26 664 23 668 c 0,315,316
 21 672 21 672 21 674 c 0,317,318
 19 680 19 680 20 682 c 0,319,320
 20 684 20 684 18 684 c 1,321,322
 18 687 18 687 18 687 c 1,323,-1
 19 691 l 2,324,325
 19 696 19 696 23 702 c 0,326,327
 25 704 25 704 26 706 c 0,328,329
 27 709 27 709 29.5 711 c 128,-1,330
 32 713 32 713 35 715 c 0,331,332
 38 718 38 718 45 720 c 0,333,334
 47 721 47 721 49.5 721 c 128,-1,335
 52 721 52 721 54 722 c 0,336,337
 58 722 58 722 60 723 c 0,338,339
 66 726 66 726 74 724 c 0,340,341
 77 723 77 723 82 723 c 0,342,343
 85 725 85 725 88 723 c 0,344,345
 89 722 89 722 91 722 c 2,346,-1
 111 719 l 1,347,-1
 115 719 l 2,348,349
 120 721 120 721 121 724 c 2,350,351
 121 724 121 724 121 724.5 c 128,-1,352
 121 725 121 725 122 726 c 0,353,354
 123 733 123 733 130 740 c 0,355,356
 132 741 132 741 133 742.5 c 128,-1,357
 134 744 134 744 135 745 c 0,358,359
 137 748 137 748 143 752 c 0,360,361
 147 754 147 754 149 754 c 0,362,363
 151 755 151 755 152.5 755 c 128,-1,364
 154 755 154 755 156 756 c 0,365,366
 168 759 168 759 179 756 c 0,367,368
 194 752 194 752 204 737 c 2,369,-1
 207 730 l 2,370,371
 209 726 209 726 213 726 c 0,372,373
 216 726 216 726 219 725.5 c 128,-1,374
 222 725 222 725 226 724 c 2,375,-1
 251 721 l 1,376,-1
 254 721 l 2,377,378
 259 720 259 720 264 719 c 128,-1,379
 269 718 269 718 274 716 c 2,380,-1
 284 713 l 2,381,382
 290 711 290 711 294 711 c 0,383,384
 297 711 297 711 301 709 c 0,385,386
 310 706 310 706 319.5 703 c 128,-1,387
 329 700 329 700 338 696 c 0,388,389
 342 695 342 695 345.5 693 c 128,-1,390
 349 691 349 691 352 689 c 0,391,392
 354 688 354 688 357 688 c 0,393,394
 359 687 359 687 361 686.5 c 128,-1,395
 363 686 363 686 364 684 c 0,396,397
 368 682 368 682 370 682 c 2,398,-1
 376 679 l 2,399,400
 378 679 378 679 382 677 c 2,401,-1
 383 677 l 2,402,403
 388 674 388 674 393 672 c 128,-1,404
 398 670 398 670 402 666 c 0,405,406
 404 665 404 665 406 663.5 c 128,-1,407
 408 662 408 662 410 661 c 0,408,409
 414 659 414 659 415 658 c 256,410,411
 416 657 416 657 416 656.5 c 128,-1,412
 416 656 416 656 416 656 c 2,413,414
 416 654 416 654 417 653 c 2,415,-1
 418 653 l 2,416,417
 423 651 423 651 424 649 c 0,418,419
 425 648 425 648 426 647.5 c 128,-1,420
 427 647 427 647 428 646 c 0,421,422
 430 645 430 645 432 644 c 128,-1,423
 434 643 434 643 435 641 c 0,424,425
 439 640 439 640 441.5 637.5 c 128,-1,426
 444 635 444 635 446 633 c 0,427,428
 448 632 448 632 448.5 631 c 128,-1,429
 449 630 449 630 450 629 c 0,430,431
 456 624 456 624 462 618.5 c 128,-1,432
 468 613 468 613 473 608 c 0,433,434
 474 607 474 607 475 606 c 128,-1,435
 476 605 476 605 477 604 c 2,436,-1
 481 601 l 2,437,438
 484 597 484 597 487 594 c 128,-1,439
 490 591 490 591 493 587 c 2,440,-1
 501 579 l 2,441,442
 503 576 503 576 509 570 c 0,443,444
 517 563 517 563 523.5 555.5 c 128,-1,445
 530 548 530 548 535 539 c 2,446,-1
 539 533 l 2,447,448
 542 529 542 529 544.5 525.5 c 128,-1,449
 547 522 547 522 550 518 c 0,450,451
 554 512 554 512 557 505.5 c 128,-1,452
 560 499 560 499 564 492 c 2,453,-1
 570 479 l 2,454,455
 572 474 572 474 574.5 469 c 128,-1,456
 577 464 577 464 578 459 c 2,457,-1
 582 452 l 2,458,459
 584 447 584 447 587 441.5 c 128,-1,460
 590 436 590 436 592 431 c 2,461,-1
 595 424 l 2,462,463
 596 422 596 422 597 419 c 128,-1,464
 598 416 598 416 599 413 c 0,465,466
 601 409 601 409 602 405.5 c 128,-1,467
 603 402 603 402 604 398 c 0,468,469
 606 393 606 393 608 387 c 128,-1,470
 610 381 610 381 611 375 c 0,471,472
 613 370 613 370 614 364.5 c 128,-1,473
 615 359 615 359 616 354 c 0,474,475
 617 348 617 348 618 342 c 128,-1,476
 619 336 619 336 620 330 c 0,477,478
 620 323 620 323 621 317 c 128,-1,479
 622 311 622 311 623 305 c 2,480,-1
 623 302 l 2,481,482
 624 298 624 298 624.5 293.5 c 128,-1,483
 625 289 625 289 624 285 c 0,484,485
 623 283 623 283 623 280 c 0,486,487
 623 267 623 267 620 253 c 2,488,-1
 617 240 l 2,489,490
 617 235 617 235 616 233 c 2,491,-1
 613 225 l 2,492,493
 611 218 611 218 608.5 211.5 c 128,-1,494
 606 205 606 205 603 198 c 0,495,496
 602 193 602 193 599.5 188.5 c 128,-1,497
 597 184 597 184 595 179 c 0,498,499
 594 178 594 178 593.5 175 c 128,-1,500
 593 172 593 172 592 170 c 0,501,502
 589 162 589 162 585 157 c 0,503,504
 582 154 582 154 580 150 c 2,505,-1
 577 143 l 2,506,507
 576 140 576 140 574.5 137.5 c 128,-1,508
 573 135 573 135 571 133 c 0,509,510
 569 129 569 129 567 125.5 c 128,-1,511
 565 122 565 122 562 119 c 2,512,-1
 560 117 l 2,513,514
 556 111 556 111 552 105.5 c 128,-1,515
 548 100 548 100 544 95 c 2,516,-1
 542 92 l 2,517,518
 539 90 539 90 536.5 87 c 128,-1,519
 534 84 534 84 531 81 c 0,520,521
 531 79 531 79 529 79 c 0,522,523
 524 75 524 75 519 69.5 c 128,-1,524
 514 64 514 64 508 59 c 2,525,-1
 503 56 l 2,526,527
 499 53 499 53 495 49.5 c 128,-1,528
 491 46 491 46 487 42 c 0,529,530
 477 32 477 32 463 24 c 0,531,532
 461 23 461 23 459.5 22 c 128,-1,533
 458 21 458 21 456 20 c 0,534,535
 452 16 452 16 446 12 c 2,536,-1
 436 3 l 2,537,538
 433 1 433 1 430 -0.5 c 128,-1,539
 427 -2 427 -2 424 -4 c 0,540,541
 422 -5 422 -5 420 -5.5 c 128,-1,542
 418 -6 418 -6 416 -6 c 0,543,544
 413 -7 413 -7 410 -7.5 c 128,-1,545
 407 -8 407 -8 404 -8 c 0,546,547
 400 -9 400 -9 397 -10 c 128,-1,548
 394 -11 394 -11 391 -13 c 0,549,550
 388 -14 388 -14 385.5 -15.5 c 128,-1,551
 383 -17 383 -17 380 -18 c 2,552,553
 380 -18 380 -18 379.5 -18 c 128,-1,554
 379 -18 379 -18 378 -19 c 2,555,-1
 369 -22 l 2,556,557
 367 -22 367 -22 363 -24 c 0,558,559
 361 -26 361 -26 360 -26 c 0,560,561
 358 -29 358 -29 354.5 -30.5 c 128,-1,562
 351 -32 351 -32 348 -34 c 0,563,564
 343 -35 343 -35 339 -39 c 0,565,566
 329 -46 329 -46 320 -43 c 2,567,-1
 319 -43 l 2,568,569
 314 -41 314 -41 308.5 -41.5 c 128,-1,570
 303 -42 303 -42 298 -44 c 0,571,572
 296 -44 296 -44 292 -46 c 0,573,574
 279 -50 279 -50 265 -52 c 0,575,576
 258 -54 258 -54 256 -57 c 0,577,578
 254 -58 254 -58 252 -60 c 128,-1,579
 250 -62 250 -62 248 -64 c 0,580,581
 245 -67 245 -67 240 -67 c 0,582,583
 234 -67 234 -67 228 -64 c 0,584,585
 226 -62 226 -62 224 -61 c 0,586,587
 222 -59 222 -59 219 -61 c 0,588,589
 218 -61 218 -61 214 -63 c 2,590,-1
 213 -64 l 2,591,592
 211 -67 211 -67 209 -70 c 128,-1,593
 207 -73 207 -73 205 -77 c 0,594,595
 204 -81 204 -81 201 -85 c 0,596,597
 198 -88 198 -88 193 -90 c 2,598,-1
 189 -91 l 2,599,600
 185 -91 185 -91 184 -90 c 0,601,602
 178 -88 178 -88 176 -86 c 0,603,604
 175 -84 175 -84 172.5 -81.5 c 128,-1,605
 170 -79 170 -79 169 -78 c 0,606,607
 168 -78 168 -78 168 -77.5 c 128,-1,608
 168 -77 168 -77 168 -77 c 2,609,610
 165 -74 165 -74 161 -77 c 0,611,612
 155 -82 155 -82 153 -91 c 0,613,614
 152 -97 152 -97 151.5 -103 c 128,-1,615
 151 -109 151 -109 151 -115 c 2,616,-1
 151 -124 l 2,617,618
 151 -126 151 -126 150.5 -128.5 c 128,-1,619
 150 -131 150 -131 151 -133 c 2,620,-1
 151 -137 l 2,621,622
 150 -141 150 -141 150 -145.5 c 128,-1,623
 150 -150 150 -150 150 -155 c 2,624,-1
 150 -160 l 2,625,626
 151 -165 151 -165 151 -170.5 c 128,-1,627
 151 -176 151 -176 152 -181 c 2,628,-1
 152 -188 l 2,629,630
 151 -192 151 -192 151 -195.5 c 128,-1,631
 151 -199 151 -199 151 -202 c 0,632,633
 152 -212 152 -212 151 -221 c 0,634,635
 150 -223 150 -223 150 -227 c 0,636,637
 152 -231 152 -231 150 -236 c 2,638,-1
 150 -258 l 2,639,640
 150 -264 150 -264 150 -270 c 128,-1,641
 150 -276 150 -276 151 -282 c 2,642,-1
 151 -288 l 2,643,644
 150 -291 150 -291 150 -294.5 c 128,-1,645
 150 -298 150 -298 150 -301 c 2,646,-1
 150 -307 l 2,647,648
 149 -312 149 -312 148.5 -318 c 128,-1,649
 148 -324 148 -324 148 -330 c 2,650,-1
 148 -340 l 2,651,652
 147 -347 147 -347 146.5 -353.5 c 128,-1,653
 146 -360 146 -360 144 -366 c 0,654,655
 144 -370 144 -370 142.5 -372.5 c 128,-1,656
 141 -375 141 -375 139 -377 c 2,657,-1
 136 -380 l 2,658,659
 133 -380 133 -380 132 -381 c 0,0,1
227 63 m 2,660,-1
 229 63 l 2,661,662
 235 64 235 64 241 65 c 128,-1,663
 247 66 247 66 253 67 c 2,664,-1
 255 67 l 2,665,666
 263 69 263 69 271.5 71 c 128,-1,667
 280 73 280 73 287 76 c 0,668,669
 289 76 289 76 290 77 c 0,670,671
 293 78 293 78 296 79 c 128,-1,672
 299 80 299 80 302 81 c 0,673,674
 303 82 303 82 306 82 c 0,675,676
 310 84 310 84 312 84 c 2,677,-1
 327 90 l 2,678,679
 350 98 350 98 372 108 c 0,680,681
 388 116 388 116 403 125 c 0,682,683
 409 128 409 128 415 131 c 128,-1,684
 421 134 421 134 426 138 c 0,685,686
 435 144 435 144 444 150.5 c 128,-1,687
 453 157 453 157 461 164 c 0,688,689
 465 168 465 168 469 171.5 c 128,-1,690
 473 175 473 175 477 179 c 0,691,692
 481 185 481 185 484 187 c 0,693,694
 489 193 489 193 493 199.5 c 128,-1,695
 497 206 497 206 500 213 c 0,696,697
 503 217 503 217 505 221.5 c 128,-1,698
 507 226 507 226 509 230 c 0,699,700
 511 235 511 235 513 240.5 c 128,-1,701
 515 246 515 246 517 251 c 2,702,-1
 517 252 l 2,703,704
 518 257 518 257 520 262 c 128,-1,705
 522 267 522 267 524 272 c 0,706,707
 524 273 524 273 524.5 274 c 128,-1,708
 525 275 525 275 525 276 c 2,709,-1
 526 283 l 2,710,711
 528 292 528 292 529 301.5 c 128,-1,712
 530 311 530 311 530 321 c 2,713,-1
 530 324 l 2,714,715
 530 330 530 330 530 335.5 c 128,-1,716
 530 341 530 341 528 346 c 0,717,718
 528 348 528 348 527.5 350.5 c 128,-1,719
 527 353 527 353 527 355 c 0,720,721
 526 360 526 360 524.5 365.5 c 128,-1,722
 523 371 523 371 521 376 c 0,723,724
 520 379 520 379 519 382 c 128,-1,725
 518 385 518 385 517 388 c 0,726,727
 517 390 517 390 515 392 c 2,728,-1
 512 400 l 2,729,730
 510 404 510 404 510 404 c 2,731,732
 508 408 508 408 506.5 412.5 c 128,-1,733
 505 417 505 417 503 421 c 0,734,735
 502 423 502 423 501 425.5 c 128,-1,736
 500 428 500 428 499 430 c 0,737,738
 495 435 495 435 492.5 441 c 128,-1,739
 490 447 490 447 487 452 c 0,740,741
 486 454 486 454 485 456 c 128,-1,742
 484 458 484 458 483 459 c 0,743,744
 480 463 480 463 479 467 c 256,745,746
 478 471 478 471 476 474.5 c 128,-1,747
 474 478 474 478 471 482 c 0,748,749
 468 487 468 487 464.5 492.5 c 128,-1,750
 461 498 461 498 457 503 c 0,751,752
 454 507 454 507 451.5 510.5 c 128,-1,753
 449 514 449 514 444 516 c 0,754,755
 443 518 443 518 442 518.5 c 128,-1,756
 441 519 441 519 440 520 c 0,757,758
 434 528 434 528 427 532 c 2,759,-1
 425 534 l 2,760,761
 420 539 420 539 418 542 c 0,762,763
 417 544 417 544 415 545.5 c 128,-1,764
 413 547 413 547 411 548 c 0,765,766
 404 553 404 553 398 558 c 0,767,768
 394 561 394 561 390.5 563.5 c 128,-1,769
 387 566 387 566 383 568 c 0,770,771
 383 569 383 569 382 569 c 0,772,773
 376 575 376 575 369 578 c 2,774,-1
 364 581 l 2,775,776
 360 583 360 583 357 586 c 256,777,778
 354 589 354 589 350 591.5 c 128,-1,779
 346 594 346 594 342 597 c 0,780,781
 341 598 341 598 338 598 c 0,782,783
 336 599 336 599 334 599.5 c 128,-1,784
 332 600 332 600 330 601 c 2,785,-1
 323 605 l 2,786,787
 319 608 319 608 315 610 c 128,-1,788
 311 612 311 612 307 614 c 0,789,790
 305 614 305 614 304 615 c 2,791,-1
 290 620 l 2,792,793
 289 621 289 621 287 621.5 c 128,-1,794
 285 622 285 622 283 623 c 2,795,-1
 276 626 l 2,796,797
 268 631 268 631 260 632 c 0,798,799
 253 633 253 633 244 637 c 0,800,801
 243 638 243 638 241 638 c 128,-1,802
 239 638 239 638 237 639 c 0,803,804
 233 639 233 639 227 641 c 2,805,-1
 220 642 l 2,806,807
 214 644 214 644 210 641 c 0,808,809
 208 641 208 641 207 640 c 0,810,811
 205 640 205 640 205 638 c 0,812,813
 205 635 205 635 204 633 c 2,814,-1
 204 617 l 1,815,-1
 207 611 l 2,816,817
 207 610 207 610 206 609 c 128,-1,818
 205 608 205 608 205 606 c 2,819,-1
 205 583 l 2,820,821
 206 581 206 581 205 573 c 128,-1,822
 204 565 204 565 205 563 c 0,823,824
 206 559 206 559 206.5 556 c 128,-1,825
 207 553 207 553 206 550 c 0,826,827
 206 543 206 543 207 539 c 2,828,-1
 207 536 l 2,829,830
 208 530 208 530 209 524 c 128,-1,831
 210 518 210 518 209 512 c 0,832,833
 209 511 209 511 210 510 c 0,834,835
 211 506 211 506 211 502 c 128,-1,836
 211 498 211 498 211 493 c 2,837,-1
 211 489 l 2,838,839
 211 488 211 488 211.5 483 c 128,-1,840
 212 478 212 478 212 476 c 2,841,-1
 212 474 l 2,842,843
 212 464 212 464 212 453 c 128,-1,844
 212 442 212 442 211 431 c 0,845,846
 211 429 211 429 212 428 c 2,847,-1
 212 419 l 2,848,849
 211 417 211 417 211 414 c 0,850,851
 211 413 211 413 211.5 413 c 128,-1,852
 212 413 212 413 212 412 c 2,853,-1
 212 400 l 2,854,855
 212 396 212 396 216 396 c 2,856,-1
 221 396 l 2,857,858
 229 396 229 396 236.5 396 c 128,-1,859
 244 396 244 396 252 397 c 2,860,-1
 254 397 l 2,861,862
 257 397 257 397 260 396.5 c 128,-1,863
 263 396 263 396 266 396 c 2,864,-1
 310 396 l 2,865,866
 313 396 313 396 316 396 c 128,-1,867
 319 396 319 396 322 395 c 0,868,869
 326 395 326 395 328 396 c 2,870,-1
 330 396 l 2,871,872
 332 395 332 395 335 395 c 2,873,-1
 341 395 l 2,874,875
 344 394 344 394 346.5 394 c 128,-1,876
 349 394 349 394 350 392 c 2,877,-1
 359 387 l 2,878,879
 362 386 362 386 364 381 c 2,880,-1
 364 374 l 2,881,882
 364 370 364 370 368 372 c 0,883,884
 372 373 372 373 374 371 c 256,885,886
 376 369 376 369 378 362 c 0,887,888
 378 359 378 359 378.5 356 c 128,-1,889
 379 353 379 353 379 350 c 0,890,891
 379 344 379 344 376 336 c 0,892,893
 375 333 375 333 373 330 c 128,-1,894
 371 327 371 327 369 324 c 0,895,896
 365 320 365 320 362 320 c 0,897,898
 360 320 360 320 356 318 c 0,899,900
 355 317 355 317 352 317 c 0,901,902
 351 319 351 319 348 316 c 0,903,904
 347 315 347 315 345 313 c 128,-1,905
 343 311 343 311 342 309 c 0,906,907
 341 308 341 308 340 306 c 128,-1,908
 339 304 339 304 337 302 c 0,909,910
 332 296 332 296 331 289 c 0,911,912
 330 285 330 285 329 280 c 128,-1,913
 328 275 328 275 327 270 c 0,914,915
 327 267 327 267 326.5 263.5 c 128,-1,916
 326 260 326 260 326 257 c 0,917,918
 326 253 326 253 325 249 c 128,-1,919
 324 245 324 245 322 241 c 2,920,-1
 318 237 l 2,921,922
 311 234 311 234 303 237 c 0,923,924
 302 237 302 237 302 237.5 c 128,-1,925
 302 238 302 238 301 238 c 0,926,927
 300 240 300 240 298 241.5 c 128,-1,928
 296 243 296 243 295 245 c 0,929,930
 294 250 294 250 292.5 254.5 c 128,-1,931
 291 259 291 259 291 263 c 2,932,-1
 291 269 l 2,933,934
 291 271 291 271 290.5 272.5 c 128,-1,935
 290 274 290 274 290 276 c 0,936,937
 288 286 288 286 286 293 c 0,938,939
 283 300 283 300 279 302 c 0,940,941
 276 306 276 306 271 304 c 0,942,943
 269 304 269 304 263 302 c 0,944,945
 260 301 260 301 252 301 c 0,946,947
 250 301 250 301 249 300 c 0,948,949
 246 299 246 299 243.5 299.5 c 128,-1,950
 241 300 241 300 238 301 c 0,951,952
 235 301 235 301 233 302 c 2,953,-1
 229 302 l 2,954,955
 223 300 223 300 221 297 c 0,956,957
 220 296 220 296 218 289.5 c 128,-1,958
 216 283 216 283 216 283 c 2,959,960
 218 282 218 282 218 280 c 0,961,962
 218 279 218 279 217.5 278.5 c 128,-1,963
 217 278 217 278 217 277 c 256,964,965
 217 276 217 276 216.5 276 c 128,-1,966
 216 276 216 276 216 275 c 0,967,968
 216 273 216 273 217 272 c 0,969,970
 220 269 220 269 218 265 c 0,971,972
 217 264 217 264 217.5 263.5 c 128,-1,973
 218 263 218 263 218 263 c 2,974,975
 220 260 220 260 218 256 c 256,976,977
 216 252 216 252 216 250 c 2,978,-1
 216 239 l 2,979,980
 216 237 216 237 218 237 c 2,981,-1
 219 236 l 2,982,983
 221 232 221 232 220 229 c 0,984,985
 219 225 219 225 219.5 221.5 c 128,-1,986
 220 218 220 218 221 214 c 0,987,988
 221 211 221 211 221.5 208 c 128,-1,989
 222 205 222 205 221 202 c 2,990,-1
 221 189 l 2,991,992
 221 188 221 188 220.5 188 c 128,-1,993
 220 188 220 188 220 187 c 1,994,-1
 218 187 l 1,995,996
 216 182 216 182 218 177 c 0,997,998
 218 171 218 171 217 169 c 0,999,1000
 217 164 217 164 218 161 c 256,1001,1002
 219 158 219 158 218.5 154.5 c 128,-1,1003
 218 151 218 151 218 147 c 0,1004,1005
 218 145 218 145 217 143 c 0,1006,1007
 217 142 217 142 216.5 140 c 128,-1,1008
 216 138 216 138 217 136 c 0,1009,1010
 219 133 219 133 217 130 c 0,1011,1012
 216 128 216 128 218 126 c 0,1013,1014
 219 124 219 124 218 121 c 256,1015,1016
 217 118 217 118 217 114 c 128,-1,1017
 217 110 217 110 217 106 c 0,1018,1019
 217 105 217 105 217.5 104.5 c 128,-1,1020
 218 104 218 104 218 103 c 2,1021,-1
 217 99 l 1,1022,1023
 217 99 217 99 217 98.5 c 128,-1,1024
 217 98 217 98 218 97 c 2,1025,-1
 218 85 l 2,1026,1027
 218 84 218 84 218.5 83.5 c 128,-1,1028
 219 83 219 83 219 83 c 2,1029,1030
 221 81 221 81 221 80 c 0,1031,1032
 220 76 220 76 222 68 c 2,1033,-1
 222 64 l 1,1034,1035
 221 64 221 64 223.5 63.5 c 128,-1,1036
 226 63 226 63 227 63 c 2,660,-1
EndSplineSet
EndChar

StartChar: E
Encoding: 69 69 14
Width: 654
GlyphClass: 2
Flags: W
AnchorPoint: "Anchor-1" 378 58 basechar 0
AnchorPoint: "Anchor-0" 337 790 basechar 0
LayerCount: 2
Fore
SplineSet
227 -137 m 0,0,1
 213 -143 213 -143 204 -128 c 0,2,3
 199 -121 199 -121 197 -109 c 0,4,5
 196 -100 196 -100 194 -91 c 128,-1,6
 192 -82 192 -82 190 -72 c 0,7,8
 189 -68 189 -68 187.5 -64 c 128,-1,9
 186 -60 186 -60 184 -56 c 0,10,11
 181 -50 181 -50 178 -44 c 128,-1,12
 175 -38 175 -38 171 -33 c 0,13,14
 167 -25 167 -25 166 -22 c 2,15,-1
 161 -11 l 2,16,17
 155 3 155 3 155 18 c 0,18,19
 154 25 154 25 154.5 32 c 128,-1,20
 155 39 155 39 156 46 c 0,21,22
 159 64 159 64 155 79 c 2,23,-1
 146 124 l 2,24,25
 145 130 145 130 144 136.5 c 128,-1,26
 143 143 143 143 142 150 c 2,27,-1
 139 164 l 2,28,29
 138 173 138 173 137 182 c 128,-1,30
 136 191 136 191 135 199 c 0,31,32
 134 202 134 202 134 205 c 128,-1,33
 134 208 134 208 134 211 c 0,34,35
 134 222 134 222 127 230 c 0,36,37
 123 235 123 235 119.5 240.5 c 128,-1,38
 116 246 116 246 114 251 c 0,39,40
 110 257 110 257 106.5 262.5 c 128,-1,41
 103 268 103 268 100 274 c 256,42,43
 97 280 97 280 90 281 c 0,44,45
 84 282 84 282 79 286 c 0,46,47
 72 292 72 292 66 299 c 0,48,49
 64 303 64 303 62 305 c 0,50,51
 59 309 59 309 60 313 c 0,52,53
 62 316 62 316 60 319 c 0,54,55
 57 324 57 324 58 328 c 128,-1,56
 59 332 59 332 60 336 c 0,57,58
 60 340 60 340 62 343 c 128,-1,59
 64 346 64 346 66 349 c 0,60,61
 70 355 70 355 75.5 359.5 c 128,-1,62
 81 364 81 364 87 368 c 0,63,64
 91 370 91 370 93 372 c 0,65,66
 98 374 98 374 96 378 c 2,67,-1
 96 381 l 2,68,69
 94 392 94 392 92 402 c 128,-1,70
 90 412 90 412 87 422 c 0,71,72
 86 427 86 427 84.5 432 c 128,-1,73
 83 437 83 437 81 442 c 0,74,75
 80 443 80 443 80 446 c 0,76,77
 80 451 80 451 79 456 c 128,-1,78
 78 461 78 461 77 465 c 0,79,80
 74 489 74 489 68 513 c 0,81,82
 67 520 67 520 63 527 c 0,83,84
 59 536 59 536 58 543 c 0,85,86
 55 554 55 554 52 564.5 c 128,-1,87
 49 575 49 575 47 585 c 0,88,89
 44 595 44 595 42.5 605 c 128,-1,90
 41 615 41 615 40 625 c 0,91,92
 39 649 39 649 57 664 c 2,93,-1
 60 667 l 2,94,95
 68 674 68 674 76.5 676.5 c 128,-1,96
 85 679 85 679 95 679 c 0,97,98
 104 678 104 678 111.5 680.5 c 128,-1,99
 119 683 119 683 126 687 c 0,100,101
 128 688 128 688 132 688 c 2,102,-1
 135 688 l 2,103,104
 138 688 138 688 140 687 c 0,105,106
 143 685 143 685 147 689 c 0,107,108
 148 690 148 690 150 688 c 0,109,110
 152 685 152 685 155 685 c 0,111,112
 157 684 157 684 159.5 684 c 128,-1,113
 162 684 162 684 165 682 c 0,114,115
 167 681 167 681 169.5 679 c 128,-1,116
 172 677 172 677 173 673 c 2,117,-1
 176 670 l 2,118,119
 179 669 179 669 181 665 c 0,120,121
 182 661 182 661 188 661 c 0,122,123
 191 661 191 661 197 663 c 0,124,125
 208 665 208 665 218.5 667 c 128,-1,126
 229 669 229 669 239 670 c 0,127,128
 242 671 242 671 246 671 c 0,129,130
 266 672 266 672 286 675 c 128,-1,131
 306 678 306 678 325 682 c 2,132,-1
 330 684 l 1,133,134
 350 687 350 687 368 696 c 0,135,136
 375 700 375 700 383 703 c 128,-1,137
 391 706 391 706 398 709 c 2,138,-1
 432 721 l 2,139,140
 439 723 439 723 441 725 c 0,141,142
 447 730 447 730 452 732 c 0,143,144
 465 740 465 740 481 742 c 0,145,146
 490 742 490 742 499 739 c 0,147,148
 513 733 513 733 525 720 c 0,149,150
 528 715 528 715 527 709 c 0,151,152
 524 703 524 703 527 696 c 0,153,154
 528 690 528 690 527 686 c 256,155,156
 526 682 526 682 526 678 c 128,-1,157
 526 674 526 674 525 670 c 0,158,159
 525 665 525 665 522 662 c 0,160,161
 515 652 515 652 508 647 c 0,162,163
 507 646 507 646 506.5 645 c 128,-1,164
 506 644 506 644 504 642 c 0,165,166
 503 641 503 641 502.5 640 c 128,-1,167
 502 639 502 639 500 637 c 0,168,169
 495 633 495 633 491.5 628 c 128,-1,170
 488 623 488 623 484 618 c 0,171,172
 480 611 480 611 474.5 604.5 c 128,-1,173
 469 598 469 598 462 593 c 2,174,-1
 454 584 l 2,175,176
 448 576 448 576 447 569 c 0,177,178
 445 560 445 560 443.5 551.5 c 128,-1,179
 442 543 442 543 442 534 c 2,180,-1
 439 513 l 2,181,182
 439 509 439 509 437 505 c 0,183,184
 433 495 433 495 421 495 c 0,185,186
 420 494 420 494 418.5 494.5 c 128,-1,187
 417 495 417 495 416 495 c 0,188,189
 407 500 407 500 404 508 c 0,190,191
 400 521 400 521 398 537 c 0,192,193
 398 542 398 542 397.5 547.5 c 128,-1,194
 397 553 397 553 396 558 c 2,195,-1
 393 565 l 2,196,197
 391 572 391 572 385 568 c 0,198,199
 384 568 384 568 382.5 567 c 128,-1,200
 381 566 381 566 379 565 c 0,201,202
 375 563 375 563 371.5 560.5 c 128,-1,203
 368 558 368 558 365 555 c 0,204,205
 356 550 356 550 343 545 c 0,206,207
 325 539 325 539 310 527 c 0,208,209
 308 526 308 526 305.5 524 c 128,-1,210
 303 522 303 522 300 520 c 256,211,212
 297 518 297 518 294 516 c 128,-1,213
 291 514 291 514 287 512 c 2,214,-1
 280 508 l 2,215,216
 277 506 277 506 273 500 c 0,217,218
 272 495 272 495 270.5 489.5 c 128,-1,219
 269 484 269 484 269 478 c 0,220,221
 269 469 269 469 268.5 460 c 128,-1,222
 268 451 268 451 269 442 c 0,223,224
 269 437 269 437 269 431.5 c 128,-1,225
 269 426 269 426 267 421 c 0,226,227
 265 414 265 414 272 416 c 0,228,229
 277 416 277 416 280 417 c 0,230,231
 291 419 291 419 302.5 420.5 c 128,-1,232
 314 422 314 422 324 424 c 2,233,-1
 346 427 l 2,234,235
 351 428 351 428 354.5 429 c 128,-1,236
 358 430 358 430 362 432 c 0,237,238
 368 436 368 436 374 437 c 128,-1,239
 380 438 380 438 386 439 c 0,240,241
 399 442 399 442 412 434 c 2,242,-1
 425 425 l 2,243,244
 429 421 429 421 429 417 c 0,245,246
 431 410 431 410 434 410 c 0,247,248
 437 411 437 411 438 410 c 0,249,250
 441 406 441 406 443.5 401.5 c 128,-1,251
 446 397 446 397 447 392 c 0,252,253
 447 388 447 388 444 387 c 0,254,255
 440 387 440 387 438 384 c 128,-1,256
 436 381 436 381 434 378 c 0,257,258
 433 377 433 377 433.5 376 c 128,-1,259
 434 375 434 375 434 374 c 0,260,261
 436 371 436 371 434 367 c 0,262,263
 433 365 433 365 432 362.5 c 128,-1,264
 431 360 431 360 430 358 c 0,265,266
 426 349 426 349 418 343 c 0,267,268
 414 339 414 339 411 337 c 0,269,270
 403 332 403 332 396 319 c 0,271,272
 395 317 395 317 394 314.5 c 128,-1,273
 393 312 393 312 391 309 c 0,274,275
 388 305 388 305 382 303 c 0,276,277
 372 301 372 301 366 304 c 2,278,-1
 360 307 l 2,279,280
 354 309 354 309 350 306 c 0,281,282
 349 305 349 305 345 303 c 0,283,284
 336 299 336 299 325 302 c 0,285,286
 320 304 320 304 314.5 307 c 128,-1,287
 309 310 309 310 304 312 c 0,288,289
 302 313 302 313 300 315 c 0,290,291
 296 318 296 318 291 316 c 0,292,293
 285 315 285 315 279 313.5 c 128,-1,294
 273 312 273 312 267 310 c 0,295,296
 258 309 258 309 247 304 c 0,297,298
 244 304 244 304 241 301 c 0,299,300
 236 297 236 297 237 292 c 2,301,-1
 237 290 l 2,302,303
 240 281 240 281 241.5 272 c 128,-1,304
 243 263 243 263 244 254 c 2,305,-1
 250 212 l 2,306,307
 250 211 250 211 250.5 210.5 c 128,-1,308
 251 210 251 210 251 210 c 1,309,310
 251 199 251 199 252 188 c 128,-1,311
 253 177 253 177 253 166 c 0,312,313
 253 153 253 153 253.5 141 c 128,-1,314
 254 129 254 129 254 117 c 2,315,-1
 254 105 l 2,316,317
 256 101 256 101 260 101 c 2,318,-1
 273 104 l 2,319,320
 278 105 278 105 282.5 106 c 128,-1,321
 287 107 287 107 291 108 c 2,322,-1
 309 111 l 2,323,324
 315 111 315 111 318 112 c 0,325,326
 331 114 331 114 344 117 c 128,-1,327
 357 120 357 120 370 122 c 0,328,329
 376 123 376 123 382.5 124 c 128,-1,330
 389 125 389 125 396 126 c 0,331,332
 407 127 407 127 417.5 128.5 c 128,-1,333
 428 130 428 130 438 131 c 0,334,335
 443 132 443 132 447.5 132.5 c 128,-1,336
 452 133 452 133 456 133 c 0,337,338
 462 135 462 135 465 137 c 0,339,340
 467 139 467 139 469.5 140 c 128,-1,341
 472 141 472 141 473 142 c 0,342,343
 482 150 482 150 493 148 c 0,344,345
 496 148 496 148 498 149 c 0,346,347
 500 149 500 149 503 149 c 128,-1,348
 506 149 506 149 508 148 c 0,349,350
 513 146 513 146 517 144.5 c 128,-1,351
 521 143 521 143 525 140 c 0,352,353
 526 139 526 139 527 139 c 0,354,355
 535 134 535 134 543 138 c 0,356,357
 546 140 546 140 550 141.5 c 128,-1,358
 554 143 554 143 558 144 c 0,359,360
 568 147 568 147 578 144 c 0,361,362
 581 143 581 143 584.5 142 c 128,-1,363
 588 141 588 141 590 139 c 0,364,365
 596 136 596 136 601 129 c 0,366,367
 610 116 610 116 613 102 c 0,368,369
 615 99 615 99 613 96 c 0,370,371
 612 93 612 93 611 90.5 c 128,-1,372
 610 88 610 88 609 85 c 0,373,374
 608 83 608 83 607 80.5 c 128,-1,375
 606 78 606 78 605 76 c 0,376,377
 605 72 605 72 601 70 c 0,378,379
 597 69 597 69 595 64 c 0,380,381
 593 60 593 60 590 62 c 0,382,383
 586 62 586 62 585 61 c 0,384,385
 580 57 580 57 574 55 c 128,-1,386
 568 53 568 53 562 51 c 0,387,388
 551 49 551 49 540 45.5 c 128,-1,389
 529 42 529 42 518 39 c 0,390,391
 512 37 512 37 509 37 c 0,392,393
 503 36 503 36 497.5 34.5 c 128,-1,394
 492 33 492 33 487 31 c 0,395,396
 486 30 486 30 484.5 30 c 128,-1,397
 483 30 483 30 481 29 c 0,398,399
 474 28 474 28 466.5 26 c 128,-1,400
 459 24 459 24 452 21 c 0,401,402
 449 19 449 19 443 19 c 0,403,404
 435 19 435 19 426 16 c 0,405,406
 416 14 416 14 406 12.5 c 128,-1,407
 396 11 396 11 385 9 c 2,408,-1
 364 6 l 2,409,410
 351 3 351 3 341 -1 c 0,411,412
 339 -2 339 -2 336 -3 c 128,-1,413
 333 -4 333 -4 331 -5 c 0,414,415
 310 -9 310 -9 292 -20 c 2,416,-1
 284 -23 l 2,417,418
 276 -24 276 -24 268.5 -28 c 128,-1,419
 261 -32 261 -32 253 -36 c 0,420,421
 247 -40 247 -40 245 -42 c 256,422,423
 243 -44 243 -44 241 -48 c 0,424,425
 236 -60 236 -60 236 -69 c 0,426,427
 237 -76 237 -76 237 -82.5 c 128,-1,428
 237 -89 237 -89 238 -97 c 0,429,430
 240 -109 240 -109 237 -119 c 0,431,432
 237 -123 237 -123 235 -129 c 0,433,434
 231 -135 231 -135 227 -137 c 0,0,1
227 407 m 0,435,436
 231 409 231 409 231 413 c 0,437,438
 230 415 230 415 230 417.5 c 128,-1,439
 230 420 230 420 229 422 c 0,440,441
 224 435 224 435 224 445 c 0,442,443
 224 447 224 447 223.5 448 c 128,-1,444
 223 449 223 449 223 450 c 0,445,446
 221 452 221 452 221 452 c 1,447,-1
 221 450 l 2,448,449
 220 445 220 445 219.5 439 c 128,-1,450
 219 433 219 433 219 427 c 2,451,-1
 219 411 l 2,452,453
 221 408 221 408 223 408 c 0,454,455
 224 407 224 407 227 407 c 0,435,436
EndSplineSet
Substitution2: "'ss02' Style Set 2 lookup 11 subtable" E.ss02
Substitution2: "'ss01' Style Set 1 lookup 10 subtable" E.ss01
Substitution2: "'salt' Stylistic Alternatives lookup 9 subtable" E.ss01
AlternateSubs2: "'aalt' Access All Alternates lookup 1 subtable" E.ss01 E.ss02
EndChar

StartChar: F
Encoding: 70 70 19
Width: 645
GlyphClass: 2
Flags: W
AnchorPoint: "Anchor-1" 331 0 basechar 0
AnchorPoint: "Anchor-0" 331 700 basechar 0
LayerCount: 2
Fore
SplineSet
215 -48 m 0,0,1
 206 -52 206 -52 198 -47 c 0,2,3
 195 -45 195 -45 192 -42.5 c 128,-1,4
 189 -40 189 -40 187 -36 c 0,5,6
 179 -24 179 -24 167 -16 c 0,7,8
 161 -11 161 -11 157 -5.5 c 128,-1,9
 153 0 153 0 150 7 c 2,10,-1
 147 16 l 2,11,12
 143 24 143 24 143 34 c 0,13,14
 144 47 144 47 144 60 c 128,-1,15
 144 73 144 73 142 86 c 0,16,17
 141 91 141 91 141 95.5 c 128,-1,18
 141 100 141 100 141 105 c 0,19,20
 140 113 140 113 140 122 c 128,-1,21
 140 131 140 131 140 139 c 0,22,23
 140 146 140 146 140 152 c 128,-1,24
 140 158 140 158 139 165 c 0,25,26
 138 171 138 171 138 177 c 128,-1,27
 138 183 138 183 138 189 c 2,28,-1
 138 357 l 2,29,30
 138 364 138 364 137 367 c 0,31,32
 135 375 135 375 135 382 c 128,-1,33
 135 389 135 389 133 396 c 0,34,35
 133 401 133 401 134 403 c 0,36,37
 138 416 138 416 138 435 c 0,38,39
 137 453 137 453 137.5 470.5 c 128,-1,40
 138 488 138 488 137 506 c 2,41,-1
 137 515 l 1,42,-1
 135 517 l 2,43,44
 134 519 134 519 131 516 c 2,45,-1
 127 513 l 2,46,47
 126 511 126 511 125 509.5 c 128,-1,48
 124 508 124 508 122 506 c 0,49,50
 116 498 116 498 105 496 c 0,51,52
 98 494 98 494 94 498 c 0,53,54
 91 500 91 500 88 502.5 c 128,-1,55
 85 505 85 505 83 507 c 0,56,57
 78 512 78 512 72.5 517.5 c 128,-1,58
 67 523 67 523 61 528 c 0,59,60
 48 538 48 538 43 556 c 2,61,-1
 40 567 l 2,62,63
 39 577 39 577 42 587 c 0,64,65
 44 593 44 593 46 599 c 128,-1,66
 48 605 48 605 50 610 c 0,67,68
 52 618 52 618 57 622 c 128,-1,69
 62 626 62 626 68 629 c 0,70,71
 70 629 70 629 72 629.5 c 128,-1,72
 74 630 74 630 75 630 c 0,73,74
 78 632 78 632 78 633 c 0,75,76
 80 638 80 638 84 636 c 0,77,78
 86 636 86 636 86 639 c 0,79,80
 87 640 87 640 89 640 c 0,81,82
 91 639 91 639 92.5 637.5 c 128,-1,83
 94 636 94 636 96 635 c 0,84,85
 97 634 97 634 101 634 c 0,86,87
 105 636 105 636 109 636 c 128,-1,88
 113 636 113 636 117 636 c 0,89,90
 122 636 122 636 127.5 637.5 c 128,-1,91
 133 639 133 639 138 640 c 0,92,93
 141 642 141 642 143 645 c 2,94,-1
 146 658 l 1,95,-1
 149 673 l 2,96,97
 150 678 150 678 152 682 c 128,-1,98
 154 686 154 686 156 690 c 2,99,-1
 160 696 l 2,100,101
 170 714 170 714 192 719 c 0,102,103
 194 720 194 720 195 720 c 128,-1,104
 196 720 196 720 197 721 c 0,105,106
 200 722 200 722 203 722 c 128,-1,107
 206 722 206 722 209 722 c 2,108,-1
 217 722 l 2,109,110
 236 721 236 721 246 705 c 0,111,112
 248 702 248 702 250 698 c 128,-1,113
 252 694 252 694 253 690 c 0,114,115
 256 684 256 684 263 685 c 0,116,117
 264 686 264 686 266 686 c 0,118,119
 277 689 277 689 288 692 c 128,-1,120
 299 695 299 695 310 699 c 0,121,122
 323 704 323 704 336 707.5 c 128,-1,123
 349 711 349 711 362 715 c 0,124,125
 373 719 373 719 384.5 722 c 128,-1,126
 396 725 396 725 407 728 c 2,127,-1
 431 734 l 2,128,129
 448 739 448 739 466 743 c 128,-1,130
 484 747 484 747 501 751 c 0,131,132
 510 753 510 753 519 757 c 0,133,134
 526 762 526 762 534 762.5 c 128,-1,135
 542 763 542 763 549 763 c 2,136,-1
 569 763 l 2,137,138
 584 762 584 762 593 751 c 0,139,140
 604 741 604 741 605 724 c 2,141,-1
 605 716 l 2,142,143
 605 703 605 703 596 694 c 256,144,145
 587 685 587 685 578 679 c 0,146,147
 577 678 577 678 575.5 678 c 128,-1,148
 574 678 574 678 572 677 c 0,149,150
 563 677 563 677 553 672 c 0,151,152
 546 669 546 669 538 671 c 0,153,154
 533 673 533 673 528 672.5 c 128,-1,155
 523 672 523 672 518 671 c 0,156,157
 514 670 514 670 510 669 c 128,-1,158
 506 668 506 668 502 667 c 256,159,160
 498 666 498 666 494 665 c 128,-1,161
 490 664 490 664 485 663 c 0,162,163
 461 660 461 660 441 647 c 0,164,165
 439 645 439 645 435 645 c 0,166,167
 429 645 429 645 426 643 c 0,168,169
 422 642 422 642 418.5 640 c 128,-1,170
 415 638 415 638 411 636 c 256,171,172
 407 634 407 634 402 632 c 128,-1,173
 397 630 397 630 392 628 c 0,174,175
 386 627 386 627 380 625 c 128,-1,176
 374 623 374 623 368 621 c 0,177,178
 365 620 365 620 362.5 619 c 128,-1,179
 360 618 360 618 358 617 c 0,180,181
 348 614 348 614 338.5 609 c 128,-1,182
 329 604 329 604 320 598 c 2,183,-1
 315 595 l 2,184,185
 311 594 311 594 306 592 c 128,-1,186
 301 590 301 590 296 588 c 0,187,188
 291 587 291 587 286 585 c 128,-1,189
 281 583 281 583 276 580 c 0,190,191
 275 579 275 579 274.5 579 c 128,-1,192
 274 579 274 579 274 579 c 2,193,194
 267 578 267 578 262.5 573.5 c 128,-1,195
 258 569 258 569 253 564 c 0,196,197
 251 562 251 562 251 559 c 2,198,-1
 251 478 l 2,199,200
 251 474 251 474 250.5 470 c 128,-1,201
 250 466 250 466 249 461 c 0,202,203
 249 455 249 455 248 453 c 0,204,205
 248 442 248 442 258 445 c 0,206,207
 272 449 272 449 286.5 453 c 128,-1,208
 301 457 301 457 314 461 c 0,209,210
 328 466 328 466 340.5 470 c 128,-1,211
 353 474 353 474 366 478 c 0,212,213
 371 479 371 479 375 480.5 c 128,-1,214
 379 482 379 482 383 483 c 0,215,216
 399 489 399 489 415.5 495 c 128,-1,217
 432 501 432 501 448 505 c 0,218,219
 459 507 459 507 469 510.5 c 128,-1,220
 479 514 479 514 489 517 c 0,221,222
 498 520 498 520 507 522 c 128,-1,223
 516 524 516 524 524 526 c 0,224,225
 530 527 530 527 536 526.5 c 128,-1,226
 542 526 542 526 547 523 c 0,227,228
 549 522 549 522 551.5 521.5 c 128,-1,229
 554 521 554 521 556 520 c 0,230,231
 561 520 561 520 564 516 c 0,232,233
 566 515 566 515 567.5 514 c 128,-1,234
 569 513 569 513 571 511 c 2,235,236
 571 511 571 511 574 508 c 0,237,238
 574 507 574 507 574.5 506.5 c 128,-1,239
 575 506 575 506 575 504 c 0,240,241
 583 492 583 492 583.5 488.5 c 128,-1,242
 584 485 584 485 585 475 c 0,243,244
 585 469 585 469 582 467 c 2,245,-1
 579 463 l 2,246,247
 575 452 575 452 563 447 c 0,248,249
 559 445 559 445 555.5 442.5 c 128,-1,250
 552 440 552 440 547 438 c 2,251,-1
 542 435 l 2,252,253
 538 431 538 431 533 431 c 0,254,255
 522 429 522 429 511.5 425 c 128,-1,256
 501 421 501 421 490 418 c 0,257,258
 486 417 486 417 482 413 c 0,259,260
 475 407 475 407 465 404 c 0,261,262
 461 403 461 403 457.5 401.5 c 128,-1,263
 454 400 454 400 449 399 c 0,264,265
 432 394 432 394 415.5 387 c 128,-1,266
 399 380 399 380 382 373 c 0,267,268
 375 370 375 370 367.5 367 c 128,-1,269
 360 364 360 364 352 362 c 0,270,271
 347 360 347 360 341 357.5 c 128,-1,272
 335 355 335 355 330 351 c 0,273,274
 326 349 326 349 322 347.5 c 128,-1,275
 318 346 318 346 313 344 c 0,276,277
 298 339 298 339 283 334 c 128,-1,278
 268 329 268 329 252 324 c 0,279,280
 249 324 249 324 248 323 c 0,281,282
 243 321 243 321 243 317 c 0,283,284
 242 311 242 311 241.5 305.5 c 128,-1,285
 241 300 241 300 241 295 c 2,286,-1
 241 289 l 2,287,288
 243 285 243 285 243 279.5 c 128,-1,289
 243 274 243 274 243 269 c 0,290,291
 243 267 243 267 241 263 c 0,292,293
 237 259 237 259 237 252 c 0,294,295
 236 246 236 246 236 240 c 128,-1,296
 236 234 236 234 234 228 c 0,297,298
 233 221 233 221 233.5 215 c 128,-1,299
 234 209 234 209 237 203 c 256,300,301
 240 197 240 197 240 190 c 0,302,303
 239 173 239 173 245 152 c 0,304,305
 246 149 246 149 246 142 c 0,306,307
 243 133 243 133 245 119 c 0,308,309
 245 115 245 115 245 109.5 c 128,-1,310
 245 104 245 104 244 99 c 0,311,312
 242 96 242 96 244 88 c 0,313,314
 244 86 244 86 244.5 83.5 c 128,-1,315
 245 81 245 81 245 79 c 0,316,317
 246 66 246 66 247.5 53 c 128,-1,318
 249 40 249 40 250 27 c 0,319,320
 251 21 251 21 250 15.5 c 128,-1,321
 249 10 249 10 247 5 c 0,322,323
 244 -9 244 -9 237 -18 c 0,324,325
 233 -23 233 -23 230 -28.5 c 128,-1,326
 227 -34 227 -34 224 -39 c 0,327,328
 223 -42 223 -42 220 -44 c 128,-1,329
 217 -46 217 -46 215 -48 c 0,0,1
EndSplineSet
Substitution2: "'ss02' Style Set 2 lookup 11 subtable" F.ss02
Substitution2: "'ss01' Style Set 1 lookup 10 subtable" F.ss01
Substitution2: "'salt' Stylistic Alternatives lookup 9 subtable" F.ss01
AlternateSubs2: "'aalt' Access All Alternates lookup 1 subtable" F.ss01 F.ss02
EndChar

StartChar: G
Encoding: 71 71 20
Width: 570
GlyphClass: 2
Flags: W
AnchorPoint: "Anchor-1" 264 93 basechar 0
AnchorPoint: "Anchor-0" 285 700 basechar 0
LayerCount: 2
Fore
SplineSet
237 -133 m 0,0,1
 221 -143 221 -143 211 -126 c 0,2,3
 207 -120 207 -120 207 -115 c 2,4,-1
 204 -101 l 2,5,6
 203 -86 203 -86 200 -71 c 128,-1,7
 197 -56 197 -56 193 -40 c 0,8,9
 193 -38 193 -38 192.5 -36.5 c 128,-1,10
 192 -35 192 -35 192 -33 c 0,11,12
 192 -29 192 -29 191 -27 c 0,13,14
 188 -12 188 -12 175 -5 c 0,15,16
 166 0 166 0 156.5 4.5 c 128,-1,17
 147 9 147 9 137 13 c 2,18,-1
 112 25 l 2,19,20
 104 29 104 29 97 38 c 0,21,22
 86 50 86 50 77 63 c 128,-1,23
 68 76 68 76 62 91 c 0,24,25
 60 97 60 97 57.5 103 c 128,-1,26
 55 109 55 109 53 115 c 0,27,28
 51 120 51 120 50 125 c 128,-1,29
 49 130 49 130 47 134 c 2,30,-1
 41 155 l 2,31,32
 39 159 39 159 39 163 c 0,33,34
 38 170 38 170 37.5 176.5 c 128,-1,35
 37 183 37 183 35 190 c 0,36,37
 34 197 34 197 33.5 204 c 128,-1,38
 33 211 33 211 33 218 c 0,39,40
 33 222 33 222 32 224 c 0,41,42
 31 238 31 238 31 251 c 128,-1,43
 31 264 31 264 30 277 c 0,44,45
 30 285 30 285 30 293 c 128,-1,46
 30 301 30 301 31 308 c 2,47,-1
 34 344 l 2,48,49
 34 347 34 347 34.5 349.5 c 128,-1,50
 35 352 35 352 35 354 c 0,51,52
 36 367 36 367 37.5 379 c 128,-1,53
 39 391 39 391 42 403 c 0,54,55
 44 406 44 406 44 409 c 128,-1,56
 44 412 44 412 44 415 c 0,57,58
 47 426 47 426 49.5 437.5 c 128,-1,59
 52 449 52 449 54 461 c 2,60,-1
 60 494 l 2,61,62
 62 502 62 502 63.5 510 c 128,-1,63
 65 518 65 518 67 526 c 0,64,65
 75 560 75 560 95 584 c 0,66,67
 107 601 107 601 123 611 c 0,68,69
 135 619 135 619 147.5 627 c 128,-1,70
 160 635 160 635 173 641 c 0,71,72
 187 649 187 649 202 655 c 128,-1,73
 217 661 217 661 233 666 c 0,74,75
 240 668 240 668 246.5 670 c 128,-1,76
 253 672 253 672 260 673 c 0,77,78
 272 676 272 676 284 675.5 c 128,-1,79
 296 675 296 675 307 670 c 0,80,81
 321 665 321 665 331 657 c 0,82,83
 336 653 336 653 341.5 649.5 c 128,-1,84
 347 646 347 646 351 641 c 0,85,86
 372 626 372 626 378 600 c 0,87,88
 379 596 379 596 380 592.5 c 128,-1,89
 381 589 381 589 381 584 c 0,90,91
 382 566 382 566 375 550 c 0,92,93
 373 546 373 546 370.5 541.5 c 128,-1,94
 368 537 368 537 364 533 c 0,95,96
 359 527 359 527 354.5 520.5 c 128,-1,97
 350 514 350 514 345 508 c 0,98,99
 336 498 336 498 336 483 c 2,100,-1
 336 421 l 2,101,102
 336 417 336 417 335.5 413.5 c 128,-1,103
 335 410 335 410 335 406 c 0,104,105
 334 401 334 401 334 395.5 c 128,-1,106
 334 390 334 390 334 385 c 256,107,108
 334 380 334 380 338 382 c 2,109,-1
 341 382 l 2,110,111
 344 383 344 383 346.5 383 c 128,-1,112
 349 383 349 383 351 384 c 0,113,114
 366 389 366 389 381 391.5 c 128,-1,115
 396 394 396 394 412 395 c 0,116,117
 426 397 426 397 439 395.5 c 128,-1,118
 452 394 452 394 465 391 c 0,119,120
 474 388 474 388 482.5 384.5 c 128,-1,121
 491 381 491 381 498 375 c 0,122,123
 503 371 503 371 508 366.5 c 128,-1,124
 513 362 513 362 516 357 c 0,125,126
 523 347 523 347 527.5 336.5 c 128,-1,127
 532 326 532 326 532 315 c 2,128,-1
 532 314 l 2,129,130
 534 304 534 304 534 294 c 128,-1,131
 534 284 534 284 532 274 c 0,132,133
 531 268 531 268 530 262.5 c 128,-1,134
 529 257 529 257 528 251 c 0,135,136
 526 242 526 242 523.5 233 c 128,-1,137
 521 224 521 224 519 215 c 0,138,139
 518 211 518 211 517.5 207.5 c 128,-1,140
 517 204 517 204 517 200 c 2,141,-1
 517 142 l 2,142,143
 517 134 517 134 518 126 c 128,-1,144
 519 118 519 118 520 110 c 0,145,146
 521 105 521 105 522.5 100 c 128,-1,147
 524 95 524 95 525 90 c 0,148,149
 525 88 525 88 529 84 c 0,150,151
 534 79 534 79 535 73 c 0,152,153
 535 70 535 70 536 69 c 0,154,155
 540 60 540 60 540 48 c 0,156,157
 540 44 540 44 539.5 40 c 128,-1,158
 539 36 539 36 540 31 c 0,159,160
 542 25 542 25 537 20 c 0,161,162
 535 18 535 18 534 15 c 128,-1,163
 533 12 533 12 531 9 c 0,164,165
 528 3 528 3 523 -2 c 0,166,167
 520 -3 520 -3 518 -6 c 128,-1,168
 516 -9 516 -9 514 -11 c 0,169,170
 506 -20 506 -20 495 -17 c 0,171,172
 494 -17 494 -17 492.5 -16.5 c 128,-1,173
 491 -16 491 -16 490 -16 c 0,174,175
 481 -15 481 -15 474.5 -10.5 c 128,-1,176
 468 -6 468 -6 462 0 c 0,177,178
 460 3 460 3 457.5 6.5 c 128,-1,179
 455 10 455 10 452 13 c 0,180,181
 449 17 449 17 447.5 22 c 128,-1,182
 446 27 446 27 444 31 c 0,183,184
 440 45 440 45 435.5 60 c 128,-1,185
 431 75 431 75 429 90 c 0,186,187
 427 104 427 104 424 118.5 c 128,-1,188
 421 133 421 133 420 148 c 0,189,190
 418 156 418 156 418 162 c 0,191,192
 416 166 416 166 416 166 c 1,193,194
 412 164 412 164 411 163 c 0,195,196
 401 151 401 151 389 139.5 c 128,-1,197
 377 128 377 128 366 116 c 0,198,199
 364 113 364 113 361.5 110.5 c 128,-1,200
 359 108 359 108 357 106 c 0,201,202
 351 100 351 100 345 94.5 c 128,-1,203
 339 89 339 89 334 83 c 0,204,205
 330 80 330 80 327 77 c 128,-1,206
 324 74 324 74 320 72 c 0,207,208
 318 70 318 70 316 68 c 128,-1,209
 314 66 314 66 312 64 c 0,210,211
 308 60 308 60 304.5 56.5 c 128,-1,212
 301 53 301 53 296 50 c 2,213,-1
 292 46 l 2,214,215
 276 33 276 33 260 23 c 0,216,217
 243 14 243 14 243 -6 c 0,218,219
 243 -12 243 -12 243 -18 c 128,-1,220
 243 -24 243 -24 244 -30 c 0,221,222
 244 -31 244 -31 244.5 -31 c 128,-1,223
 245 -31 245 -31 245 -32 c 0,224,225
 246 -51 246 -51 247.5 -70.5 c 128,-1,226
 249 -90 249 -90 248 -110 c 0,227,228
 247 -113 247 -113 247 -118 c 0,229,230
 245 -127 245 -127 237 -133 c 0,0,1
231 151 m 0,231,232
 249 142 249 142 266 152 c 0,233,234
 269 155 269 155 271 156 c 0,235,236
 279 162 279 162 286 168.5 c 128,-1,237
 293 175 293 175 300 181 c 256,238,239
 307 187 307 187 313 193.5 c 128,-1,240
 319 200 319 200 326 206 c 0,241,242
 334 214 334 214 342 223 c 128,-1,243
 350 232 350 232 357 241 c 0,244,245
 362 247 362 247 365 254 c 0,246,247
 369 259 369 259 370 266 c 0,248,249
 370 273 370 273 364 271 c 0,250,251
 359 270 359 270 354 269 c 128,-1,252
 349 268 349 268 344 264 c 0,253,254
 338 260 338 260 331.5 256 c 128,-1,255
 325 252 325 252 318 247 c 0,256,257
 316 245 316 245 314 241 c 0,258,259
 312 234 312 234 310 224 c 0,260,261
 310 217 310 217 309.5 211 c 128,-1,262
 309 205 309 205 308 199 c 0,263,264
 305 185 305 185 294 181 c 0,265,266
 287 178 287 178 282 182 c 0,267,268
 275 186 275 186 272 193 c 0,269,270
 270 200 270 200 268 207 c 128,-1,271
 266 214 266 214 265 221 c 2,272,-1
 262 240 l 2,273,274
 262 252 262 252 251 265 c 0,275,276
 249 267 249 267 246.5 270 c 128,-1,277
 244 273 244 273 242 276 c 0,278,279
 238 282 238 282 235.5 289 c 128,-1,280
 233 296 233 296 231 303 c 2,281,-1
 230 310 l 2,282,283
 231 329 231 329 244 343 c 0,284,285
 260 361 260 361 279 366 c 2,286,-1
 289 369 l 2,287,288
 295 371 295 371 293 376 c 0,289,290
 292 381 292 381 291 386.5 c 128,-1,291
 290 392 290 392 289 397 c 0,292,293
 288 407 288 407 287.5 416.5 c 128,-1,294
 287 426 287 426 285 436 c 2,295,296
 285 436 285 436 285 441 c 0,297,298
 284 452 284 452 282.5 463.5 c 128,-1,299
 281 475 281 475 279 487 c 0,300,301
 277 497 277 497 271 503 c 0,302,303
 263 511 263 511 253 511 c 0,304,305
 244 509 244 509 240 506 c 0,306,307
 230 499 230 499 221 492.5 c 128,-1,308
 212 486 212 486 201 481 c 0,309,310
 194 477 194 477 191 472 c 0,311,312
 188 465 188 465 184.5 458.5 c 128,-1,313
 181 452 181 452 179 444 c 0,314,315
 178 439 178 439 176 433.5 c 128,-1,316
 174 428 174 428 172 423 c 0,317,318
 172 421 172 421 171 419 c 128,-1,319
 170 417 170 417 169 415 c 0,320,321
 166 408 166 408 164 402 c 0,322,323
 162 395 162 395 160 388 c 128,-1,324
 158 381 158 381 156 373 c 0,325,326
 154 366 154 366 152 356 c 256,327,328
 150 346 150 346 148 336 c 128,-1,329
 146 326 146 326 144 316 c 0,330,331
 143 312 143 312 142.5 308.5 c 128,-1,332
 142 305 142 305 142 300 c 0,333,334
 142 296 142 296 142 291 c 128,-1,335
 142 286 142 286 140 281 c 0,336,337
 140 278 140 278 139.5 274.5 c 128,-1,338
 139 271 139 271 139 268 c 256,339,340
 139 265 139 265 139.5 262 c 128,-1,341
 140 259 140 259 140 254 c 0,342,343
 139 247 139 247 140 237.5 c 128,-1,344
 141 228 141 228 142 219 c 2,345,-1
 144 211 l 2,346,347
 146 205 146 205 149 198.5 c 128,-1,348
 152 192 152 192 156 187 c 0,349,350
 166 176 166 176 175 169 c 256,351,352
 184 162 184 162 187.5 160.5 c 128,-1,353
 191 159 191 159 203 159 c 0,354,355
 212 159 212 159 221 156 c 0,356,357
 225 155 225 155 231 151 c 0,231,232
EndSplineSet
Substitution2: "'ss01' Style Set 1 lookup 10 subtable" G.ss01
Substitution2: "'salt' Stylistic Alternatives lookup 9 subtable" G.ss01
Substitution2: "'aalt' Access All Alternates lookup 0 subtable" G.ss01
EndChar

StartChar: H
Encoding: 72 72 21
Width: 596
GlyphClass: 2
Flags: W
AnchorPoint: "Anchor-1" 298 0 basechar 0
AnchorPoint: "Anchor-0" 375 681 basechar 0
LayerCount: 2
Fore
SplineSet
511 -72 m 0,0,1
 505 -74 505 -74 500 -69 c 0,2,3
 496 -65 496 -65 493 -59 c 0,4,5
 491 -53 491 -53 489 -46 c 128,-1,6
 487 -39 487 -39 487 -32 c 0,7,8
 487 -27 487 -27 487 -22 c 128,-1,9
 487 -17 487 -17 485 -13 c 0,10,11
 484 -9 484 -9 483.5 -5.5 c 128,-1,12
 483 -2 483 -2 483 1 c 0,13,14
 482 12 482 12 475 22 c 0,15,16
 474 22 474 22 474 22.5 c 128,-1,17
 474 23 474 23 474 23 c 1,18,19
 466 34 466 34 461.5 46 c 128,-1,20
 457 58 457 58 455 71 c 2,21,-1
 446 125 l 2,22,23
 445 131 445 131 444 136.5 c 128,-1,24
 443 142 443 142 441 148 c 0,25,26
 440 156 440 156 438 163 c 128,-1,27
 436 170 436 170 434 177 c 2,28,-1
 428 199 l 1,29,-1
 428 202 l 2,30,31
 427 209 427 209 425 216 c 128,-1,32
 423 223 423 223 422 230 c 0,33,34
 421 238 421 238 419.5 245.5 c 128,-1,35
 418 253 418 253 416 260 c 0,36,37
 416 264 416 264 413.5 267.5 c 128,-1,38
 411 271 411 271 408 275 c 0,39,40
 408 276 408 276 406 278 c 0,41,42
 394 286 394 286 379 284 c 0,43,44
 375 284 375 284 373 283 c 0,45,46
 363 281 363 281 353 277 c 128,-1,47
 343 273 343 273 333 268 c 0,48,49
 329 266 329 266 328 265 c 0,50,51
 323 261 323 261 317 258.5 c 128,-1,52
 311 256 311 256 305 254 c 0,53,54
 290 248 290 248 275.5 240 c 128,-1,55
 261 232 261 232 247 224 c 2,56,-1
 241 219 l 2,57,58
 236 215 236 215 230 210.5 c 128,-1,59
 224 206 224 206 218 203 c 0,60,61
 209 197 209 197 209 187 c 0,62,63
 207 173 207 173 213 160 c 0,64,65
 218 147 218 147 220 130 c 0,66,67
 220 124 220 124 221 121 c 0,68,69
 223 118 223 118 223.5 114.5 c 128,-1,70
 224 111 224 111 225 108 c 2,71,-1
 228 89 l 2,72,73
 231 69 231 69 222 51 c 0,74,75
 221 50 221 50 219 46 c 0,76,77
 210 31 210 31 207 13 c 0,78,79
 206 8 206 8 204 3.5 c 128,-1,80
 202 -1 202 -1 198 -6 c 256,81,82
 194 -11 194 -11 186 -12 c 128,-1,83
 178 -13 178 -13 172 -5 c 0,84,85
 168 2 168 2 166 13 c 0,86,87
 164 23 164 23 162 29 c 0,88,89
 160 37 160 37 155 41 c 0,90,91
 147 52 147 52 140 69 c 0,92,93
 136 80 136 80 134 91 c 128,-1,94
 132 102 132 102 130 113 c 0,95,96
 127 128 127 128 124 143 c 128,-1,97
 121 158 121 158 117 173 c 0,98,99
 114 186 114 186 110.5 198.5 c 128,-1,100
 107 211 107 211 104 224 c 2,101,-1
 86 298 l 2,102,103
 85 309 85 309 80 319 c 0,104,105
 78 327 78 327 75 335.5 c 128,-1,106
 72 344 72 344 70 352 c 0,107,108
 69 355 69 355 68 358.5 c 128,-1,109
 67 362 67 362 66 365 c 0,110,111
 65 370 65 370 63.5 375 c 128,-1,112
 62 380 62 380 59 385 c 2,113,-1
 56 396 l 2,114,115
 54 404 54 404 52 412 c 128,-1,116
 50 420 50 420 48 427 c 2,117,-1
 47 431 l 2,118,119
 47 437 47 437 46 443 c 128,-1,120
 45 449 45 449 44 456 c 0,121,122
 44 457 44 457 43.5 457.5 c 128,-1,123
 43 458 43 458 43 459 c 0,124,125
 42 473 42 473 41 487.5 c 128,-1,126
 40 502 40 502 40 516 c 0,127,128
 39 525 39 525 40 527 c 128,-1,129
 41 529 41 529 45 536 c 0,130,131
 48 541 48 541 52 547 c 0,132,133
 52 549 52 549 54 549 c 0,134,135
 58 550 58 550 61 552.5 c 128,-1,136
 64 555 64 555 67 557 c 0,137,138
 78 564 78 564 94 564 c 0,139,140
 97 564 97 564 98 563 c 0,141,142
 101 562 101 562 103.5 561 c 128,-1,143
 106 560 106 560 109 558 c 0,144,145
 115 556 115 556 119.5 551 c 128,-1,146
 124 546 124 546 128 541 c 0,147,148
 135 526 135 526 136 513 c 0,149,150
 138 501 138 501 142 489 c 2,151,-1
 145 475 l 2,152,153
 147 465 147 465 150 455 c 128,-1,154
 153 445 153 445 155 435 c 0,155,156
 158 421 158 421 160.5 406.5 c 128,-1,157
 163 392 163 392 166 378 c 2,158,-1
 169 360 l 2,159,160
 169 359 169 359 169.5 357.5 c 128,-1,161
 170 356 170 356 170 355 c 0,162,163
 172 350 172 350 176 350 c 0,164,165
 186 349 186 349 196 348 c 128,-1,166
 206 347 206 347 216 349 c 0,167,168
 233 351 233 351 249 354 c 128,-1,169
 265 357 265 357 281 360 c 0,170,171
 302 364 302 364 322.5 368.5 c 128,-1,172
 343 373 343 373 364 378 c 2,173,-1
 384 383 l 2,174,175
 389 385 389 385 389 390 c 0,176,177
 388 393 388 393 388 396 c 128,-1,178
 388 399 388 399 387 402 c 0,179,180
 382 416 382 416 381 428 c 0,181,182
 380 433 380 433 379 438.5 c 128,-1,183
 378 444 378 444 377 449 c 0,184,185
 374 466 374 466 371.5 483.5 c 128,-1,186
 369 501 369 501 367 518 c 0,187,188
 366 526 366 526 365.5 533.5 c 128,-1,189
 365 541 365 541 363 548 c 0,190,191
 362 559 362 559 361.5 570.5 c 128,-1,192
 361 582 361 582 361 592 c 0,193,194
 361 594 361 594 361.5 596 c 128,-1,195
 362 598 362 598 363 600 c 0,196,197
 364 604 364 604 365 607.5 c 128,-1,198
 366 611 366 611 367 615 c 0,199,200
 369 621 369 621 371.5 625.5 c 128,-1,201
 374 630 374 630 377 634 c 0,202,203
 382 637 382 637 385 642 c 0,204,205
 390 647 390 647 394 648 c 2,206,-1
 403 651 l 2,207,208
 406 653 406 653 409.5 652.5 c 128,-1,209
 413 652 413 652 416 651 c 0,210,211
 419 651 419 651 425 649 c 0,212,213
 428 648 428 648 431 646 c 128,-1,214
 434 644 434 644 436 641 c 0,215,216
 438 637 438 637 441.5 633.5 c 128,-1,217
 445 630 445 630 446 625 c 0,218,219
 448 622 448 622 451 622 c 0,220,221
 454 621 454 621 456 616 c 0,222,223
 456 615 456 615 456.5 614 c 128,-1,224
 457 613 457 613 457 611 c 0,225,226
 459 603 459 603 461 594.5 c 128,-1,227
 463 586 463 586 464 578 c 0,228,229
 464 575 464 575 464.5 572 c 128,-1,230
 465 569 465 569 464 565 c 2,231,-1
 464 557 l 2,232,233
 465 549 465 549 466 540.5 c 128,-1,234
 467 532 467 532 468 524 c 0,235,236
 469 523 469 523 469 519 c 0,237,238
 472 515 472 515 473 509 c 128,-1,239
 474 503 474 503 475 498 c 256,240,241
 476 493 476 493 476.5 487.5 c 128,-1,242
 477 482 477 482 479 477 c 0,243,244
 480 475 480 475 480 471 c 256,245,246
 480 467 480 467 480.5 463.5 c 128,-1,247
 481 460 481 460 481 456 c 256,248,249
 481 452 481 452 482 451 c 256,250,251
 483 450 483 450 484.5 448.5 c 128,-1,252
 486 447 486 447 485 445 c 0,253,254
 485 443 485 443 484.5 441 c 128,-1,255
 484 439 484 439 484 437 c 2,256,-1
 484 432 l 2,257,258
 486 427 486 427 487 421 c 128,-1,259
 488 415 488 415 489 410 c 0,260,261
 489 404 489 404 493 403 c 2,262,-1
 496 400 l 2,263,264
 498 398 498 398 498 393 c 0,265,266
 496 391 496 391 496 389 c 0,267,268
 495 387 495 387 496 384 c 0,269,270
 499 381 499 381 498 378 c 0,271,272
 496 375 496 375 498 373 c 0,273,274
 500 370 500 370 500 364 c 1,275,-1
 500 365 l 1,276,277
 501 364 501 364 503 364 c 0,278,279
 508 362 508 362 506 357 c 0,280,281
 506 355 506 355 504 353 c 0,282,283
 501 350 501 350 502 348 c 0,284,285
 505 334 505 334 508 320 c 128,-1,286
 511 306 511 306 513 292 c 2,287,-1
 516 268 l 2,288,289
 518 260 518 260 519 252 c 128,-1,290
 520 244 520 244 522 236 c 0,291,292
 522 231 522 231 524 223 c 0,293,294
 524 221 524 221 528 221 c 1,295,296
 528 222 528 222 529 222 c 128,-1,297
 530 222 530 222 530 221 c 0,298,299
 531 220 531 220 533 216 c 2,300,-1
 536 203 l 2,301,302
 537 201 537 201 537 198.5 c 128,-1,303
 537 196 537 196 538 194 c 0,304,305
 539 188 539 188 534 184 c 0,306,307
 531 183 531 183 531 180 c 0,308,309
 531 179 531 179 531.5 179 c 128,-1,310
 532 179 532 179 532 178 c 1,311,312
 532 178 532 178 532.5 178 c 128,-1,313
 533 178 533 178 533 179 c 1,314,-1
 534 179 l 2,315,316
 536 180 536 180 538 179.5 c 128,-1,317
 540 179 540 179 540 177 c 0,318,319
 541 173 541 173 542 168 c 128,-1,320
 543 163 543 163 542 162 c 2,321,322
 542 162 542 162 541.5 161.5 c 128,-1,323
 541 161 541 161 540 161 c 0,324,325
 536 161 536 161 536 152 c 0,326,327
 537 142 537 142 542 133 c 2,328,-1
 548 124 l 2,329,330
 556 110 556 110 556 93 c 0,331,332
 556 91 556 91 554 89 c 0,333,334
 551 86 551 86 551 82 c 0,335,336
 551 76 551 76 552 72 c 0,337,338
 552 65 552 65 549 62 c 0,339,340
 546 58 546 58 546 52 c 0,341,342
 545 43 545 43 540 34 c 0,343,344
 531 16 531 16 531 -6 c 0,345,346
 530 -10 530 -10 530 -14 c 128,-1,347
 530 -18 530 -18 530 -23 c 0,348,349
 529 -27 529 -27 529 -36 c 2,350,-1
 529 -49 l 2,351,352
 528 -53 528 -53 527 -57 c 128,-1,353
 526 -61 526 -61 524 -65 c 0,354,355
 521 -69 521 -69 516 -71 c 0,356,357
 515 -71 515 -71 514 -71.5 c 128,-1,358
 513 -72 513 -72 511 -72 c 0,0,1
EndSplineSet
EndChar

StartChar: I
Encoding: 73 73 22
Width: 272
GlyphClass: 2
Flags: W
AnchorPoint: "Anchor-1" 136 0 basechar 0
AnchorPoint: "Anchor-0" 105 638 basechar 0
LayerCount: 2
Fore
SplineSet
187 -10 m 0,0,1
 186 -10 186 -10 184.5 -9.5 c 128,-1,2
 183 -9 183 -9 181 -9 c 0,3,4
 174 -9 174 -9 171 -3 c 0,5,6
 167 4 167 4 163 9 c 128,-1,7
 159 14 159 14 154 19 c 256,8,9
 149 24 149 24 145.5 30 c 128,-1,10
 142 36 142 36 139 42 c 0,11,12
 136 47 136 47 136 52 c 2,13,-1
 136 62 l 2,14,15
 136 67 136 67 135.5 72.5 c 128,-1,16
 135 78 135 78 134 83 c 0,17,18
 132 91 132 91 130.5 100 c 128,-1,19
 129 109 129 109 127 117 c 0,20,21
 127 119 127 119 126.5 121.5 c 128,-1,22
 126 124 126 124 126 126 c 0,23,24
 125 137 125 137 123 148.5 c 128,-1,25
 121 160 121 160 119 171 c 0,26,27
 116 191 116 191 112.5 210.5 c 128,-1,28
 109 230 109 230 106 249 c 2,29,-1
 100 282 l 2,30,31
 99 290 99 290 94 299 c 0,32,33
 88 310 88 310 85 323 c 0,34,35
 84 329 84 329 82 334.5 c 128,-1,36
 80 340 80 340 78 346 c 0,37,38
 75 356 75 356 72 366 c 128,-1,39
 69 376 69 376 67 386 c 0,40,41
 66 394 66 394 64 402 c 128,-1,42
 62 410 62 410 60 418 c 2,43,-1
 54 445 l 2,44,45
 54 447 54 447 53 448 c 0,46,47
 52 462 52 462 49 476.5 c 128,-1,48
 46 491 46 491 43 505 c 0,49,50
 42 513 42 513 40.5 524.5 c 128,-1,51
 39 536 39 536 40 543 c 2,52,-1
 40 553 l 2,53,54
 42 567 42 567 49 579 c 0,55,56
 57 593 57 593 75 601 c 0,57,58
 80 603 80 603 85 604 c 128,-1,59
 90 605 90 605 94 606 c 0,60,61
 105 607 105 607 115 603.5 c 128,-1,62
 125 600 125 600 135 594 c 0,63,64
 138 592 138 592 140 589 c 0,65,66
 143 584 143 584 146.5 579 c 128,-1,67
 150 574 150 574 151 568 c 0,68,69
 153 562 153 562 155.5 556 c 128,-1,70
 158 550 158 550 161 545 c 0,71,72
 166 535 166 535 168 524 c 128,-1,73
 170 513 170 513 172 502 c 0,74,75
 175 487 175 487 175 470 c 2,76,-1
 175 465 l 2,77,78
 177 455 177 455 177 445.5 c 128,-1,79
 177 436 177 436 177 426 c 0,80,81
 178 410 178 410 180 394.5 c 128,-1,82
 182 379 182 379 184 362 c 2,83,-1
 190 315 l 1,84,-1
 190 313 l 2,85,86
 192 302 192 302 194.5 290.5 c 128,-1,87
 197 279 197 279 198 268 c 0,88,89
 201 251 201 251 204.5 233.5 c 128,-1,90
 208 216 208 216 210 199 c 2,91,-1
 216 157 l 2,92,93
 218 147 218 147 219.5 137 c 128,-1,94
 221 127 221 127 223 117 c 256,95,96
 225 107 225 107 226.5 97.5 c 128,-1,97
 228 88 228 88 230 78 c 0,98,99
 231 74 231 74 231.5 70.5 c 128,-1,100
 232 67 232 67 232 63 c 0,101,102
 233 48 233 48 227 34 c 0,103,104
 226 30 226 30 222 26 c 0,105,106
 218 20 218 20 215 18 c 0,107,108
 207 10 207 10 203 1 c 0,109,110
 203 0 203 0 201.5 -2 c 128,-1,111
 200 -4 200 -4 198 -6 c 0,112,113
 194 -10 194 -10 187 -10 c 0,0,1
EndSplineSet
EndChar

StartChar: J
Encoding: 74 74 27
Width: 467
GlyphClass: 2
Flags: W
AnchorPoint: "Anchor-1" 234 0 basechar 0
AnchorPoint: "Anchor-0" 353 731 basechar 0
LayerCount: 2
Fore
SplineSet
214 -393 m 0,0,1
 199 -390 199 -390 197 -376 c 0,2,3
 196 -373 196 -373 196 -368 c 0,4,5
 196 -361 196 -361 195.5 -354.5 c 128,-1,6
 195 -348 195 -348 194 -342 c 2,7,-1
 194 -329 l 2,8,9
 193 -320 193 -320 193.5 -310.5 c 128,-1,10
 194 -301 194 -301 192 -292 c 0,11,12
 190 -289 190 -289 192 -287 c 0,13,14
 193 -278 193 -278 193 -269 c 128,-1,15
 193 -260 193 -260 194 -252 c 0,16,17
 197 -242 197 -242 195 -232 c 0,18,19
 194 -227 194 -227 194.5 -222.5 c 128,-1,20
 195 -218 195 -218 195 -214 c 2,21,-1
 195 -206 l 2,22,23
 194 -191 194 -191 194 -175.5 c 128,-1,24
 194 -160 194 -160 194 -144 c 2,25,-1
 194 -137 l 2,26,27
 196 -129 196 -129 196 -121 c 128,-1,28
 196 -113 196 -113 196 -105 c 0,29,30
 195 -101 195 -101 195 -97.5 c 128,-1,31
 195 -94 195 -94 195 -90 c 0,32,33
 194 -84 194 -84 194 -78.5 c 128,-1,34
 194 -73 194 -73 194 -67 c 2,35,-1
 191 -51 l 2,36,37
 187 -40 187 -40 182 -30 c 128,-1,38
 177 -20 177 -20 172 -10 c 0,39,40
 168 -3 168 -3 162.5 2.5 c 128,-1,41
 157 8 157 8 152 12 c 0,42,43
 142 20 142 20 132 29 c 0,44,45
 127 34 127 34 122 38.5 c 128,-1,46
 117 43 117 43 112 47 c 0,47,48
 107 52 107 52 101.5 58 c 128,-1,49
 96 64 96 64 90 69 c 0,50,51
 85 74 85 74 81 80.5 c 128,-1,52
 77 87 77 87 74 94 c 0,53,54
 72 99 72 99 70 104 c 128,-1,55
 68 109 68 109 66 114 c 256,56,57
 64 119 64 119 62.5 124 c 128,-1,58
 61 129 61 129 59 133 c 0,59,60
 56 142 56 142 53.5 150.5 c 128,-1,61
 51 159 51 159 49 168 c 0,62,63
 46 179 46 179 44.5 190.5 c 128,-1,64
 43 202 43 202 42 214 c 0,65,66
 42 219 42 219 41.5 223 c 128,-1,67
 41 227 41 227 41 231 c 0,68,69
 40 250 40 250 41 268 c 0,70,71
 42 271 42 271 42 278 c 0,72,73
 42 295 42 295 47 315 c 2,74,-1
 50 331 l 2,75,76
 53 344 53 344 57 354 c 0,77,78
 61 361 61 361 65.5 367 c 128,-1,79
 70 373 70 373 77 377 c 0,80,81
 85 382 85 382 93.5 384.5 c 128,-1,82
 102 387 102 387 111 388 c 0,83,84
 129 388 129 388 139 376 c 0,85,86
 144 371 144 371 144 366 c 0,87,88
 145 362 145 362 147 357.5 c 128,-1,89
 149 353 149 353 151 349 c 0,90,91
 151 345 151 345 154 345 c 2,92,-1
 156 348 l 2,93,94
 157 350 157 350 158.5 350 c 128,-1,95
 160 350 160 350 161 348 c 0,96,97
 165 341 165 341 165 332 c 0,98,99
 165 329 165 329 164 328 c 0,100,101
 164 326 164 326 163 324 c 128,-1,102
 162 322 162 322 162 320 c 0,103,104
 161 315 161 315 156 310 c 0,105,106
 152 307 152 307 152 301 c 0,107,108
 152 297 152 297 151 296 c 0,109,110
 148 294 148 294 148 290.5 c 128,-1,111
 148 287 148 287 147 283 c 0,112,113
 144 278 144 278 145 271 c 0,114,115
 145 269 145 269 144.5 266.5 c 128,-1,116
 144 264 144 264 144 261 c 0,117,118
 144 255 144 255 146 252 c 0,119,120
 148 246 148 246 148 242 c 0,121,122
 148 232 148 232 151 223 c 2,123,-1
 154 211 l 2,124,125
 154 207 154 207 156 204 c 128,-1,126
 158 201 158 201 160 198 c 0,127,128
 166 192 166 192 172.5 187 c 128,-1,129
 179 182 179 182 186 177 c 0,130,131
 193 173 193 173 200 169.5 c 128,-1,132
 207 166 207 166 214 161 c 0,133,134
 218 160 218 160 221.5 158.5 c 128,-1,135
 225 157 225 157 229 156 c 0,136,137
 246 155 246 155 260 142 c 0,138,139
 262 140 262 140 264 139 c 0,140,141
 266 137 266 137 268 139 c 2,142,-1
 274 142 l 2,143,144
 278 146 278 146 281.5 150 c 128,-1,145
 285 154 285 154 288 158 c 0,146,147
 291 163 291 163 294 168 c 128,-1,148
 297 173 297 173 300 177 c 0,149,150
 301 179 301 179 303 181 c 0,151,152
 308 195 308 195 312 208.5 c 128,-1,153
 316 222 316 222 317 236 c 0,154,155
 318 248 318 248 318 260 c 128,-1,156
 318 272 318 272 318 285 c 2,157,-1
 318 286 l 2,158,159
 320 295 320 295 319 303.5 c 128,-1,160
 318 312 318 312 317 321 c 0,161,162
 317 326 317 326 317 331.5 c 128,-1,163
 317 337 317 337 316 341 c 0,164,165
 315 350 315 350 314.5 359 c 128,-1,166
 314 368 314 368 314 376 c 2,167,-1
 311 399 l 2,168,169
 310 406 310 406 309 412.5 c 128,-1,170
 308 419 308 419 307 426 c 0,171,172
 306 432 306 432 305.5 438 c 128,-1,173
 305 444 305 444 303 450 c 0,174,175
 302 458 302 458 301 465.5 c 128,-1,176
 300 473 300 473 299 481 c 0,177,178
 298 488 298 488 297.5 494.5 c 128,-1,179
 297 501 297 501 295 508 c 2,180,-1
 294 515 l 2,181,182
 294 525 294 525 293 534 c 128,-1,183
 292 543 292 543 291 552 c 0,184,185
 291 557 291 557 290 559 c 0,186,187
 290 561 290 561 289.5 563 c 128,-1,188
 289 565 289 565 289 567 c 0,189,190
 288 584 288 584 287 601.5 c 128,-1,191
 286 619 286 619 287 637 c 0,192,193
 287 642 287 642 287.5 647 c 128,-1,194
 288 652 288 652 289 657 c 0,195,196
 291 661 291 661 291 663 c 0,197,198
 292 674 292 674 301 684 c 0,199,200
 303 687 303 687 305.5 689.5 c 128,-1,201
 308 692 308 692 311 694 c 256,202,203
 314 696 314 696 317 697.5 c 128,-1,204
 320 699 320 699 323 701 c 2,205,-1
 325 701 l 2,206,207
 329 700 329 700 332.5 701.5 c 128,-1,208
 336 703 336 703 340 703 c 0,209,210
 345 705 345 705 349 702 c 0,211,212
 351 702 351 702 353 700 c 0,213,214
 363 697 363 697 370 691 c 0,215,216
 373 685 373 685 376 679.5 c 128,-1,217
 379 674 379 674 380 667 c 0,218,219
 383 657 383 657 385 648 c 128,-1,220
 387 639 387 639 388 629 c 0,221,222
 390 614 390 614 393 599 c 128,-1,223
 396 584 396 584 397 569 c 2,224,-1
 400 546 l 2,225,226
 402 528 402 528 404.5 510 c 128,-1,227
 407 492 407 492 410 475 c 0,228,229
 411 471 411 471 411.5 468 c 128,-1,230
 412 465 412 465 412 461 c 0,231,232
 414 455 414 455 415 449 c 128,-1,233
 416 443 416 443 415 436 c 0,234,235
 415 434 415 434 416 433 c 2,236,-1
 419 401 l 2,237,238
 420 391 420 391 421.5 380 c 128,-1,239
 423 369 423 369 423 358 c 0,240,241
 423 354 423 354 424 353 c 0,242,243
 426 345 426 345 425.5 336.5 c 128,-1,244
 425 328 425 328 425 320 c 2,245,-1
 425 291 l 2,246,247
 426 280 426 280 426 269 c 128,-1,248
 426 258 426 258 427 247 c 2,249,-1
 427 241 l 2,250,251
 426 231 426 231 425 220 c 128,-1,252
 424 209 424 209 422 198 c 0,253,254
 421 193 421 193 420 187.5 c 128,-1,255
 419 182 419 182 418 176 c 0,256,257
 415 163 415 163 409 147 c 0,258,259
 408 142 408 142 405.5 136.5 c 128,-1,260
 403 131 403 131 401 126 c 0,261,262
 397 114 397 114 391 103 c 2,263,-1
 382 87 l 2,264,265
 378 81 378 81 374.5 75 c 128,-1,266
 371 69 371 69 367 64 c 256,267,268
 363 59 363 59 359.5 54.5 c 128,-1,269
 356 50 356 50 352 45 c 0,270,271
 351 44 351 44 350 42.5 c 128,-1,272
 349 41 349 41 347 39 c 0,273,274
 346 38 346 38 344 36 c 128,-1,275
 342 34 342 34 340 32 c 0,276,277
 336 28 336 28 331.5 23.5 c 128,-1,278
 327 19 327 19 322 14 c 0,279,280
 310 2 310 2 298 -6 c 2,281,-1
 277 -21 l 2,282,283
 271 -24 271 -24 267 -29.5 c 128,-1,284
 263 -35 263 -35 260 -40 c 0,285,286
 257 -44 257 -44 257 -49 c 0,287,288
 257 -62 257 -62 255.5 -74 c 128,-1,289
 254 -86 254 -86 254 -99 c 2,290,-1
 254 -157 l 2,291,292
 252 -168 252 -168 252 -180 c 128,-1,293
 252 -192 252 -192 251 -203 c 2,294,-1
 251 -216 l 2,295,296
 251 -218 251 -218 251 -221 c 128,-1,297
 251 -224 251 -224 250 -227 c 0,298,299
 250 -233 250 -233 250 -239 c 128,-1,300
 250 -245 250 -245 248 -251 c 0,301,302
 248 -253 248 -253 247.5 -255.5 c 128,-1,303
 247 -258 247 -258 247 -261 c 0,304,305
 246 -265 246 -265 246 -269 c 128,-1,306
 246 -273 246 -273 245 -278 c 2,307,-1
 245 -283 l 2,308,309
 245 -291 245 -291 244 -299.5 c 128,-1,310
 243 -308 243 -308 242 -316 c 0,311,312
 241 -323 241 -323 241 -331 c 128,-1,313
 241 -339 241 -339 239 -347 c 0,314,315
 238 -355 238 -355 236.5 -363.5 c 128,-1,316
 235 -372 235 -372 232 -380 c 0,317,318
 231 -383 231 -383 229 -386 c 128,-1,319
 227 -389 227 -389 224 -391 c 256,320,321
 221 -393 221 -393 214 -393 c 0,0,1
EndSplineSet
EndChar

StartChar: K
Encoding: 75 75 28
Width: 539
GlyphClass: 2
Flags: W
AnchorPoint: "Anchor-1" 270 0 basechar 0
AnchorPoint: "Anchor-0" 357 700 basechar 0
LayerCount: 2
Fore
SplineSet
80 -165 m 0,0,1
 69 -169 69 -169 64 -159 c 0,2,3
 59 -152 59 -152 57 -142 c 0,4,5
 57 -138 57 -138 56.5 -134.5 c 128,-1,6
 56 -131 56 -131 56 -127 c 0,7,8
 55 -125 55 -125 55 -123 c 0,9,10
 56 -115 56 -115 56 -108 c 128,-1,11
 56 -101 56 -101 57 -94 c 0,12,13
 57 -80 57 -80 57.5 -65.5 c 128,-1,14
 58 -51 58 -51 57 -36 c 0,15,16
 57 -24 57 -24 50 -10 c 0,17,18
 44 3 44 3 41 19 c 0,19,20
 40 24 40 24 40 28 c 128,-1,21
 40 32 40 32 40 36 c 0,22,23
 42 47 42 47 43 58.5 c 128,-1,24
 44 70 44 70 45 81 c 0,25,26
 47 92 47 92 47.5 103 c 128,-1,27
 48 114 48 114 49 124 c 0,28,29
 50 135 50 135 51.5 145.5 c 128,-1,30
 53 156 53 156 52 167 c 0,31,32
 54 178 54 178 54.5 188.5 c 128,-1,33
 55 199 55 199 56 209 c 0,34,35
 58 217 58 217 57.5 224.5 c 128,-1,36
 57 232 57 232 56 239 c 0,37,38
 55 244 55 244 55.5 247.5 c 128,-1,39
 56 251 56 251 56 255 c 0,40,41
 57 260 57 260 57 265.5 c 128,-1,42
 57 271 57 271 58 275 c 2,43,-1
 58 314 l 2,44,45
 57 327 57 327 57.5 339.5 c 128,-1,46
 58 352 58 352 58 365 c 0,47,48
 57 375 57 375 57.5 385.5 c 128,-1,49
 58 396 58 396 59 406 c 0,50,51
 60 409 60 409 60 412 c 128,-1,52
 60 415 60 415 60 417 c 2,53,-1
 60 451 l 2,54,55
 60 457 60 457 61 460 c 2,56,-1
 61 473 l 2,57,58
 59 476 59 476 61 481 c 0,59,60
 63 490 63 490 61 499 c 0,61,62
 60 501 60 501 60.5 503.5 c 128,-1,63
 61 506 61 506 61 509 c 0,64,65
 61 514 61 514 61.5 518.5 c 128,-1,66
 62 523 62 523 62 528 c 0,67,68
 62 532 62 532 62.5 536.5 c 128,-1,69
 63 541 63 541 64 545 c 2,70,-1
 64 549 l 2,71,72
 64 557 64 557 65 565.5 c 128,-1,73
 66 574 66 574 67 581 c 2,74,-1
 73 620 l 2,75,76
 75 630 75 630 77.5 639 c 128,-1,77
 80 648 80 648 84 657 c 0,78,79
 90 675 90 675 106 690 c 0,80,81
 111 694 111 694 116.5 697 c 128,-1,82
 122 700 122 700 129 700 c 0,83,84
 130 701 130 701 132 701 c 0,85,86
 139 703 139 703 145 702 c 128,-1,87
 151 701 151 701 157 699 c 0,88,89
 171 696 171 696 178 684 c 0,90,91
 183 677 183 677 183 671 c 0,92,93
 183 666 183 666 184 663 c 0,94,95
 187 650 187 650 186 639 c 0,96,97
 186 635 186 635 186.5 631 c 128,-1,98
 187 627 187 627 188 622 c 0,99,100
 190 617 190 617 190 611.5 c 128,-1,101
 190 606 190 606 190 601 c 0,102,103
 190 594 190 594 189 587.5 c 128,-1,104
 188 581 188 581 187 574 c 0,105,106
 186 570 186 570 185.5 565.5 c 128,-1,107
 185 561 185 561 183 556 c 0,108,109
 182 549 182 549 180.5 542 c 128,-1,110
 179 535 179 535 178 528 c 2,111,-1
 178 524 l 2,112,113
 176 514 176 514 175 503.5 c 128,-1,114
 174 493 174 493 172 483 c 0,115,116
 171 480 171 480 171 477 c 128,-1,117
 171 474 171 474 171 472 c 0,118,119
 171 469 171 469 171 466 c 128,-1,120
 171 463 171 463 170 460 c 0,121,122
 169 454 169 454 169 448 c 128,-1,123
 169 442 169 442 168 435 c 0,124,125
 168 434 168 434 168.5 434 c 128,-1,126
 169 434 169 434 169 433 c 256,127,128
 169 432 169 432 170.5 431 c 128,-1,129
 172 430 172 430 173 431 c 0,130,131
 177 433 177 433 180 436 c 0,132,133
 191 445 191 445 203 454 c 128,-1,134
 215 463 215 463 227 472 c 0,135,136
 238 480 238 480 249 488 c 128,-1,137
 260 496 260 496 271 504 c 1,138,139
 271 504 271 504 271.5 504 c 128,-1,140
 272 504 272 504 273 505 c 0,141,142
 283 513 283 513 292.5 521 c 128,-1,143
 302 529 302 529 311 537 c 0,144,145
 322 547 322 547 332.5 557 c 128,-1,146
 343 567 343 567 352 578 c 0,147,148
 354 580 354 580 356 582 c 128,-1,149
 358 584 358 584 360 586 c 2,150,-1
 393 622 l 2,151,152
 401 631 401 631 414 641 c 0,153,154
 419 645 419 645 425 646 c 0,155,156
 427 646 427 646 428 646.5 c 128,-1,157
 429 647 429 647 430 646 c 0,158,159
 435 646 435 646 439 645.5 c 128,-1,160
 443 645 443 645 447 644 c 0,161,162
 450 643 450 643 456 643 c 0,163,164
 461 645 461 645 463 640 c 0,165,166
 463 639 463 639 465 639 c 0,167,168
 466 639 466 639 470 641 c 0,169,170
 473 641 473 641 473 639 c 0,171,172
 476 633 476 633 482 630 c 0,173,174
 482 629 482 629 482.5 629 c 128,-1,175
 483 629 483 629 483 629 c 1,176,-1
 483 626 l 2,177,178
 483 621 483 621 487 620 c 0,179,180
 488 620 488 620 488.5 619.5 c 128,-1,181
 489 619 489 619 489 619 c 2,182,183
 491 618 491 618 493 614 c 0,184,185
 493 607 493 607 496 599 c 0,186,187
 502 582 502 582 495 566 c 0,188,189
 488 548 488 548 475 531 c 2,190,-1
 450 498 l 2,191,192
 446 493 446 493 441 488 c 128,-1,193
 436 483 436 483 431 479 c 0,194,195
 426 474 426 474 424 471 c 0,196,197
 422 469 422 469 420 467 c 128,-1,198
 418 465 418 465 416 463 c 0,199,200
 411 456 411 456 404 452 c 0,201,202
 399 448 399 448 393 444.5 c 128,-1,203
 387 441 387 441 382 436 c 0,204,205
 377 432 377 432 370.5 429.5 c 128,-1,206
 364 427 364 427 358 425 c 0,207,208
 353 422 353 422 346 424 c 2,209,-1
 345 424 l 1,210,211
 332 428 332 428 318 419 c 0,212,213
 315 417 315 417 311.5 415 c 128,-1,214
 308 413 308 413 304 411 c 0,215,216
 297 405 297 405 288 400 c 0,217,218
 284 398 284 398 281 395.5 c 128,-1,219
 278 393 278 393 275 391 c 0,220,221
 267 385 267 385 258 379.5 c 128,-1,222
 249 374 249 374 241 368 c 2,223,-1
 221 356 l 2,224,225
 218 354 218 354 214.5 351.5 c 128,-1,226
 211 349 211 349 207 346 c 0,227,228
 205 344 205 344 207 342 c 2,229,-1
 219 333 l 2,230,231
 232 326 232 326 244 317.5 c 128,-1,232
 256 309 256 309 268 300 c 0,233,234
 279 292 279 292 289.5 283.5 c 128,-1,235
 300 275 300 275 311 267 c 0,236,237
 313 266 313 266 315.5 264 c 128,-1,238
 318 262 318 262 319 260 c 0,239,240
 330 251 330 251 339.5 242.5 c 128,-1,241
 349 234 349 234 359 225 c 0,242,243
 376 209 376 209 394 194.5 c 128,-1,244
 412 180 412 180 428 163 c 2,245,-1
 437 154 l 2,246,247
 443 147 443 147 449.5 141.5 c 128,-1,248
 456 136 456 136 463 130 c 0,249,250
 469 127 469 127 472 122 c 2,251,-1
 475 119 l 2,252,253
 482 112 482 112 484 104 c 128,-1,254
 486 96 486 96 485 86 c 2,255,-1
 484 79 l 2,256,257
 485 72 485 72 480 68 c 0,258,259
 477 67 477 67 477 60 c 0,260,261
 477 56 477 56 473 56 c 0,262,263
 469 55 469 55 466 52 c 0,264,265
 459 46 459 46 449 43 c 2,266,-1
 441 40 l 2,267,268
 437 38 437 38 435 39 c 0,269,270
 431 41 431 41 426 43 c 128,-1,271
 421 45 421 45 416 46 c 0,272,273
 414 47 414 47 410 51 c 0,274,275
 405 56 405 56 400 61.5 c 128,-1,276
 395 67 395 67 390 73 c 0,277,278
 383 81 383 81 375 89 c 128,-1,279
 367 97 367 97 359 104 c 2,280,-1
 327 131 l 2,281,282
 316 142 316 142 304 151 c 128,-1,283
 292 160 292 160 279 170 c 0,284,285
 277 172 277 172 270 174 c 0,286,287
 267 174 267 174 264 175.5 c 128,-1,288
 261 177 261 177 258 178 c 0,289,290
 251 181 251 181 244.5 184 c 128,-1,291
 238 187 238 187 231 191 c 0,292,293
 225 195 225 195 219 199 c 128,-1,294
 213 203 213 203 207 207 c 0,295,296
 200 213 200 213 191.5 218.5 c 128,-1,297
 183 224 183 224 175 229 c 0,298,299
 174 230 174 230 172.5 230 c 128,-1,300
 171 230 171 230 169 231 c 0,301,302
 165 233 165 233 163 228 c 0,303,304
 161 226 161 226 159 220 c 2,305,-1
 156 204 l 2,306,307
 155 195 155 195 153.5 185.5 c 128,-1,308
 152 176 152 176 151 167 c 0,309,310
 150 160 150 160 149 153.5 c 128,-1,311
 148 147 148 147 147 141 c 256,312,313
 146 135 146 135 145 129 c 128,-1,314
 144 123 144 123 142 117 c 0,315,316
 141 113 141 113 141 108.5 c 128,-1,317
 141 104 141 104 141 99 c 2,318,-1
 141 66 l 2,319,320
 141 54 141 54 139 42.5 c 128,-1,321
 137 31 137 31 135 20 c 0,322,323
 132 0 132 0 120 -13 c 0,324,325
 113 -23 113 -23 110 -36 c 0,326,327
 106 -54 106 -54 104 -74 c 0,328,329
 103 -78 103 -78 103 -82.5 c 128,-1,330
 103 -87 103 -87 102 -92 c 0,331,332
 101 -96 101 -96 101 -101.5 c 128,-1,333
 101 -107 101 -107 100 -112 c 0,334,335
 99 -120 99 -120 98.5 -128.5 c 128,-1,336
 98 -137 98 -137 96 -145 c 0,337,338
 95 -152 95 -152 90 -158 c 0,339,340
 86 -163 86 -163 80 -165 c 0,0,1
EndSplineSet
EndChar

StartChar: L
Encoding: 76 76 29
Width: 521
GlyphClass: 2
Flags: W
AnchorPoint: "Anchor-1" 261 0 basechar 0
AnchorPoint: "Anchor-0" 312 680 basechar 0
LayerCount: 2
Fore
SplineSet
420 -118 m 0,0,1
 410 -117 410 -117 405 -106 c 0,2,3
 404 -105 404 -105 404 -101 c 0,4,5
 403 -93 403 -93 401.5 -85 c 128,-1,6
 400 -77 400 -77 401 -69 c 2,7,-1
 401 -64 l 2,8,9
 400 -55 400 -55 400 -46 c 128,-1,10
 400 -37 400 -37 399 -29 c 0,11,12
 397 -12 397 -12 387 -3 c 2,13,-1
 378 6 l 2,14,15
 373 12 373 12 365 10 c 0,16,17
 359 9 359 9 353.5 9 c 128,-1,18
 348 9 348 9 342 10 c 0,19,20
 338 10 338 10 333.5 9.5 c 128,-1,21
 329 9 329 9 324 9 c 0,22,23
 320 9 320 9 315.5 9.5 c 128,-1,24
 311 10 311 10 307 9 c 256,25,26
 303 8 303 8 299.5 8 c 128,-1,27
 296 8 296 8 293 8 c 2,28,-1
 259 8 l 2,29,30
 248 8 248 8 236 5 c 2,31,-1
 212 -1 l 2,32,33
 200 -5 200 -5 188 -7 c 0,34,35
 184 -8 184 -8 180 -9 c 128,-1,36
 176 -10 176 -10 172 -12 c 0,37,38
 157 -19 157 -19 143 -20 c 0,39,40
 134 -22 134 -22 130 -28 c 2,41,-1
 125 -34 l 2,42,43
 123 -35 123 -35 121 -36.5 c 128,-1,44
 119 -38 119 -38 117 -40 c 0,45,46
 110 -44 110 -44 102 -40 c 0,47,48
 93 -35 93 -35 91 -29 c 0,49,50
 91 -28 91 -28 90.5 -27.5 c 128,-1,51
 90 -27 90 -27 90 -26 c 0,52,53
 83 -9 83 -9 67 4 c 0,54,55
 63 7 63 7 60 11 c 0,56,57
 59 14 59 14 57 16.5 c 128,-1,58
 55 19 55 19 53 21 c 2,59,-1
 47 30 l 2,60,61
 43 37 43 37 44 46 c 0,62,63
 45 51 45 51 45.5 56.5 c 128,-1,64
 46 62 46 62 47 67 c 2,65,-1
 47 73 l 2,66,67
 47 84 47 84 47 95.5 c 128,-1,68
 47 107 47 107 48 117 c 2,69,-1
 48 127 l 2,70,71
 50 131 50 131 49.5 134.5 c 128,-1,72
 49 138 49 138 49 142 c 0,73,74
 50 155 50 155 49.5 167.5 c 128,-1,75
 49 180 49 180 50 193 c 2,76,-1
 53 238 l 2,77,78
 54 249 54 249 54.5 259 c 128,-1,79
 55 269 55 269 55 279 c 2,80,-1
 55 282 l 2,81,82
 57 294 57 294 57 306 c 128,-1,83
 57 318 57 318 57 331 c 2,84,-1
 57 400 l 2,85,86
 56 411 56 411 55.5 422 c 128,-1,87
 55 433 55 433 55 444 c 0,88,89
 55 456 55 456 54 468.5 c 128,-1,90
 53 481 53 481 51 494 c 0,91,92
 50 502 50 502 48.5 511 c 128,-1,93
 47 520 47 520 47 529 c 0,94,95
 47 531 47 531 46.5 533 c 128,-1,96
 46 535 46 535 46 537 c 0,97,98
 40 564 40 564 40 592 c 2,99,-1
 40 634 l 2,100,101
 40 641 40 641 40.5 647.5 c 128,-1,102
 41 654 41 654 42 661 c 0,103,104
 44 673 44 673 50 679 c 2,105,-1
 55 685 l 2,106,107
 61 693 61 693 69 696.5 c 128,-1,108
 77 700 77 700 86 701 c 2,109,-1
 93 701 l 2,110,111
 108 701 108 701 117 690 c 0,112,113
 119 689 119 689 120 688 c 128,-1,114
 121 687 121 687 122 686 c 0,115,116
 127 682 127 682 128 677 c 0,117,118
 133 667 133 667 133.5 664 c 128,-1,119
 134 661 134 661 134 650 c 2,120,-1
 134 643 l 2,121,122
 134 636 134 636 134 629.5 c 128,-1,123
 134 623 134 623 135 616 c 0,124,125
 136 614 136 614 136 610 c 0,126,127
 136 603 136 603 136.5 596 c 128,-1,128
 137 589 137 589 138 582 c 0,129,130
 139 572 139 572 140 562.5 c 128,-1,131
 141 553 141 553 141 542 c 0,132,133
 141 540 141 540 141.5 537.5 c 128,-1,134
 142 535 142 535 142 533 c 0,135,136
 142 532 142 532 142.5 530.5 c 128,-1,137
 143 529 143 529 143 527 c 2,138,-1
 146 476 l 2,139,140
 147 471 147 471 147 465.5 c 128,-1,141
 147 460 147 460 147 454 c 0,142,143
 148 453 148 453 148 449 c 0,144,145
 147 444 147 444 147 438.5 c 128,-1,146
 147 433 147 433 148 428 c 2,147,-1
 148 362 l 2,148,149
 147 356 147 356 148 350 c 2,150,-1
 148 344 l 2,151,152
 147 336 147 336 147 327.5 c 128,-1,153
 147 319 147 319 146 310 c 0,154,155
 146 303 146 303 146 295.5 c 128,-1,156
 146 288 146 288 145 280 c 0,157,158
 144 276 144 276 144 271 c 128,-1,159
 144 266 144 266 144 261 c 0,160,161
 144 257 144 257 143.5 251.5 c 128,-1,162
 143 246 143 246 142 241 c 2,163,-1
 142 238 l 2,164,165
 141 228 141 228 140.5 218 c 128,-1,166
 140 208 140 208 139 197 c 0,167,168
 138 192 138 192 138 186 c 128,-1,169
 138 180 138 180 137 174 c 0,170,171
 136 170 136 170 136 164 c 0,172,173
 136 159 136 159 136 154 c 128,-1,174
 136 149 136 149 135 144 c 0,175,176
 134 133 134 133 134 122.5 c 128,-1,177
 134 112 134 112 134 101 c 2,178,-1
 134 100 l 2,179,180
 136 95 136 95 139 95 c 2,181,-1
 159 92 l 2,182,183
 183 89 183 89 206 89 c 0,184,185
 212 89 212 89 216 90 c 0,186,187
 221 91 221 91 227 91 c 128,-1,188
 233 91 233 91 238 92 c 2,189,-1
 266 92 l 2,190,191
 273 92 273 92 280 93.5 c 128,-1,192
 287 95 287 95 294 96 c 2,193,-1
 299 96 l 2,194,195
 310 96 310 96 321 97.5 c 128,-1,196
 332 99 332 99 343 99 c 2,197,-1
 376 99 l 2,198,199
 390 99 390 99 400 105 c 0,200,201
 408 108 408 108 415.5 109 c 128,-1,202
 423 110 423 110 431 111 c 0,203,204
 443 111 443 111 452 105 c 0,205,206
 472 93 472 93 478 72 c 0,207,208
 480 65 480 65 480.5 57 c 128,-1,209
 481 49 481 49 480 41 c 0,210,211
 479 32 479 32 476 24.5 c 128,-1,212
 473 17 473 17 468 9 c 2,213,-1
 459 -4 l 2,214,215
 453 -15 453 -15 450 -26 c 0,216,217
 449 -35 449 -35 447 -43.5 c 128,-1,218
 445 -52 445 -52 445 -61 c 0,219,220
 445 -65 445 -65 444.5 -69 c 128,-1,221
 444 -73 444 -73 444 -77 c 0,222,223
 443 -81 443 -81 443 -84 c 128,-1,224
 443 -87 443 -87 443 -91 c 0,225,226
 443 -99 443 -99 438 -109 c 0,227,228
 432 -119 432 -119 420 -118 c 0,0,1
EndSplineSet
Substitution2: "'ss04' Style Set 4 lookup 13 subtable" L.ss04
Substitution2: "'ss03' Style Set 3 lookup 12 subtable" L.ss03
Substitution2: "'ss02' Style Set 2 lookup 11 subtable" L.ss02
Substitution2: "'ss01' Style Set 1 lookup 10 subtable" L.ss01
Substitution2: "'salt' Stylistic Alternatives lookup 9 subtable" L.ss01
AlternateSubs2: "'aalt' Access All Alternates lookup 1 subtable" L.ss01 L.ss02 L.ss03 L.ss04
EndChar

StartChar: M
Encoding: 77 77 30
Width: 662
GlyphClass: 2
Flags: W
AnchorPoint: "Anchor-1" 332 180 basechar 0
AnchorPoint: "Anchor-0" 356 640 basechar 0
LayerCount: 2
Fore
SplineSet
98 -80 m 0,0,1
 87 -78 87 -78 83 -70 c 0,2,3
 80 -64 80 -64 78.5 -57.5 c 128,-1,4
 77 -51 77 -51 76 -45 c 0,5,6
 75 -37 75 -37 74 -28.5 c 128,-1,7
 73 -20 73 -20 72 -12 c 0,8,9
 71 -2 71 -2 69 7 c 128,-1,10
 67 16 67 16 63 26 c 0,11,12
 62 29 62 29 61 31.5 c 128,-1,13
 60 34 60 34 58 37 c 2,14,-1
 46 62 l 2,15,16
 41 72 41 72 41 82 c 0,17,18
 40 95 40 95 40 107 c 128,-1,19
 40 119 40 119 41 131 c 0,20,21
 41 135 41 135 43 141 c 0,22,23
 45 151 45 151 47.5 160.5 c 128,-1,24
 50 170 50 170 51 179 c 0,25,26
 53 191 53 191 55 202.5 c 128,-1,27
 57 214 57 214 58 225 c 0,28,29
 60 236 60 236 61 247 c 128,-1,30
 62 258 62 258 63 269 c 0,31,32
 64 277 64 277 65 284.5 c 128,-1,33
 66 292 66 292 67 299 c 0,34,35
 68 302 68 302 68 308 c 0,36,37
 68 313 68 313 69 318.5 c 128,-1,38
 70 324 70 324 71 329 c 0,39,40
 73 337 73 337 73.5 345.5 c 128,-1,41
 74 354 74 354 75 362 c 0,42,43
 76 365 76 365 76 370 c 0,44,45
 79 381 79 381 80.5 393 c 128,-1,46
 82 405 82 405 83 417 c 2,47,-1
 86 434 l 2,48,49
 88 445 88 445 89 456.5 c 128,-1,50
 90 468 90 468 91 479 c 0,51,52
 93 490 93 490 93 501.5 c 128,-1,53
 93 513 93 513 93 524 c 0,54,55
 93 530 93 530 93.5 535.5 c 128,-1,56
 94 541 94 541 95 547 c 0,57,58
 97 573 97 573 91 597 c 0,59,60
 90 598 90 598 90 599 c 0,61,62
 86 612 86 612 89 623 c 128,-1,63
 92 634 92 634 99 644 c 0,64,65
 111 664 111 664 133 668 c 0,66,67
 137 669 137 669 140 669.5 c 128,-1,68
 143 670 143 670 147 669 c 0,69,70
 151 667 151 667 154 667 c 0,71,72
 163 666 163 666 171 659 c 2,73,-1
 180 647 l 2,74,75
 187 635 187 635 193 629 c 0,76,77
 209 609 209 609 221 586 c 0,78,79
 228 573 228 573 233.5 560.5 c 128,-1,80
 239 548 239 548 245 536 c 0,81,82
 248 529 248 529 250.5 523 c 128,-1,83
 253 517 253 517 256 511 c 0,84,85
 258 508 258 508 262 504 c 0,86,87
 266 498 266 498 266 495 c 0,88,89
 268 491 268 491 265 488 c 0,90,91
 264 487 264 487 265 485 c 128,-1,92
 266 483 266 483 267 481 c 0,93,94
 268 480 268 480 271 469.5 c 128,-1,95
 274 459 274 459 273 462 c 1,96,97
 275 457 275 457 279 457 c 0,98,99
 282 456 282 456 283 453 c 0,100,101
 284 451 284 451 280 448 c 0,102,103
 277 447 277 447 280 440.5 c 128,-1,104
 283 434 283 434 284 432 c 0,105,106
 288 422 288 422 291 412.5 c 128,-1,107
 294 403 294 403 298 393 c 0,108,109
 303 380 303 380 307 366 c 128,-1,110
 311 352 311 352 315 338 c 0,111,112
 318 328 318 328 321.5 318.5 c 128,-1,113
 325 309 325 309 328 300 c 0,114,115
 328 298 328 298 330 298 c 2,116,-1
 332 300 l 2,117,118
 332 302 332 302 334 306 c 0,119,120
 336 317 336 317 339 328.5 c 128,-1,121
 342 340 342 340 345 351 c 0,122,123
 350 366 350 366 353.5 381 c 128,-1,124
 357 396 357 396 361 411 c 0,125,126
 363 420 363 420 366 429.5 c 128,-1,127
 369 439 369 439 370 448 c 0,128,129
 374 465 374 465 378 481 c 128,-1,130
 382 497 382 497 385 513 c 0,131,132
 386 515 386 515 386.5 517 c 128,-1,133
 387 519 387 519 387 521 c 0,134,135
 388 531 388 531 393 540 c 0,136,137
 403 561 403 561 426 567 c 0,138,139
 437 570 437 570 448 567 c 0,140,141
 457 565 457 565 461 560 c 0,142,143
 468 553 468 553 474.5 546 c 128,-1,144
 481 539 481 539 486 531 c 0,145,146
 490 525 490 525 494 519.5 c 128,-1,147
 498 514 498 514 502 508 c 0,148,149
 505 504 505 504 508 499.5 c 128,-1,150
 511 495 511 495 513 490 c 0,151,152
 521 476 521 476 528 461 c 128,-1,153
 535 446 535 446 540 430 c 0,154,155
 540 428 540 428 541 427 c 0,156,157
 546 417 546 417 549 406.5 c 128,-1,158
 552 396 552 396 555 385 c 0,159,160
 559 374 559 374 561.5 363 c 128,-1,161
 564 352 564 352 567 341 c 0,162,163
 567 337 567 337 568 335 c 0,164,165
 571 327 571 327 573 318 c 128,-1,166
 575 309 575 309 577 301 c 0,167,168
 579 289 579 289 581 277 c 128,-1,169
 583 265 583 265 585 254 c 0,170,171
 587 239 587 239 589 224 c 128,-1,172
 591 209 591 209 594 194 c 0,173,174
 596 184 596 184 597.5 173 c 128,-1,175
 599 162 599 162 600 151 c 0,176,177
 600 148 600 148 602 142 c 2,178,-1
 605 118 l 2,179,180
 605 113 605 113 606 111 c 0,181,182
 611 92 611 92 612 72 c 0,183,184
 613 71 613 71 613 69.5 c 128,-1,185
 613 68 613 68 614 66 c 2,186,-1
 621 26 l 2,187,188
 623 19 623 19 621 11 c 2,189,-1
 619 3 l 2,190,191
 619 -5 619 -5 616 -12 c 128,-1,192
 613 -19 613 -19 609 -26 c 0,193,194
 606 -30 606 -30 602 -34.5 c 128,-1,195
 598 -39 598 -39 593 -42 c 0,196,197
 582 -50 582 -50 571 -43 c 0,198,199
 548 -28 548 -28 537 -6 c 0,200,201
 536 -2 536 -2 534.5 1.5 c 128,-1,202
 533 5 533 5 533 9 c 2,203,-1
 530 28 l 2,204,205
 529 33 529 33 528.5 38.5 c 128,-1,206
 528 44 528 44 527 49 c 2,207,-1
 517 107 l 2,208,209
 516 114 516 114 515 120 c 128,-1,210
 514 126 514 126 513 133 c 2,211,-1
 509 155 l 2,212,213
 507 166 507 166 505 177.5 c 128,-1,214
 503 189 503 189 501 200 c 2,215,-1
 491 264 l 2,216,217
 490 278 490 278 486.5 291.5 c 128,-1,218
 483 305 483 305 480 318 c 0,219,220
 476 334 476 334 471 348.5 c 128,-1,221
 466 363 466 363 460 377 c 2,222,-1
 457 386 l 2,223,224
 456 389 456 389 454 392 c 128,-1,225
 452 395 452 395 450 397 c 0,226,227
 447 397 447 397 447 396 c 2,228,-1
 444 386 l 2,229,230
 440 373 440 373 437 358.5 c 128,-1,231
 434 344 434 344 430 330 c 0,232,233
 428 322 428 322 426 314 c 128,-1,234
 424 306 424 306 422 298 c 0,235,236
 420 291 420 291 418.5 283.5 c 128,-1,237
 417 276 417 276 415 268 c 0,238,239
 413 256 413 256 410 244 c 128,-1,240
 407 232 407 232 405 220 c 0,241,242
 404 211 404 211 402.5 202 c 128,-1,243
 401 193 401 193 400 184 c 2,244,-1
 400 178 l 2,245,246
 402 170 402 170 396 164 c 0,247,248
 395 161 395 161 393.5 158.5 c 128,-1,249
 392 156 392 156 391 153 c 0,250,251
 389 144 389 144 386 140 c 2,252,-1
 383 133 l 2,253,254
 382 132 382 132 381.5 129.5 c 128,-1,255
 381 127 381 127 379 125 c 0,256,257
 372 113 372 113 361 109 c 0,258,259
 357 107 357 107 353.5 105 c 128,-1,260
 350 103 350 103 346 101 c 0,261,262
 336 96 336 96 325 102 c 0,263,264
 310 112 310 112 302 124 c 2,265,-1
 284 150 l 2,266,267
 284 151 284 151 283.5 151.5 c 128,-1,268
 283 152 283 152 283 152 c 1,269,270
 279 163 279 163 274 172 c 128,-1,271
 269 181 269 181 266 191 c 2,272,-1
 254 226 l 2,273,274
 249 239 249 239 245 252 c 128,-1,275
 241 265 241 265 236 278 c 2,276,-1
 233 286 l 2,277,278
 231 295 231 295 228.5 304 c 128,-1,279
 226 313 226 313 223 321 c 0,280,281
 221 330 221 330 218 338.5 c 128,-1,282
 215 347 215 347 213 355 c 0,283,284
 209 366 209 366 205.5 377.5 c 128,-1,285
 202 389 202 389 197 400 c 0,286,287
 195 407 195 407 191 411 c 0,288,289
 183 419 183 419 180 430 c 0,290,291
 180 432 180 432 178 432 c 2,292,-1
 176 430 l 1,293,-1
 176 429 l 2,294,295
 175 428 175 428 175 426 c 0,296,297
 174 416 174 416 173 405 c 128,-1,298
 172 394 172 394 170 383 c 2,299,-1
 167 350 l 2,300,301
 166 342 166 342 165.5 334 c 128,-1,302
 165 326 165 326 164 318 c 0,303,304
 163 314 163 314 162.5 310 c 128,-1,305
 162 306 162 306 162 301 c 0,306,307
 161 276 161 276 156 248 c 0,308,309
 155 241 155 241 154 232.5 c 128,-1,310
 153 224 153 224 152 216 c 2,311,-1
 149 194 l 2,312,313
 146 176 146 176 146 159 c 0,314,315
 146 152 146 152 146.5 145 c 128,-1,316
 147 138 147 138 145 131 c 0,317,318
 144 122 144 122 147 110 c 0,319,320
 151 103 151 103 150.5 96 c 128,-1,321
 150 89 150 89 148 81 c 0,322,323
 147 75 147 75 144.5 69 c 128,-1,324
 142 63 142 63 137 58 c 0,325,326
 135 55 135 55 132.5 51 c 128,-1,327
 130 47 130 47 127 44 c 0,328,329
 119 34 119 34 119 22 c 2,330,-1
 119 0 l 2,331,332
 119 -8 119 -8 118.5 -15.5 c 128,-1,333
 118 -23 118 -23 119 -31 c 0,334,335
 119 -32 119 -32 118.5 -33 c 128,-1,336
 118 -34 118 -34 118 -36 c 0,337,338
 117 -39 117 -39 117 -42 c 128,-1,339
 117 -45 117 -45 117 -48 c 0,340,341
 118 -57 118 -57 115 -67 c 0,342,343
 110 -76 110 -76 102 -79 c 0,344,345
 100 -80 100 -80 98 -80 c 0,0,1
EndSplineSet
EndChar

StartChar: N
Encoding: 78 78 31
Width: 711
GlyphClass: 2
Flags: W
AnchorPoint: "Anchor-1" 356 0 basechar 0
AnchorPoint: "Anchor-0" 320 715 basechar 0
LayerCount: 2
Fore
SplineSet
633 -308 m 0,0,1
 622 -310 622 -310 619 -302 c 0,2,3
 618 -300 618 -300 617 -297 c 128,-1,4
 616 -294 616 -294 614 -292 c 0,5,6
 613 -287 613 -287 612 -282 c 128,-1,7
 611 -277 611 -277 610 -272 c 0,8,9
 609 -268 609 -268 608.5 -264 c 128,-1,10
 608 -260 608 -260 608 -256 c 0,11,12
 607 -247 607 -247 606 -238.5 c 128,-1,13
 605 -230 605 -230 604 -221 c 0,14,15
 604 -219 604 -219 603.5 -217 c 128,-1,16
 603 -215 603 -215 603 -213 c 0,17,18
 603 -200 603 -200 602.5 -187 c 128,-1,19
 602 -174 602 -174 601 -161 c 0,20,21
 600 -158 600 -158 600 -154.5 c 128,-1,22
 600 -151 600 -151 600 -148 c 2,23,-1
 600 -141 l 2,24,25
 599 -127 599 -127 598.5 -113 c 128,-1,26
 598 -99 598 -99 598 -85 c 0,27,28
 598 -74 598 -74 596.5 -62.5 c 128,-1,29
 595 -51 595 -51 593 -41 c 0,30,31
 590 -29 590 -29 584 -20 c 0,32,33
 579 -11 579 -11 575 -1.5 c 128,-1,34
 571 8 571 8 567 18 c 0,35,36
 566 22 566 22 563.5 25 c 128,-1,37
 561 28 561 28 559 31 c 0,38,39
 546 47 546 47 533 63 c 128,-1,40
 520 79 520 79 507 96 c 2,41,-1
 480 131 l 1,42,-1
 454 164 l 2,43,44
 446 175 446 175 437.5 185.5 c 128,-1,45
 429 196 429 196 421 207 c 0,46,47
 409 224 409 224 396 240.5 c 128,-1,48
 383 257 383 257 369 273 c 0,49,50
 337 315 337 315 305 352 c 0,51,52
 301 358 301 358 297 363.5 c 128,-1,53
 293 369 293 369 289 375 c 0,54,55
 285 380 285 380 281 385.5 c 128,-1,56
 277 391 277 391 272 396 c 0,57,58
 269 400 269 400 266 403 c 128,-1,59
 263 406 263 406 261 410 c 2,60,-1
 219 458 l 2,61,62
 216 462 216 462 213 465 c 128,-1,63
 210 468 210 468 207 471 c 0,64,65
 197 482 197 482 186.5 493.5 c 128,-1,66
 176 505 176 505 165 515 c 0,67,68
 161 520 161 520 157 524 c 128,-1,69
 153 528 153 528 147 531 c 2,70,71
 147 531 147 531 146 531 c 128,-1,72
 145 531 145 531 144 530 c 2,73,-1
 144 527 l 2,74,75
 143 525 143 525 143 521 c 0,76,77
 143 513 143 513 143 505.5 c 128,-1,78
 143 498 143 498 142 490 c 0,79,80
 141 486 141 486 141.5 482.5 c 128,-1,81
 142 479 142 479 141 476 c 2,82,-1
 141 429 l 2,83,84
 141 426 141 426 141 422.5 c 128,-1,85
 141 419 141 419 140 415 c 0,86,87
 139 409 139 409 139 403 c 128,-1,88
 139 397 139 397 139 390 c 2,89,-1
 139 364 l 2,90,91
 139 355 139 355 138.5 346 c 128,-1,92
 138 337 138 337 137 328 c 0,93,94
 136 316 136 316 136 304 c 128,-1,95
 136 292 136 292 136 280 c 0,96,97
 136 271 136 271 136 262.5 c 128,-1,98
 136 254 136 254 134 246 c 2,99,-1
 134 236 l 2,100,101
 134 228 134 228 134 219 c 128,-1,102
 134 210 134 210 133 202 c 0,103,104
 133 197 133 197 133 191.5 c 128,-1,105
 133 186 133 186 132 181 c 0,106,107
 131 174 131 174 132 166 c 0,108,109
 132 157 132 157 132.5 148 c 128,-1,110
 133 139 133 139 134 131 c 2,111,-1
 137 111 l 2,112,113
 139 98 139 98 142 85.5 c 128,-1,114
 145 73 145 73 148 60 c 0,115,116
 149 57 149 57 150 53.5 c 128,-1,117
 151 50 151 50 152 47 c 0,118,119
 155 40 155 40 154.5 33.5 c 128,-1,120
 154 27 154 27 153 20 c 0,121,122
 152 17 152 17 148 11 c 0,123,124
 146 7 146 7 143.5 3.5 c 128,-1,125
 141 0 141 0 138 -3 c 0,126,127
 134 -9 134 -9 133 -12 c 0,128,129
 133 -15 133 -15 131 -19 c 2,130,-1
 131 -23 l 1,131,132
 127 -39 127 -39 109 -39 c 0,133,134
 103 -40 103 -40 97 -32 c 0,135,136
 97 -31 97 -31 96.5 -30 c 128,-1,137
 96 -29 96 -29 96 -28 c 0,138,139
 95 -20 95 -20 90.5 -14.5 c 128,-1,140
 86 -9 86 -9 82 -4 c 0,141,142
 80 -1 80 -1 77.5 1.5 c 128,-1,143
 75 4 75 4 73 6 c 0,144,145
 69 12 69 12 68 16 c 2,146,-1
 64 26 l 2,147,148
 60 37 60 37 57 47 c 128,-1,149
 54 57 54 57 52 67 c 0,150,151
 52 69 52 69 51 70 c 0,152,153
 48 81 48 81 46.5 93 c 128,-1,154
 45 105 45 105 43 117 c 0,155,156
 43 123 43 123 42 127 c 0,157,158
 41 141 41 141 41.5 154.5 c 128,-1,159
 42 168 42 168 42 181 c 2,160,-1
 42 217 l 2,161,162
 42 225 42 225 42.5 232.5 c 128,-1,163
 43 240 43 240 44 247 c 0,164,165
 45 252 45 252 45 256.5 c 128,-1,166
 45 261 45 261 45 265 c 0,167,168
 45 270 45 270 45 275 c 128,-1,169
 45 280 45 280 46 285 c 0,170,171
 47 293 47 293 47 301 c 128,-1,172
 47 309 47 309 47 316 c 0,173,174
 48 323 48 323 47.5 329.5 c 128,-1,175
 47 336 47 336 47 343 c 0,176,177
 48 351 48 351 48 359.5 c 128,-1,178
 48 368 48 368 48 377 c 0,179,180
 49 389 49 389 49 401 c 128,-1,181
 49 413 49 413 49 425 c 0,182,183
 50 435 50 435 50 444.5 c 128,-1,184
 50 454 50 454 51 464 c 0,185,186
 52 467 52 467 52 473 c 2,187,-1
 52 567 l 2,188,189
 50 580 50 580 49.5 592.5 c 128,-1,190
 49 605 49 605 49 618 c 0,191,192
 49 625 49 625 46 632 c 0,193,194
 46 634 46 634 44 638 c 0,195,196
 36 658 36 658 45 680 c 0,197,198
 53 698 53 698 76 706 c 0,199,200
 89 710 89 710 105 705 c 0,201,202
 109 704 109 704 112.5 702 c 128,-1,203
 116 700 116 700 118 697 c 0,204,205
 120 695 120 695 120 694 c 0,206,207
 131 681 131 681 144 670 c 0,208,209
 151 663 151 663 157.5 656.5 c 128,-1,210
 164 650 164 650 171 642 c 2,211,-1
 197 615 l 2,212,213
 206 606 206 606 214.5 597.5 c 128,-1,214
 223 589 223 589 231 579 c 2,215,-1
 238 572 l 2,216,217
 249 560 249 560 260.5 548 c 128,-1,218
 272 536 272 536 282 523 c 0,219,220
 288 516 288 516 294 509.5 c 128,-1,221
 300 503 300 503 306 495 c 2,222,-1
 329 468 l 2,223,224
 348 444 348 444 366 419.5 c 128,-1,225
 384 395 384 395 403 371 c 0,226,227
 411 361 411 361 418.5 351 c 128,-1,228
 426 341 426 341 433 331 c 2,229,-1
 440 322 l 2,230,231
 445 314 445 314 451 306.5 c 128,-1,232
 457 299 457 299 463 291 c 0,233,234
 471 281 471 281 479 271.5 c 128,-1,235
 487 262 487 262 494 253 c 0,236,237
 501 246 501 246 507 237 c 0,238,239
 524 218 524 218 539 199 c 0,240,241
 541 198 541 198 542 199 c 2,242,-1
 542 200 l 2,243,244
 542 204 542 204 542.5 208.5 c 128,-1,245
 543 213 543 213 543 217 c 0,246,247
 542 222 542 222 542 225.5 c 128,-1,248
 542 229 542 229 542 233 c 0,249,250
 542 240 542 240 542 246.5 c 128,-1,251
 542 253 542 253 541 260 c 2,252,-1
 541 274 l 2,253,254
 540 282 540 282 540 289.5 c 128,-1,255
 540 297 540 297 540 304 c 2,256,-1
 540 306 l 2,257,258
 539 317 539 317 538.5 328.5 c 128,-1,259
 538 340 538 340 537 351 c 0,260,261
 537 358 537 358 536 364 c 128,-1,262
 535 370 535 370 534 376 c 0,263,264
 534 379 534 379 533.5 382.5 c 128,-1,265
 533 386 533 386 533 389 c 0,266,267
 532 400 532 400 532 410 c 128,-1,268
 532 420 532 420 531 430 c 0,269,270
 530 446 530 446 528.5 462 c 128,-1,271
 527 478 527 478 527 494 c 0,272,273
 528 516 528 516 527.5 537 c 128,-1,274
 527 558 527 558 527 580 c 2,275,-1
 527 598 l 2,276,277
 527 601 527 601 526 602 c 0,278,279
 525 610 525 610 525 617 c 128,-1,280
 525 624 525 624 525 631 c 2,281,-1
 525 641 l 2,282,283
 525 650 525 650 524 659 c 128,-1,284
 523 668 523 668 520 676 c 2,285,-1
 520 678 l 1,286,287
 516 688 516 688 521 700 c 0,288,289
 524 710 524 710 530 717.5 c 128,-1,290
 536 725 536 725 543 732 c 2,291,-1
 550 735 l 2,292,293
 566 741 566 741 581 736 c 2,294,-1
 596 727 l 2,295,296
 598 726 598 726 599.5 723.5 c 128,-1,297
 601 721 601 721 602 719 c 0,298,299
 612 704 612 704 612 689 c 0,300,301
 612 685 612 685 612.5 680.5 c 128,-1,302
 613 676 613 676 613 671 c 0,303,304
 613 667 613 667 612 663 c 128,-1,305
 611 659 611 659 611 655 c 0,306,307
 612 641 612 641 611.5 626.5 c 128,-1,308
 611 612 611 612 611 598 c 0,309,310
 611 591 611 591 611.5 584 c 128,-1,311
 612 577 612 577 612 569 c 0,312,313
 612 565 612 565 612 560.5 c 128,-1,314
 612 556 612 556 613 551 c 0,315,316
 614 547 614 547 614 541 c 2,317,-1
 614 518 l 2,318,319
 614 513 614 513 614 508 c 128,-1,320
 614 503 614 503 615 498 c 256,321,322
 616 493 616 493 616 487.5 c 128,-1,323
 616 482 616 482 617 477 c 0,324,325
 617 473 617 473 617 469.5 c 128,-1,326
 617 466 617 466 618 462 c 0,327,328
 618 460 618 460 618.5 458 c 128,-1,329
 619 456 619 456 619 454 c 0,330,331
 619 448 619 448 619.5 442 c 128,-1,332
 620 436 620 436 621 430 c 0,333,334
 621 419 621 419 622.5 407 c 128,-1,335
 624 395 624 395 624 383 c 0,336,337
 624 379 624 379 624.5 375.5 c 128,-1,338
 625 372 625 372 626 368 c 2,339,-1
 626 363 l 2,340,341
 626 352 626 352 627.5 341 c 128,-1,342
 629 330 629 330 629 319 c 2,343,-1
 629 315 l 2,344,345
 631 305 631 305 631 295 c 128,-1,346
 631 285 631 285 632 274 c 0,347,348
 632 270 632 270 632 266 c 128,-1,349
 632 262 632 262 633 258 c 0,350,351
 633 257 633 257 633.5 255.5 c 128,-1,352
 634 254 634 254 634 253 c 0,353,354
 634 243 634 243 635 234 c 128,-1,355
 636 225 636 225 637 216 c 2,356,-1
 640 194 l 1,357,-1
 641 187 l 2,358,359
 642 176 642 176 643.5 165 c 128,-1,360
 645 154 645 154 646 143 c 2,361,-1
 649 115 l 2,362,363
 651 102 651 102 654 89 c 128,-1,364
 657 76 657 76 664 64 c 0,365,366
 667 58 667 58 668.5 51.5 c 128,-1,367
 670 45 670 45 671 39 c 2,368,-1
 671 31 l 2,369,370
 670 28 670 28 670 22 c 0,371,372
 669 10 669 10 664 -2 c 0,373,374
 662 -8 662 -8 660 -14 c 128,-1,375
 658 -20 658 -20 656 -26 c 0,376,377
 655 -30 655 -30 655 -33.5 c 128,-1,378
 655 -37 655 -37 654 -41 c 0,379,380
 651 -59 651 -59 651 -77 c 2,381,-1
 651 -107 l 2,382,383
 652 -120 652 -120 652 -133 c 128,-1,384
 652 -146 652 -146 652 -159 c 2,385,-1
 652 -179 l 2,386,387
 652 -184 652 -184 652 -189.5 c 128,-1,388
 652 -195 652 -195 653 -200 c 0,389,390
 654 -202 654 -202 653.5 -205 c 128,-1,391
 653 -208 653 -208 653 -210 c 0,392,393
 652 -215 652 -215 652 -220.5 c 128,-1,394
 652 -226 652 -226 652 -231 c 2,395,-1
 652 -270 l 2,396,397
 652 -281 652 -281 649 -293 c 256,398,399
 646 -305 646 -305 633 -308 c 0,0,1
EndSplineSet
Substitution2: "'ss01' Style Set 1 lookup 10 subtable" N.ss01
Substitution2: "'salt' Stylistic Alternatives lookup 9 subtable" N.ss01
Substitution2: "'aalt' Access All Alternates lookup 0 subtable" N.ss01
EndChar

StartChar: O
Encoding: 79 79 33
Width: 690
GlyphClass: 2
Flags: W
AnchorPoint: "Anchor-1" 345 0 basechar 0
AnchorPoint: "Anchor-0" 376 759 basechar 0
LayerCount: 2
Fore
SplineSet
366 -29 m 2,0,1
 352 -32 352 -32 340 -25 c 0,2,3
 333 -21 333 -21 326 -18.5 c 128,-1,4
 319 -16 319 -16 311 -15 c 0,5,6
 301 -13 301 -13 291.5 -10.5 c 128,-1,7
 282 -8 282 -8 272 -4 c 0,8,9
 268 -2 268 -2 264.5 0 c 128,-1,10
 261 2 261 2 257 5 c 0,11,12
 254 9 254 9 249 10 c 0,13,14
 242 13 242 13 234 20 c 0,15,16
 232 22 232 22 231 24 c 0,17,18
 227 28 227 28 222.5 31 c 128,-1,19
 218 34 218 34 213 37 c 0,20,21
 200 45 200 45 184 56 c 0,22,23
 181 58 181 58 179 61 c 0,24,25
 175 66 175 66 169.5 70 c 128,-1,26
 164 74 164 74 159 78 c 2,27,-1
 132 96 l 2,28,29
 131 97 131 97 129 97.5 c 128,-1,30
 127 98 127 98 125 99 c 0,31,32
 112 105 112 105 104 116 c 0,33,34
 96 126 96 126 89 137 c 128,-1,35
 82 148 82 148 76 158 c 0,36,37
 74 160 74 160 72 164 c 0,38,39
 68 169 68 169 65 175 c 128,-1,40
 62 181 62 181 60 186 c 256,41,42
 58 191 58 191 56 197 c 2,43,-1
 53 212 l 2,44,45
 50 220 50 220 49 228.5 c 128,-1,46
 48 237 48 237 46 245 c 0,47,48
 45 251 45 251 43 257.5 c 128,-1,49
 41 264 41 264 38 270 c 0,50,51
 36 273 36 273 35 276.5 c 128,-1,52
 34 280 34 280 32 284 c 0,53,54
 31 286 31 286 31 291 c 0,55,56
 30 299 30 299 30.5 307 c 128,-1,57
 31 315 31 315 34 322 c 2,58,-1
 37 333 l 2,59,60
 39 338 39 338 40 343 c 128,-1,61
 41 348 41 348 42 352 c 0,62,63
 42 359 42 359 40 362 c 0,64,65
 39 364 39 364 38 366.5 c 128,-1,66
 37 369 37 369 36 371 c 0,67,68
 31 381 31 381 35 389 c 2,69,-1
 38 397 l 2,70,71
 41 402 41 402 41 407 c 0,72,73
 41 423 41 423 51 440 c 0,74,75
 58 452 58 452 65 459 c 0,76,77
 71 465 71 465 74 471 c 0,78,79
 78 479 78 479 85 486 c 0,80,81
 94 495 94 495 96 502 c 0,82,83
 98 507 98 507 101 510 c 2,84,-1
 117 526 l 2,85,86
 124 535 124 535 117 543 c 0,87,88
 114 547 114 547 112.5 551.5 c 128,-1,89
 111 556 111 556 109 560 c 0,90,91
 106 577 106 577 116 590 c 0,92,93
 120 595 120 595 124.5 599 c 128,-1,94
 129 603 129 603 135 605 c 0,95,96
 138 606 138 606 140.5 607 c 128,-1,97
 143 608 143 608 146 609 c 0,98,99
 151 610 151 610 156.5 612 c 128,-1,100
 162 614 162 614 167 616 c 0,101,102
 171 618 171 618 174 619 c 128,-1,103
 177 620 177 620 181 620 c 0,104,105
 185 621 185 621 188 621.5 c 128,-1,106
 191 622 191 622 194 622 c 0,107,108
 202 623 202 623 210 630 c 0,109,110
 224 641 224 641 238.5 652.5 c 128,-1,111
 253 664 253 664 266 676 c 0,112,113
 274 683 274 683 283.5 689 c 128,-1,114
 293 695 293 695 303 700 c 0,115,116
 310 703 310 703 318 705 c 0,117,118
 323 707 323 707 329 708 c 128,-1,119
 335 709 335 709 340 710 c 2,120,-1
 361 713 l 2,121,122
 375 714 375 714 387.5 716 c 128,-1,123
 400 718 400 718 413 720 c 0,124,125
 415 720 415 720 417 720.5 c 128,-1,126
 419 721 419 721 420 721 c 2,127,-1
 433 721 l 2,128,129
 440 721 440 721 446 720.5 c 128,-1,130
 452 720 452 720 458 718 c 0,131,132
 466 715 466 715 472 710.5 c 128,-1,133
 478 706 478 706 482 698 c 0,134,135
 489 688 489 688 490 679 c 0,136,137
 491 673 491 673 491.5 667 c 128,-1,138
 492 661 492 661 492 655 c 2,139,-1
 492 646 l 2,140,141
 492 643 492 643 495 641 c 2,142,-1
 501 638 l 2,143,144
 515 633 515 633 528 625 c 128,-1,145
 541 617 541 617 553 608 c 0,146,147
 561 603 561 603 565 598 c 0,148,149
 572 591 572 591 578 584.5 c 128,-1,150
 584 578 584 578 590 571 c 0,151,152
 594 566 594 566 598 561.5 c 128,-1,153
 602 557 602 557 606 552 c 0,154,155
 609 549 609 549 610 547 c 0,156,157
 612 541 612 541 617 535 c 0,158,159
 623 525 623 525 627 515 c 0,160,161
 630 507 630 507 633 498.5 c 128,-1,162
 636 490 636 490 638 481 c 0,163,164
 638 478 638 478 640 472 c 0,165,166
 641 469 641 469 641.5 466.5 c 128,-1,167
 642 464 642 464 642 462 c 0,168,169
 643 456 643 456 644.5 450 c 128,-1,170
 646 444 646 444 647 438 c 0,171,172
 648 433 648 433 649 427.5 c 128,-1,173
 650 422 650 422 651 416 c 0,174,175
 652 407 652 407 654 397.5 c 128,-1,176
 656 388 656 388 657 379 c 2,177,-1
 657 374 l 2,178,179
 657 363 657 363 658.5 351.5 c 128,-1,180
 660 340 660 340 660 329 c 0,181,182
 660 325 660 325 660 320 c 128,-1,183
 660 315 660 315 659 310 c 0,184,185
 658 308 658 308 658 305 c 0,186,187
 658 293 658 293 656 281.5 c 128,-1,188
 654 270 654 270 652 259 c 0,189,190
 645 220 645 220 631 180 c 0,191,192
 630 176 630 176 629 171.5 c 128,-1,193
 628 167 628 167 626 162 c 2,194,-1
 611 118 l 2,195,196
 610 114 610 114 607.5 109.5 c 128,-1,197
 605 105 605 105 603 100 c 2,198,-1
 585 68 l 2,199,200
 579 57 579 57 570.5 47.5 c 128,-1,201
 562 38 562 38 550 31 c 256,202,203
 538 24 538 24 528 12 c 0,204,205
 521 2 521 2 506 0 c 0,206,207
 499 -1 499 -1 492.5 -1.5 c 128,-1,208
 486 -2 486 -2 480 -4 c 2,209,-1
 470 -7 l 2,210,211
 469 -7 469 -7 468.5 -7.5 c 128,-1,212
 468 -8 468 -8 466 -8 c 0,213,214
 455 -10 455 -10 443.5 -13 c 128,-1,215
 432 -16 432 -16 421 -18 c 0,216,217
 419 -19 419 -19 415 -19 c 0,218,219
 409 -19 409 -19 403 -20 c 128,-1,220
 397 -21 397 -21 391 -23 c 2,221,-1
 366 -29 l 2,0,1
339 75 m 0,222,223
 345 74 345 74 350 76 c 0,224,225
 354 78 354 78 358 77 c 2,226,-1
 366 77 l 2,227,228
 371 77 371 77 375 77 c 128,-1,229
 379 77 379 77 383 79 c 0,230,231
 386 81 386 81 394.5 82.5 c 128,-1,232
 403 84 403 84 403 84 c 2,233,234
 411 86 411 86 419 88.5 c 128,-1,235
 427 91 427 91 435 95 c 2,236,-1
 477 113 l 2,237,238
 485 116 485 116 492 120.5 c 128,-1,239
 499 125 499 125 506 129 c 0,240,241
 511 134 511 134 515 136 c 0,242,243
 521 141 521 141 524 148 c 0,244,245
 526 153 526 153 528 158 c 128,-1,246
 530 163 530 163 531 168 c 0,247,248
 535 179 535 179 538 190.5 c 128,-1,249
 541 202 541 202 545 213 c 0,250,251
 550 228 550 228 554.5 242.5 c 128,-1,252
 559 257 559 257 562 273 c 0,253,254
 563 278 563 278 564 284 c 128,-1,255
 565 290 565 290 566 296 c 0,256,257
 567 303 567 303 567 310 c 128,-1,258
 567 317 567 317 568 324 c 2,259,-1
 568 331 l 2,260,261
 568 338 568 338 567.5 345 c 128,-1,262
 567 352 567 352 567 359 c 0,263,264
 566 377 566 377 563 395 c 128,-1,265
 560 413 560 413 556 431 c 0,266,267
 554 439 554 439 552.5 446.5 c 128,-1,268
 551 454 551 454 549 461 c 0,269,270
 546 475 546 475 540 487.5 c 128,-1,271
 534 500 534 500 526 512 c 0,272,273
 525 515 525 515 523 515 c 0,274,275
 516 523 516 523 508 531 c 128,-1,276
 500 539 500 539 489 543 c 0,277,278
 485 544 485 544 481 547 c 0,279,280
 477 549 477 549 473 551 c 128,-1,281
 469 553 469 553 464 554 c 0,282,283
 447 558 447 558 427 560 c 0,284,285
 426 561 426 561 424 560 c 128,-1,286
 422 559 422 559 422 557 c 256,287,288
 422 555 422 555 421.5 552.5 c 128,-1,289
 421 550 421 550 421 548 c 0,290,291
 420 536 420 536 419 523.5 c 128,-1,292
 418 511 418 511 419 498 c 0,293,294
 419 493 419 493 419 487.5 c 128,-1,295
 419 482 419 482 418 477 c 2,296,-1
 418 463 l 2,297,298
 417 459 417 459 417 454.5 c 128,-1,299
 417 450 417 450 416 446 c 2,300,-1
 416 440 l 2,301,302
 415 433 415 433 415 426.5 c 128,-1,303
 415 420 415 420 413 412 c 0,304,305
 412 410 412 410 412 406 c 0,306,307
 414 396 414 396 412 385 c 2,308,-1
 412 367 l 2,309,310
 411 360 411 360 409 352.5 c 128,-1,311
 407 345 407 345 399 340 c 0,312,313
 397 339 397 339 392 340 c 128,-1,314
 387 341 387 341 385 342 c 0,315,316
 378 345 378 345 376 350 c 0,317,318
 375 353 375 353 373.5 356 c 128,-1,319
 372 359 372 359 372 362 c 0,320,321
 371 370 371 370 369.5 378.5 c 128,-1,322
 368 387 368 387 368 396 c 0,323,324
 368 406 368 406 368 416 c 128,-1,325
 368 426 368 426 367 436 c 2,326,-1
 367 452 l 2,327,328
 368 456 368 456 368 460.5 c 128,-1,329
 368 465 368 465 368 469 c 0,330,331
 368 477 368 477 367.5 485 c 128,-1,332
 367 493 367 493 367 501 c 0,333,334
 367 507 367 507 366.5 512.5 c 128,-1,335
 366 518 366 518 365 524 c 0,336,337
 364 528 364 528 363 531 c 128,-1,338
 362 534 362 534 360 537 c 0,339,340
 357 546 357 546 348 551 c 0,341,342
 342 556 342 556 335 551 c 0,343,344
 331 548 331 548 327.5 545.5 c 128,-1,345
 324 543 324 543 320 539 c 2,346,-1
 316 535 l 2,347,348
 310 532 310 532 305.5 527.5 c 128,-1,349
 301 523 301 523 296 518 c 0,350,351
 293 515 293 515 290 512.5 c 128,-1,352
 287 510 287 510 283 508 c 0,353,354
 277 504 277 504 275 502 c 0,355,356
 270 498 270 498 265 494.5 c 128,-1,357
 260 491 260 491 255 486 c 0,358,359
 253 484 253 484 251 483 c 256,360,361
 249 482 249 482 247 480 c 128,-1,362
 245 478 245 478 243 476 c 0,363,364
 236 469 236 469 228.5 461 c 128,-1,365
 221 453 221 453 213 446 c 0,366,367
 208 441 208 441 203 435.5 c 128,-1,368
 198 430 198 430 194 424 c 0,369,370
 193 421 193 421 189 417 c 2,371,-1
 182 408 l 2,372,373
 175 397 175 397 170 385 c 128,-1,374
 165 373 165 373 161 360 c 0,375,376
 158 351 158 351 158 342 c 0,377,378
 157 333 157 333 157 323.5 c 128,-1,379
 157 314 157 314 159 304 c 0,380,381
 159 302 159 302 159.5 299.5 c 128,-1,382
 160 297 160 297 159 295 c 0,383,384
 159 287 159 287 160 279.5 c 128,-1,385
 161 272 161 272 161 264 c 0,386,387
 162 262 162 262 162.5 259.5 c 128,-1,388
 163 257 163 257 164 255 c 0,389,390
 166 252 166 252 168 249 c 128,-1,391
 170 246 170 246 170 242 c 0,392,393
 170 241 170 241 172 239 c 0,394,395
 174 235 174 235 174 233 c 0,396,397
 178 226 178 226 179 220 c 0,398,399
 181 213 181 213 185 209 c 2,400,-1
 190 203 l 2,401,402
 190 200 190 200 192 197.5 c 128,-1,403
 194 195 194 195 195 193 c 0,404,405
 199 189 199 189 199 185 c 0,406,407
 201 178 201 178 205 174 c 0,408,409
 207 172 207 172 209 170 c 128,-1,410
 211 168 211 168 212 166 c 0,411,412
 217 161 217 161 217 156 c 0,413,414
 217 153 217 153 218 152 c 0,415,416
 221 151 221 151 222 148 c 128,-1,417
 223 145 223 145 224 143 c 0,418,419
 224 142 224 142 224.5 142 c 128,-1,420
 225 142 225 142 225 141 c 0,421,422
 225 139 225 139 234 133 c 128,-1,423
 243 127 243 127 244 128 c 2,424,-1
 246 130 l 1,425,426
 246 130 246 130 246.5 130 c 128,-1,427
 247 130 247 130 247 129 c 1,428,-1
 248 129 l 1,429,430
 255 124 255 124 253 117 c 0,431,432
 251 117 251 117 254 114 c 2,433,-1
 257 112 l 1,434,-1
 258 111 l 2,435,436
 262 106 262 106 270 101 c 0,437,438
 272 100 272 100 275 100 c 2,439,-1
 279 101 l 2,440,441
 288 103 288 103 293 93 c 0,442,443
 293 91 293 91 296 88 c 0,444,445
 303 84 303 84 310.5 82 c 128,-1,446
 318 80 318 80 325 78 c 0,447,448
 329 77 329 77 332 76.5 c 128,-1,449
 335 76 335 76 339 75 c 0,222,223
EndSplineSet
Substitution2: "'ss04' Style Set 4 lookup 13 subtable" O.ss04
Substitution2: "'ss03' Style Set 3 lookup 12 subtable" O.ss03
Substitution2: "'ss02' Style Set 2 lookup 11 subtable" O.ss02
Substitution2: "'ss01' Style Set 1 lookup 10 subtable" O.ss01
Substitution2: "'salt' Stylistic Alternatives lookup 9 subtable" O.ss01
Substitution2: "Single Substitution lookup 8 subtable" ordmasculine
AlternateSubs2: "'aalt' Access All Alternates lookup 1 subtable" O.ss01 O.ss02 O.ss03 O.ss04 ordmasculine
EndChar

StartChar: Oslash
Encoding: 216 216 38
Width: 880
GlyphClass: 2
Flags: W
AnchorPoint: "Anchor-1" 440 0 basechar 0
AnchorPoint: "Anchor-0" 421 762 basechar 0
LayerCount: 2
Fore
SplineSet
89 -127 m 0,0,1
 88 -127 88 -127 86.5 -126 c 128,-1,2
 85 -125 85 -125 83 -124 c 0,3,4
 77 -118 77 -118 76 -113 c 0,5,6
 73 -105 73 -105 73 -98 c 0,7,8
 73 -92 73 -92 73 -86 c 128,-1,9
 73 -80 73 -80 71 -74 c 2,10,-1
 71 -65 l 2,11,12
 71 -61 71 -61 70.5 -57.5 c 128,-1,13
 70 -54 70 -54 69 -50 c 2,14,-1
 69 -42 l 2,15,16
 70 -31 70 -31 67.5 -21.5 c 128,-1,17
 65 -12 65 -12 61 -2 c 0,18,19
 59 3 59 3 56.5 9 c 128,-1,20
 54 15 54 15 50 20 c 0,21,22
 46 26 46 26 43 36 c 0,23,24
 42 41 42 41 41.5 46.5 c 128,-1,25
 41 52 41 52 40 57 c 0,26,27
 40 65 40 65 43 74 c 0,28,29
 50 94 50 94 64 104 c 0,30,31
 69 108 69 108 74 110.5 c 128,-1,32
 79 113 79 113 84 115 c 0,33,34
 102 121 102 121 117 133 c 0,35,36
 125 139 125 139 133 145 c 128,-1,37
 141 151 141 151 148 157 c 0,38,39
 150 158 150 158 152 160 c 0,40,41
 156 164 156 164 153 169 c 0,42,43
 152 171 152 171 149 174 c 0,44,45
 146 178 146 178 143.5 182.5 c 128,-1,46
 141 187 141 187 139 191 c 0,47,48
 138 196 138 196 135.5 200.5 c 128,-1,49
 133 205 133 205 131 209 c 0,50,51
 129 215 129 215 126.5 221.5 c 128,-1,52
 124 228 124 228 121 233 c 0,53,54
 120 235 120 235 119.5 237.5 c 128,-1,55
 119 240 119 240 117 241 c 0,56,57
 116 243 116 243 116 245.5 c 128,-1,58
 116 248 116 248 114 249 c 0,59,60
 110 257 110 257 107.5 264.5 c 128,-1,61
 105 272 105 272 103 279 c 0,62,63
 102 284 102 284 101 289 c 128,-1,64
 100 294 100 294 98 298 c 0,65,66
 95 306 95 306 93.5 314.5 c 128,-1,67
 92 323 92 323 90 330 c 0,68,69
 88 336 88 336 88 339 c 0,70,71
 88 346 88 346 87 353 c 128,-1,72
 86 360 86 360 87 367 c 0,73,74
 86 381 86 381 88 394.5 c 128,-1,75
 90 408 90 408 92 421 c 0,76,77
 94 432 94 432 96.5 442.5 c 128,-1,78
 99 453 99 453 103 463 c 0,79,80
 105 467 105 467 106 470.5 c 128,-1,81
 107 474 107 474 108 478 c 0,82,83
 112 486 112 486 115.5 495 c 128,-1,84
 119 504 119 504 123 512 c 0,85,86
 128 520 128 520 132.5 528 c 128,-1,87
 137 536 137 536 144 543 c 0,88,89
 150 552 150 552 156.5 560 c 128,-1,90
 163 568 163 568 167 578 c 2,91,-1
 173 586 l 2,92,93
 175 588 175 588 177 590.5 c 128,-1,94
 179 593 179 593 180 596 c 256,95,96
 181 599 181 599 183 601.5 c 128,-1,97
 185 604 185 604 187 606 c 0,98,99
 191 612 191 612 194 614 c 0,100,101
 200 621 200 621 209 620 c 0,102,103
 212 620 212 620 215 619 c 0,104,105
 220 618 220 618 225 621 c 0,106,107
 230 625 230 625 235 628 c 128,-1,108
 240 631 240 631 244 635 c 0,109,110
 252 641 252 641 258 645 c 0,111,112
 264 648 264 648 270 651.5 c 128,-1,113
 276 655 276 655 282 659 c 0,114,115
 294 666 294 666 307.5 671.5 c 128,-1,116
 321 677 321 677 335 680 c 0,117,118
 343 682 343 682 351 683.5 c 128,-1,119
 359 685 359 685 366 684 c 0,120,121
 391 682 391 682 408 671 c 2,122,-1
 412 668 l 2,123,124
 424 661 424 661 428 652 c 0,125,126
 432 644 432 644 441 645 c 2,127,-1
 463 648 l 2,128,129
 471 648 471 648 479 648 c 128,-1,130
 487 648 487 648 494 647 c 0,131,132
 529 646 529 646 561 629 c 2,133,-1
 592 610 l 2,134,135
 597 607 597 607 601.5 603.5 c 128,-1,136
 606 600 606 600 611 597 c 2,137,138
 611 597 611 597 611.5 597 c 128,-1,139
 612 597 612 597 613 596 c 0,140,141
 616 595 616 595 619 598 c 0,142,143
 621 601 621 601 622 604 c 128,-1,144
 623 607 623 607 624 609 c 0,145,146
 636 628 636 628 660 636 c 0,147,148
 665 638 665 638 669.5 639.5 c 128,-1,149
 674 641 674 641 678 643 c 0,150,151
 683 645 683 645 688.5 648 c 128,-1,152
 694 651 694 651 699 654 c 0,153,154
 702 656 702 656 705 658.5 c 128,-1,155
 708 661 708 661 710 664 c 0,156,157
 713 668 713 668 716 671.5 c 128,-1,158
 719 675 719 675 723 678 c 0,159,160
 731 686 731 686 733 693 c 0,161,162
 734 698 734 698 736.5 701 c 128,-1,163
 739 704 739 704 742 707 c 0,164,165
 748 714 748 714 756 718.5 c 128,-1,166
 764 723 764 723 772 727 c 0,167,168
 777 729 777 729 783 729 c 128,-1,169
 789 729 789 729 795 727 c 0,170,171
 796 727 796 727 802 725 c 0,172,173
 807 724 807 724 812 720.5 c 128,-1,174
 817 717 817 717 821 713 c 0,175,176
 830 704 830 704 834.5 693.5 c 128,-1,177
 839 683 839 683 840 671 c 0,178,179
 841 664 841 664 838 655 c 0,180,181
 836 650 836 650 833 648 c 0,182,183
 825 641 825 641 822 632 c 0,184,185
 822 631 822 631 820 629 c 0,186,187
 813 625 813 625 810 617 c 0,188,189
 809 613 809 613 804 613 c 2,190,-1
 803 612 l 1,191,192
 792 612 792 612 784 602 c 0,193,194
 780 598 780 598 775 594 c 128,-1,195
 770 590 770 590 764 586 c 0,196,197
 760 584 760 584 758 582 c 0,198,199
 754 579 754 579 750.5 575.5 c 128,-1,200
 747 572 747 572 742 569 c 2,201,-1
 725 557 l 2,202,203
 723 557 723 557 723 555 c 0,204,205
 722 552 722 552 720 551 c 128,-1,206
 718 550 718 550 716 548 c 0,207,208
 713 546 713 546 710.5 544 c 128,-1,209
 708 542 708 542 706 539 c 0,210,211
 705 536 705 536 702 536 c 0,212,213
 695 534 695 534 688 525 c 0,214,215
 685 522 685 522 687 518 c 256,216,217
 689 514 689 514 690 513 c 2,218,-1
 710 480 l 2,219,220
 714 475 714 475 715 469 c 0,221,222
 718 461 718 461 721 452.5 c 128,-1,223
 724 444 724 444 726 435 c 0,224,225
 727 434 727 434 727 431.5 c 128,-1,226
 727 429 727 429 728 427 c 2,227,-1
 731 410 l 2,228,229
 732 406 732 406 733 401.5 c 128,-1,230
 734 397 734 397 736 393 c 0,231,232
 741 387 741 387 739 381 c 0,233,234
 739 378 739 378 739.5 375.5 c 128,-1,235
 740 373 740 373 741 370 c 0,236,237
 746 357 746 357 746 342.5 c 128,-1,238
 746 328 746 328 744 314 c 0,239,240
 741 292 741 292 734 271.5 c 128,-1,241
 727 251 727 251 718 231 c 2,242,-1
 700 192 l 2,243,244
 697 185 697 185 694 179 c 128,-1,245
 691 173 691 173 686 166 c 0,246,247
 682 161 682 161 678.5 155 c 128,-1,248
 675 149 675 149 670 143 c 0,249,250
 666 136 666 136 660.5 130 c 128,-1,251
 655 124 655 124 650 118 c 2,252,-1
 637 103 l 2,253,254
 634 100 634 100 631 96.5 c 128,-1,255
 628 93 628 93 624 91 c 2,256,-1
 616 83 l 2,257,258
 612 79 612 79 608.5 75.5 c 128,-1,259
 605 72 605 72 600 69 c 0,260,261
 590 59 590 59 577.5 53 c 128,-1,262
 565 47 565 47 553 39 c 0,263,264
 550 36 550 36 543 34 c 0,265,266
 533 30 533 30 520 27 c 0,267,268
 511 25 511 25 503 21.5 c 128,-1,269
 495 18 495 18 488 12 c 0,270,271
 486 11 486 11 484 10 c 128,-1,272
 482 9 482 9 480 8 c 0,273,274
 470 1 470 1 460 7 c 0,275,276
 458 9 458 9 454.5 10.5 c 128,-1,277
 451 12 451 12 449 14 c 0,278,279
 442 20 442 20 434.5 23 c 128,-1,280
 427 26 427 26 419 27 c 0,281,282
 412 28 412 28 406 29 c 128,-1,283
 400 30 400 30 394 34 c 2,284,-1
 384 37 l 2,285,286
 379 39 379 39 373.5 40.5 c 128,-1,287
 368 42 368 42 363 44 c 0,288,289
 359 46 359 46 357 46 c 0,290,291
 347 49 347 49 337.5 54 c 128,-1,292
 328 59 328 59 318 64 c 2,293,-1
 312 67 l 2,294,295
 304 70 304 70 297 73.5 c 128,-1,296
 290 77 290 77 283 81 c 0,297,298
 279 83 279 83 276 85 c 128,-1,299
 273 87 273 87 270 90 c 0,300,301
 266 94 266 94 262 97 c 128,-1,302
 258 100 258 100 253 103 c 256,303,304
 248 106 248 106 243 103 c 2,305,-1
 229 92 l 2,306,307
 225 89 225 89 221 86 c 128,-1,308
 217 83 217 83 212 79 c 2,309,-1
 183 56 l 2,310,311
 179 53 179 53 176 49 c 128,-1,312
 173 45 173 45 170 41 c 2,313,-1
 161 28 l 2,314,315
 157 21 157 21 153 15 c 128,-1,316
 149 9 149 9 144 2 c 0,317,318
 143 1 143 1 141.5 -1 c 128,-1,319
 140 -3 140 -3 138 -5 c 0,320,321
 126 -14 126 -14 123 -28 c 0,322,323
 121 -35 121 -35 119.5 -43 c 128,-1,324
 118 -51 118 -51 119 -59 c 0,325,326
 119 -66 119 -66 119 -72.5 c 128,-1,327
 119 -79 119 -79 117 -85 c 0,328,329
 116 -89 116 -89 116 -92.5 c 128,-1,330
 116 -96 116 -96 116 -100 c 0,331,332
 116 -110 116 -110 110 -118 c 0,333,334
 104 -130 104 -130 89 -127 c 0,0,1
255 234 m 2,335,-1
 264 240 l 2,336,337
 272 248 272 248 281 254.5 c 128,-1,338
 290 261 290 261 297 269 c 0,339,340
 302 274 302 274 307.5 278.5 c 128,-1,341
 313 283 313 283 317 288 c 0,342,343
 326 296 326 296 333.5 305 c 128,-1,344
 341 314 341 314 350 321 c 0,345,346
 355 326 355 326 359.5 331 c 128,-1,347
 364 336 364 336 368 341 c 0,348,349
 383 356 383 356 398 371 c 128,-1,350
 413 386 413 386 429 400 c 0,351,352
 446 414 446 414 461 430 c 128,-1,353
 476 446 476 446 492 462 c 2,354,355
 492 462 492 462 492.5 462.5 c 128,-1,356
 493 463 493 463 493 464 c 0,357,358
 500 471 500 471 506.5 477.5 c 128,-1,359
 513 484 513 484 519 491 c 0,360,361
 524 497 524 497 530 502.5 c 128,-1,362
 536 508 536 508 541 513 c 0,363,364
 543 516 543 516 545.5 518.5 c 128,-1,365
 548 521 548 521 550 523 c 0,366,367
 555 530 555 530 549 534 c 0,368,369
 547 536 547 536 547 536 c 1,370,-1
 527 548 l 2,371,372
 506 559 506 559 482 560 c 0,373,374
 478 560 478 560 473.5 560.5 c 128,-1,375
 469 561 469 561 464 562 c 0,376,377
 457 563 457 563 449.5 562.5 c 128,-1,378
 442 562 442 562 435 559 c 0,379,380
 431 556 431 556 426 559 c 0,381,382
 422 561 422 561 419 558 c 0,383,384
 413 553 413 553 406 552 c 0,385,386
 400 551 400 551 394 550.5 c 128,-1,387
 388 550 388 550 383 548 c 0,388,389
 379 547 379 547 374.5 546.5 c 128,-1,390
 370 546 370 546 365 544 c 0,391,392
 360 543 360 543 354 544 c 0,393,394
 352 545 352 545 347 545 c 2,395,-1
 330 540 l 2,396,397
 320 538 320 538 315 534 c 0,398,399
 313 532 313 532 310 532 c 2,400,-1
 282 530 l 1,401,-1
 281 530 l 2,402,403
 280 530 280 530 279.5 529.5 c 128,-1,404
 279 529 279 529 278 529 c 0,405,406
 271 528 271 528 266 523 c 0,407,408
 264 521 264 521 261.5 519 c 128,-1,409
 259 517 259 517 256 515 c 0,410,411
 252 512 252 512 248.5 508.5 c 128,-1,412
 245 505 245 505 241 501 c 0,413,414
 234 491 234 491 227 481 c 128,-1,415
 220 471 220 471 215 460 c 0,416,417
 214 456 214 456 212 452.5 c 128,-1,418
 210 449 210 449 208 445 c 0,419,420
 203 429 203 429 200.5 413.5 c 128,-1,421
 198 398 198 398 197 381 c 0,422,423
 197 372 197 372 198.5 363 c 128,-1,424
 200 354 200 354 201 345 c 0,425,426
 201 337 201 337 204 329 c 0,427,428
 209 308 209 308 217.5 288.5 c 128,-1,429
 226 269 226 269 237 250 c 2,430,-1
 249 235 l 2,431,432
 253 233 253 233 255 234 c 2,335,-1
457 136 m 2,433,-1
 480 136 l 2,434,435
 495 136 495 136 512 141 c 0,436,437
 529 145 529 145 545 155 c 0,438,439
 551 159 551 159 556.5 164 c 128,-1,440
 562 169 562 169 567 173 c 0,441,442
 578 181 578 181 589 194 c 0,443,444
 603 208 603 208 611 223 c 0,445,446
 617 232 617 232 622 242 c 0,447,448
 625 250 625 250 628.5 257 c 128,-1,449
 632 264 632 264 635 271 c 0,450,451
 641 283 641 283 645 295.5 c 128,-1,452
 649 308 649 308 653 321 c 0,453,454
 657 331 657 331 654 344 c 2,455,-1
 651 354 l 2,456,457
 651 360 651 360 650 366 c 128,-1,458
 649 372 649 372 647 377 c 2,459,-1
 641 399 l 2,460,461
 640 404 640 404 639 409.5 c 128,-1,462
 638 415 638 415 636 420 c 0,463,464
 634 427 634 427 631.5 433 c 128,-1,465
 629 439 629 439 625 445 c 0,466,467
 621 450 621 450 614.5 448.5 c 128,-1,468
 608 447 608 447 599 442 c 0,469,470
 597 440 597 440 595 439 c 0,471,472
 585 429 585 429 575.5 418 c 128,-1,473
 566 407 566 407 557 396 c 0,474,475
 555 392 555 392 555 390 c 0,476,477
 552 387 552 387 552 387 c 2,478,479
 548 384 548 384 544 383 c 0,480,481
 537 379 537 379 533 372 c 0,482,483
 532 371 532 371 531 369 c 128,-1,484
 530 367 530 367 528 365 c 0,485,486
 528 364 528 364 526 362 c 0,487,488
 523 361 523 361 520 358 c 0,489,490
 515 352 515 352 509 347 c 0,491,492
 505 343 505 343 502 340 c 128,-1,493
 499 337 499 337 496 333 c 0,494,495
 493 330 493 330 490 326.5 c 128,-1,496
 487 323 487 323 483 320 c 0,497,498
 479 318 479 318 481 315 c 0,499,500
 481 310 481 310 478 309 c 2,501,-1
 467 304 l 2,502,503
 462 301 462 301 462 298 c 0,504,505
 461 294 461 294 458 293 c 0,506,507
 453 290 453 290 448 284 c 0,508,509
 446 280 446 280 444 278 c 0,510,511
 442 274 442 274 439 273 c 0,512,513
 435 271 435 271 436 267 c 0,514,515
 436 264 436 264 432 258 c 0,516,517
 430 257 430 257 428 255 c 128,-1,518
 426 253 426 253 424 251 c 0,519,520
 418 241 418 241 407 240 c 0,521,522
 406 240 406 240 402 238 c 256,523,524
 398 236 398 236 397 233 c 0,525,526
 396 227 396 227 390 226 c 0,527,528
 387 224 387 224 385 221 c 0,529,530
 380 213 380 213 373 206 c 128,-1,531
 366 199 366 199 360 191 c 0,532,533
 358 188 358 188 355 186 c 0,534,535
 353 184 353 184 351 184 c 0,536,537
 348 182 348 182 345.5 180 c 128,-1,538
 343 178 343 178 341 175 c 0,539,540
 338 170 338 170 343 168 c 0,541,542
 345 166 345 166 349 164 c 0,543,544
 368 156 368 156 387 149 c 128,-1,545
 406 142 406 142 426 139 c 0,546,547
 441 136 441 136 457 136 c 2,433,-1
EndSplineSet
EndChar

StartChar: OE
Encoding: 338 338 40
Width: 1002
GlyphClass: 2
Flags: W
AnchorPoint: "Anchor-1" 501 0 basechar 0
AnchorPoint: "Anchor-0" 512 721 basechar 0
LayerCount: 2
Fore
SplineSet
441 -161 m 0,0,1
 435 -162 435 -162 429 -158 c 0,2,3
 422 -153 422 -153 420 -143 c 0,4,5
 419 -136 419 -136 420 -129 c 0,6,7
 421 -124 421 -124 421 -118.5 c 128,-1,8
 421 -113 421 -113 421 -108 c 0,9,10
 421 -104 421 -104 421 -100.5 c 128,-1,11
 421 -97 421 -97 422 -93 c 0,12,13
 422 -92 422 -92 422.5 -90.5 c 128,-1,14
 423 -89 423 -89 423 -88 c 2,15,-1
 423 -47 l 2,16,17
 423 -44 423 -44 423 -40.5 c 128,-1,18
 423 -37 423 -37 424 -34 c 0,19,20
 425 -29 425 -29 425 -23.5 c 128,-1,21
 425 -18 425 -18 425 -12 c 2,22,-1
 425 15 l 2,23,24
 425 24 425 24 415 27 c 0,25,26
 412 27 412 27 410 28 c 0,27,28
 407 28 407 28 404.5 28.5 c 128,-1,29
 402 29 402 29 399 30 c 0,30,31
 394 31 394 31 388.5 31.5 c 128,-1,32
 383 32 383 32 377 31 c 0,33,34
 374 30 374 30 371 31 c 0,35,36
 360 33 360 33 349 32 c 128,-1,37
 338 31 338 31 327 29 c 0,38,39
 322 28 322 28 317 27.5 c 128,-1,40
 312 27 312 27 307 27 c 2,41,-1
 284 27 l 2,42,43
 274 27 274 27 262 32 c 0,44,45
 255 35 255 35 247 38.5 c 128,-1,46
 239 42 239 42 232 46 c 0,47,48
 224 51 224 51 216 54 c 128,-1,49
 208 57 208 57 200 61 c 0,50,51
 184 69 184 69 172 78 c 0,52,53
 170 80 170 80 167 81.5 c 128,-1,54
 164 83 164 83 162 84 c 2,55,-1
 147 90 l 2,56,57
 132 96 132 96 121 107 c 0,58,59
 116 112 116 112 110.5 117 c 128,-1,60
 105 122 105 122 100 126 c 0,61,62
 94 132 94 132 92 135 c 0,63,64
 89 140 89 140 86 144 c 128,-1,65
 83 148 83 148 81 152 c 0,66,67
 78 157 78 157 75.5 161.5 c 128,-1,68
 73 166 73 166 70 171 c 0,69,70
 68 175 68 175 66 179 c 128,-1,71
 64 183 64 183 64 187 c 2,72,-1
 55 212 l 2,73,74
 54 214 54 214 53 216 c 128,-1,75
 52 218 52 218 51 220 c 0,76,77
 50 226 50 226 47.5 232 c 128,-1,78
 45 238 45 238 43 243 c 0,79,80
 41 249 41 249 41 253 c 0,81,82
 40 261 40 261 37.5 269.5 c 128,-1,83
 35 278 35 278 33 286 c 0,84,85
 33 288 33 288 32.5 290.5 c 128,-1,86
 32 293 32 293 32 294 c 0,87,88
 32 299 32 299 32 302.5 c 128,-1,89
 32 306 32 306 31 310 c 256,90,91
 30 314 30 314 30 323 c 2,92,-1
 30 346 l 2,93,94
 30 352 30 352 30.5 358 c 128,-1,95
 31 364 31 364 32 370 c 0,96,97
 37 395 37 395 44 417 c 0,98,99
 47 424 47 424 49.5 430.5 c 128,-1,100
 52 437 52 437 55 444 c 0,101,102
 62 458 62 458 69 471 c 128,-1,103
 76 484 76 484 84 497 c 0,104,105
 90 505 90 505 96.5 514 c 128,-1,106
 103 523 103 523 109 532 c 0,107,108
 121 549 121 549 135 564.5 c 128,-1,109
 149 580 149 580 162 596 c 0,110,111
 171 607 171 607 180.5 617 c 128,-1,112
 190 627 190 627 200 637 c 0,113,114
 205 643 205 643 211.5 647.5 c 128,-1,115
 218 652 218 652 225 656 c 0,116,117
 242 665 242 665 260 664 c 0,118,119
 266 664 266 664 271.5 664 c 128,-1,120
 277 664 277 664 281 663 c 0,121,122
 284 662 284 662 287 662 c 128,-1,123
 290 662 290 662 293 662 c 0,124,125
 311 660 311 660 328 656.5 c 128,-1,126
 345 653 345 653 361 646 c 2,127,-1
 374 640 l 2,128,129
 380 636 380 636 385.5 633 c 128,-1,130
 391 630 391 630 397 626 c 2,131,-1
 410 620 l 2,132,133
 418 618 418 618 425 610 c 0,134,135
 428 609 428 609 430 606.5 c 128,-1,136
 432 604 432 604 434 601 c 0,137,138
 436 597 436 597 438 595 c 0,139,140
 441 591 441 591 447 589 c 0,141,142
 455 588 455 588 462.5 585 c 128,-1,143
 470 582 470 582 477 580 c 0,144,145
 480 580 480 580 481 579 c 0,146,147
 484 579 484 579 484 583 c 2,148,-1
 484 587 l 2,149,150
 483 592 483 592 482.5 595.5 c 128,-1,151
 482 599 482 599 481 603 c 0,152,153
 481 607 481 607 481 610 c 128,-1,154
 481 613 481 613 482 617 c 0,155,156
 484 623 484 623 486 628.5 c 128,-1,157
 488 634 488 634 489 640 c 0,158,159
 490 643 490 643 494 647 c 2,160,-1
 512 660 l 2,161,162
 519 664 519 664 527 664 c 0,163,164
 541 666 541 666 553 661 c 2,165,-1
 557 660 l 2,166,167
 563 658 563 658 568 660 c 2,168,-1
 582 666 l 2,169,170
 591 672 591 672 603 672 c 0,171,172
 607 672 607 672 610.5 672 c 128,-1,173
 614 672 614 672 618 673 c 0,174,175
 622 672 622 672 625.5 672.5 c 128,-1,176
 629 673 629 673 633 674 c 0,177,178
 638 674 638 674 643.5 674.5 c 128,-1,179
 649 675 649 675 654 676 c 0,180,181
 663 678 663 678 672 679.5 c 128,-1,182
 681 681 681 681 691 682 c 0,183,184
 696 682 696 682 701.5 682.5 c 128,-1,185
 707 683 707 683 712 684 c 0,186,187
 718 686 718 686 724 686 c 128,-1,188
 730 686 730 686 736 686 c 0,189,190
 743 686 743 686 749.5 686.5 c 128,-1,191
 756 687 756 687 763 688 c 2,192,-1
 771 688 l 2,193,194
 782 688 782 688 793.5 688.5 c 128,-1,195
 805 689 805 689 817 688 c 0,196,197
 828 688 828 688 838.5 689.5 c 128,-1,198
 849 691 849 691 859 692 c 0,199,200
 871 695 871 695 886 693 c 0,201,202
 905 692 905 692 921 679 c 2,203,-1
 929 670 l 2,204,205
 938 663 938 663 941 651 c 2,206,-1
 944 642 l 2,207,208
 947 629 947 629 946 618 c 0,209,210
 945 611 945 611 944.5 603.5 c 128,-1,211
 944 596 944 596 939 590 c 0,212,213
 926 573 926 573 915 564 c 128,-1,214
 904 555 904 555 887 553 c 128,-1,215
 870 551 870 551 837 555 c 0,216,217
 834 557 834 557 832 555 c 2,218,-1
 829 545 l 2,219,220
 828 543 828 543 826.5 540.5 c 128,-1,221
 825 538 825 538 823 536 c 0,222,223
 815 527 815 527 804 533 c 0,224,225
 795 538 795 538 794 547 c 2,226,-1
 794 553 l 1,227,-1
 791 565 l 2,228,229
 790 568 790 568 785 570 c 0,230,231
 779 570 779 570 777 564 c 2,232,-1
 774 555 l 2,233,234
 773 547 773 547 766 540 c 0,235,236
 760 534 760 534 751 536 c 128,-1,237
 742 538 742 538 739 546 c 0,238,239
 738 548 738 548 738 549.5 c 128,-1,240
 738 551 738 551 737 552 c 2,241,-1
 734 564 l 1,242,243
 734 564 734 564 731 567 c 0,244,245
 727 567 727 567 726 568 c 0,246,247
 703 568 703 568 682 562 c 0,248,249
 676 561 676 561 670.5 559 c 128,-1,250
 665 557 665 557 659 555 c 0,251,252
 655 554 655 554 651 552.5 c 128,-1,253
 647 551 647 551 643 548 c 0,254,255
 638 545 638 545 632 546 c 2,256,-1
 629 546 l 2,257,258
 624 545 624 545 618.5 544 c 128,-1,259
 613 543 613 543 608 541 c 0,260,261
 599 539 599 539 599 530 c 0,262,263
 599 523 599 523 598 520 c 0,264,265
 598 512 598 512 598 503.5 c 128,-1,266
 598 495 598 495 597 487 c 0,267,268
 596 486 596 486 596.5 484.5 c 128,-1,269
 597 483 597 483 597 481 c 0,270,271
 598 473 598 473 598.5 464.5 c 128,-1,272
 599 456 599 456 599 448 c 2,273,-1
 599 443 l 2,274,275
 601 437 601 437 601 431 c 128,-1,276
 601 425 601 425 601 420 c 0,277,278
 601 416 601 416 602 414 c 0,279,280
 602 410 602 410 606 408 c 0,281,282
 608 408 608 408 610 407.5 c 128,-1,283
 612 407 612 407 613 408 c 0,284,285
 621 408 621 408 628.5 408 c 128,-1,286
 636 408 636 408 642 409 c 0,287,288
 653 408 653 408 663 408.5 c 128,-1,289
 673 409 673 409 683 408 c 0,290,291
 694 407 694 407 705.5 406.5 c 128,-1,292
 717 406 717 406 727 407 c 0,293,294
 735 407 735 407 742.5 407.5 c 128,-1,295
 750 408 750 408 757 409 c 0,296,297
 759 409 759 409 762 409 c 128,-1,298
 765 409 765 409 768 410 c 0,299,300
 774 412 774 412 780 413 c 128,-1,301
 786 414 786 414 792 415 c 0,302,303
 803 417 803 417 815 416.5 c 128,-1,304
 827 416 827 416 838 411 c 0,305,306
 839 411 839 411 839.5 410.5 c 128,-1,307
 840 410 840 410 841 410 c 2,308,309
 841 410 841 410 852.5 408 c 128,-1,310
 864 406 864 406 874 389 c 0,311,312
 878 384 878 384 880.5 376.5 c 128,-1,313
 883 369 883 369 881 362 c 0,314,315
 878 352 878 352 878 338 c 0,316,317
 877 331 877 331 872.5 324.5 c 128,-1,318
 868 318 868 318 863 313 c 0,319,320
 854 304 854 304 840.5 300.5 c 128,-1,321
 827 297 827 297 800 302 c 0,322,323
 797 303 797 303 794.5 304.5 c 128,-1,324
 792 306 792 306 789 305 c 0,325,326
 783 304 783 304 777 304 c 128,-1,327
 771 304 771 304 765 304 c 0,328,329
 755 303 755 303 744.5 302.5 c 128,-1,330
 734 302 734 302 723 300 c 0,331,332
 718 298 718 298 713 300 c 0,333,334
 710 302 710 302 704 302 c 0,335,336
 700 302 700 302 695.5 302 c 128,-1,337
 691 302 691 302 687 301 c 256,338,339
 683 300 683 300 679 300 c 128,-1,340
 675 300 675 300 671 300 c 0,341,342
 668 300 668 300 664.5 300 c 128,-1,343
 661 300 661 300 658 299 c 0,344,345
 653 299 653 299 650 298 c 0,346,347
 643 295 643 295 636 292 c 128,-1,348
 629 289 629 289 621 287 c 0,349,350
 618 287 618 287 616 281 c 0,351,352
 613 275 613 275 615 265 c 0,353,354
 615 263 615 263 615.5 260.5 c 128,-1,355
 616 258 616 258 615 256 c 0,356,357
 614 252 614 252 613.5 247.5 c 128,-1,358
 613 243 613 243 613 238 c 2,359,-1
 613 193 l 2,360,361
 612 190 612 190 612 186 c 128,-1,362
 612 182 612 182 612 181 c 0,363,364
 613 171 613 171 613 161.5 c 128,-1,365
 613 152 613 152 613 142 c 0,366,367
 614 139 614 139 614 135 c 0,368,369
 616 127 616 127 622 125 c 0,370,371
 627 123 627 123 635 121 c 0,372,373
 647 119 647 119 659 118.5 c 128,-1,374
 671 118 671 118 684 116 c 2,375,-1
 686 116 l 2,376,377
 697 116 697 116 708 117.5 c 128,-1,378
 719 119 719 119 729 120 c 0,379,380
 735 122 735 122 741.5 122.5 c 128,-1,381
 748 123 748 123 754 124 c 0,382,383
 761 125 761 125 767.5 125.5 c 128,-1,384
 774 126 774 126 781 127 c 0,385,386
 784 127 784 127 786.5 127.5 c 128,-1,387
 789 128 789 128 792 129 c 0,388,389
 794 129 794 129 811 131 c 128,-1,390
 828 133 828 133 845.5 135 c 128,-1,391
 863 137 863 137 864 137 c 0,392,393
 868 137 868 137 872 137.5 c 128,-1,394
 876 138 876 138 880 139 c 0,395,396
 885 141 885 141 890 140.5 c 128,-1,397
 895 140 895 140 900 139 c 2,398,-1
 917 136 l 2,399,400
 918 135 918 135 918.5 135 c 128,-1,401
 919 135 919 135 920 134 c 2,402,-1
 931 128 l 2,403,404
 934 126 934 126 937 123.5 c 128,-1,405
 940 121 940 121 941 118 c 256,406,407
 942 115 942 115 946 114 c 0,408,409
 948 114 948 114 950 112 c 0,410,411
 952 109 952 109 954 106 c 128,-1,412
 956 103 956 103 957 99 c 0,413,414
 957 97 957 97 958 95 c 128,-1,415
 959 93 959 93 960 91 c 0,416,417
 966 79 966 79 958 67 c 0,418,419
 954 61 954 61 949.5 55 c 128,-1,420
 945 49 945 49 939 44 c 0,421,422
 937 43 937 43 935 39 c 2,423,-1
 926 30 l 2,424,425
 919 24 919 24 912 14 c 0,426,427
 909 8 909 8 902 3 c 0,428,429
 897 -1 897 -1 889.5 0.5 c 128,-1,430
 882 2 882 2 877 8 c 0,431,432
 876 10 876 10 875.5 12 c 128,-1,433
 875 14 875 14 873 15 c 2,434,-1
 870 22 l 2,435,436
 866 26 866 26 863 26 c 2,437,-1
 860 26 l 2,438,439
 853 25 853 25 851.5 24 c 128,-1,440
 850 23 850 23 848 16 c 0,441,442
 847 10 847 10 845.5 4 c 128,-1,443
 844 -2 844 -2 844 -9 c 256,444,445
 844 -16 844 -16 843.5 -22.5 c 128,-1,446
 843 -29 843 -29 842 -37 c 0,447,448
 841 -47 841 -47 840 -57.5 c 128,-1,449
 839 -68 839 -68 839 -79 c 0,450,451
 839 -84 839 -84 838 -87 c 0,452,453
 837 -97 837 -97 835 -107 c 128,-1,454
 833 -117 833 -117 830 -128 c 0,455,456
 829 -129 829 -129 829 -132 c 0,457,458
 827 -140 827 -140 818 -147 c 0,459,460
 810 -150 810 -150 804 -147 c 0,461,462
 795 -142 795 -142 793 -133 c 0,463,464
 792 -126 792 -126 791 -119.5 c 128,-1,465
 790 -113 790 -113 791 -106 c 0,466,467
 791 -104 791 -104 791 -101 c 128,-1,468
 791 -98 791 -98 790 -96 c 2,469,-1
 790 -13 l 2,470,471
 790 -5 790 -5 790 2 c 128,-1,472
 790 9 790 9 789 16 c 2,473,-1
 789 20 l 2,474,475
 787 24 787 24 784 24 c 0,476,477
 778 24 778 24 776 23 c 0,478,479
 771 22 771 22 766 21 c 128,-1,480
 761 20 761 20 756 19 c 0,481,482
 748 16 748 16 739.5 15 c 128,-1,483
 731 14 731 14 723 13 c 256,484,485
 715 12 715 12 707 12 c 128,-1,486
 699 12 699 12 691 13 c 0,487,488
 689 13 689 13 687.5 13.5 c 128,-1,489
 686 14 686 14 684 14 c 0,490,491
 677 15 677 15 672 9 c 0,492,493
 669 2 669 2 660 -3 c 0,494,495
 653 -6 653 -6 646.5 -10 c 128,-1,496
 640 -14 640 -14 633 -17 c 0,497,498
 628 -20 628 -20 624 -25 c 0,499,500
 619 -31 619 -31 610 -35 c 0,501,502
 605 -37 605 -37 602 -36 c 2,503,-1
 593 -31 l 2,504,505
 590 -29 590 -29 588 -26 c 2,506,-1
 585 -18 l 2,507,508
 580 -7 580 -7 572 0 c 0,509,510
 568 4 568 4 564.5 7.5 c 128,-1,511
 561 11 561 11 557 14 c 0,512,513
 554 16 554 16 551 18.5 c 128,-1,514
 548 21 548 21 546 24 c 2,515,-1
 533 36 l 2,516,517
 524 43 524 43 517 35 c 0,518,519
 516 34 516 34 515.5 33 c 128,-1,520
 515 32 515 32 513 31 c 0,521,522
 511 28 511 28 508.5 25 c 128,-1,523
 506 22 506 22 504 20 c 0,524,525
 500 16 500 16 496.5 12 c 128,-1,526
 493 8 493 8 490 4 c 0,527,528
 485 -1 485 -1 483 -9 c 0,529,530
 482 -13 482 -13 480 -18.5 c 128,-1,531
 478 -24 478 -24 478 -29 c 0,532,533
 477 -30 477 -30 477 -32 c 128,-1,534
 477 -34 477 -34 476 -36 c 2,535,-1
 473 -58 l 2,536,537
 472 -65 472 -65 471.5 -72.5 c 128,-1,538
 471 -80 471 -80 470 -87 c 2,539,-1
 470 -92 l 2,540,541
 467 -104 467 -104 464.5 -116 c 128,-1,542
 462 -128 462 -128 460 -140 c 2,543,-1
 459 -144 l 2,544,545
 458 -151 458 -151 453 -155 c 128,-1,546
 448 -159 448 -159 441 -161 c 0,0,1
305 131 m 2,547,548
 317 131 317 131 328.5 131.5 c 128,-1,549
 340 132 340 132 352 136 c 0,550,551
 358 138 358 138 364 139 c 128,-1,552
 370 140 370 140 376 141 c 0,553,554
 387 144 387 144 397 147 c 128,-1,555
 407 150 407 150 417 154 c 0,556,557
 431 160 431 160 438 171 c 0,558,559
 443 179 443 179 447.5 187 c 128,-1,560
 452 195 452 195 456 202 c 0,561,562
 464 218 464 218 471 234 c 128,-1,563
 478 250 478 250 482 267 c 0,564,565
 484 278 484 278 486.5 288.5 c 128,-1,566
 489 299 489 299 490 309 c 0,567,568
 491 317 491 317 491.5 324.5 c 128,-1,569
 492 332 492 332 493 339 c 0,570,571
 494 347 494 347 494 354.5 c 128,-1,572
 494 362 494 362 494 369 c 0,573,574
 495 385 495 385 489 402 c 0,575,576
 486 408 486 408 483.5 414.5 c 128,-1,577
 481 421 481 421 479 428 c 2,578,-1
 470 450 l 2,579,580
 469 454 469 454 467.5 458 c 128,-1,581
 466 462 466 462 464 466 c 0,582,583
 463 469 463 469 461 472 c 128,-1,584
 459 475 459 475 457 478 c 0,585,586
 454 483 454 483 449 484 c 0,587,588
 445 485 445 485 442 485.5 c 128,-1,589
 439 486 439 486 435 486 c 0,590,591
 424 488 424 488 416 493 c 256,592,593
 408 498 408 498 402 506 c 0,594,595
 399 511 399 511 395 511 c 0,596,597
 387 511 387 511 379 516 c 0,598,599
 374 519 374 519 370 522.5 c 128,-1,600
 366 526 366 526 361 530 c 0,601,602
 360 532 360 532 357.5 534 c 128,-1,603
 355 536 355 536 353 537 c 0,604,605
 346 541 346 541 339 545 c 128,-1,606
 332 549 332 549 325 551 c 0,607,608
 308 558 308 558 287 558 c 0,609,610
 269 558 269 558 256 548 c 0,611,612
 240 537 240 537 229 523 c 2,613,-1
 220 512 l 2,614,615
 213 504 213 504 206 496.5 c 128,-1,616
 199 489 199 489 194 481 c 0,617,618
 190 477 190 477 187.5 472.5 c 128,-1,619
 185 468 185 468 181 463 c 0,620,621
 177 457 177 457 173.5 451 c 128,-1,622
 170 445 170 445 167 438 c 0,623,624
 164 432 164 432 161.5 425.5 c 128,-1,625
 159 419 159 419 154 413 c 2,626,-1
 150 406 l 2,627,628
 148 399 148 399 145 392.5 c 128,-1,629
 142 386 142 386 140 379 c 0,630,631
 136 369 136 369 134.5 358.5 c 128,-1,632
 133 348 133 348 131 337 c 2,633,-1
 131 320 l 1,634,-1
 132 320 l 1,635,-1
 132 313 l 2,636,637
 131 301 131 301 134 286 c 0,638,639
 136 276 136 276 139.5 266.5 c 128,-1,640
 143 257 143 257 148 248 c 0,641,642
 150 247 150 247 151 245 c 128,-1,643
 152 243 152 243 153 241 c 0,644,645
 156 236 156 236 159 230.5 c 128,-1,646
 162 225 162 225 165 219 c 2,647,-1
 168 212 l 2,648,649
 170 207 170 207 173.5 202.5 c 128,-1,650
 177 198 177 198 181 194 c 0,651,652
 193 181 193 181 208 170 c 0,653,654
 244 144 244 144 288 134 c 2,655,-1
 305 131 l 2,547,548
EndSplineSet
EndChar

StartChar: P
Encoding: 80 80 41
Width: 495
GlyphClass: 2
Flags: W
AnchorPoint: "Anchor-1" 248 0 basechar 0
AnchorPoint: "Anchor-0" 248 700 basechar 0
LayerCount: 2
Fore
SplineSet
82 -59 m 0,0,1
 73 -56 73 -56 68 -47 c 2,2,-1
 65 -36 l 2,3,4
 64 -31 64 -31 64 -26 c 128,-1,5
 64 -21 64 -21 63 -16 c 0,6,7
 62 -12 62 -12 61.5 -8.5 c 128,-1,8
 61 -5 61 -5 59 -2 c 0,9,10
 57 2 57 2 55 6 c 128,-1,11
 53 10 53 10 51 14 c 0,12,13
 40 38 40 38 44 60 c 1,14,-1
 44 65 l 2,15,16
 45 77 45 77 46 88.5 c 128,-1,17
 47 100 47 100 48 112 c 0,18,19
 48 116 48 116 48.5 120 c 128,-1,20
 49 124 49 124 49 128 c 0,21,22
 49 131 49 131 49.5 134 c 128,-1,23
 50 137 50 137 50 139 c 0,24,25
 50 144 50 144 50.5 150 c 128,-1,26
 51 156 51 156 51 161 c 2,27,-1
 51 167 l 2,28,29
 50 183 50 183 50 198.5 c 128,-1,30
 50 214 50 214 50 230 c 0,31,32
 50 235 50 235 50 240.5 c 128,-1,33
 50 246 50 246 49 251 c 0,34,35
 48 253 48 253 48 257 c 0,36,37
 49 264 49 264 48.5 270 c 128,-1,38
 48 276 48 276 48 282 c 0,39,40
 48 286 48 286 48 289.5 c 128,-1,41
 48 293 48 293 49 296 c 0,42,43
 50 306 50 306 49 315 c 0,44,45
 48 327 48 327 47 339 c 128,-1,46
 46 351 46 351 44 362 c 0,47,48
 42 379 42 379 40.5 396 c 128,-1,49
 39 413 39 413 40 430 c 2,50,-1
 40 460 l 2,51,52
 40 465 40 465 40.5 470 c 128,-1,53
 41 475 41 475 41 479 c 2,54,-1
 41 487 l 2,55,56
 40 495 40 495 40.5 503.5 c 128,-1,57
 41 512 41 512 42 521 c 2,58,-1
 42 532 l 2,59,60
 42 546 42 546 42.5 560 c 128,-1,61
 43 574 43 574 43 587 c 0,62,63
 43 595 43 595 43 602.5 c 128,-1,64
 43 610 43 610 41 617 c 0,65,66
 40 629 40 629 43 643 c 0,67,68
 46 651 46 651 50 658 c 128,-1,69
 54 665 54 665 59 671 c 0,70,71
 77 692 77 692 106 692 c 0,72,73
 115 691 115 691 123.5 688.5 c 128,-1,74
 132 686 132 686 139 680 c 0,75,76
 141 679 141 679 145 675 c 0,77,78
 150 671 150 671 156.5 667.5 c 128,-1,79
 163 664 163 664 170 662 c 0,80,81
 178 661 178 661 186.5 659 c 128,-1,82
 195 657 195 657 203 655 c 0,83,84
 206 654 206 654 211 654 c 256,85,86
 216 654 216 654 219 657 c 0,87,88
 221 659 221 659 223.5 660.5 c 128,-1,89
 226 662 226 662 229 663 c 0,90,91
 241 670 241 670 251 664 c 0,92,93
 254 663 254 663 256.5 661.5 c 128,-1,94
 259 660 259 660 261 659 c 0,95,96
 272 654 272 654 278 647 c 0,97,98
 283 641 283 641 291 639 c 0,99,100
 296 638 296 638 299.5 636 c 128,-1,101
 303 634 303 634 307 630 c 0,102,103
 311 627 311 627 315.5 625 c 128,-1,104
 320 623 320 623 324 621 c 0,105,106
 332 620 332 620 337 612 c 0,107,108
 341 604 341 604 350 601 c 0,109,110
 355 600 355 600 360 595 c 0,111,112
 362 592 362 592 370 588 c 0,113,114
 375 587 375 587 378.5 583.5 c 128,-1,115
 382 580 382 580 385 575 c 2,116,-1
 387 572 l 2,117,118
 394 557 394 557 410 544 c 0,119,120
 416 539 416 539 421 532.5 c 128,-1,121
 426 526 426 526 428 518 c 0,122,123
 430 514 430 514 432.5 510 c 128,-1,124
 435 506 435 506 437 501 c 0,125,126
 439 498 439 498 440 495 c 128,-1,127
 441 492 441 492 442 488 c 256,128,129
 443 484 443 484 444 481 c 128,-1,130
 445 478 445 478 446 474 c 0,131,132
 447 472 447 472 447 469.5 c 128,-1,133
 447 467 447 467 448 465 c 0,134,135
 451 454 451 454 452.5 442 c 128,-1,136
 454 430 454 430 455 418 c 0,137,138
 456 411 456 411 455.5 404 c 128,-1,139
 455 397 455 397 455 389 c 0,140,141
 455 384 455 384 454.5 378.5 c 128,-1,142
 454 373 454 373 453 368 c 0,143,144
 453 365 453 365 451 361 c 0,145,146
 442 334 442 334 422 313 c 0,147,148
 418 309 418 309 414 304.5 c 128,-1,149
 410 300 410 300 406 296 c 0,150,151
 400 290 400 290 394 285 c 128,-1,152
 388 280 388 280 382 275 c 2,153,-1
 379 272 l 2,154,155
 371 268 371 268 363 264 c 128,-1,156
 355 260 355 260 346 258 c 0,157,158
 343 258 343 258 342 257 c 0,159,160
 335 253 335 253 326.5 253 c 128,-1,161
 318 253 318 253 310 254 c 0,162,163
 306 255 306 255 302.5 255.5 c 128,-1,164
 299 256 299 256 295 256 c 0,165,166
 282 256 282 256 270 255 c 128,-1,167
 258 254 258 254 245 252 c 2,168,-1
 199 245 l 2,169,170
 196 245 196 245 192.5 244.5 c 128,-1,171
 189 244 189 244 185 243 c 0,172,173
 178 242 178 242 171.5 240.5 c 128,-1,174
 165 239 165 239 158 240 c 0,175,176
 155 240 155 240 155 236 c 2,177,-1
 155 219 l 2,178,179
 153 208 153 208 155 197 c 0,180,181
 157 188 157 188 153 183 c 0,182,183
 150 176 150 176 152 168 c 0,184,185
 154 159 154 159 155.5 149.5 c 128,-1,186
 157 140 157 140 159 131 c 0,187,188
 160 126 160 126 160.5 121 c 128,-1,189
 161 116 161 116 161 111 c 0,190,191
 163 90 163 90 167 69 c 0,192,193
 169 63 169 63 169.5 57.5 c 128,-1,194
 170 52 170 52 171 46 c 0,195,196
 171 39 171 39 170 35 c 0,197,198
 169 32 169 32 168.5 28.5 c 128,-1,199
 168 25 168 25 166 22 c 2,200,-1
 163 15 l 2,201,202
 161 13 161 13 159 9 c 0,203,204
 155 1 155 1 145 -4 c 0,205,206
 133 -9 133 -9 123 -8 c 0,207,208
 118 -8 118 -8 116 -9 c 0,209,210
 111 -9 111 -9 110 -13 c 0,211,212
 109 -15 109 -15 108 -18 c 128,-1,213
 107 -21 107 -21 106 -23 c 0,214,215
 106 -27 106 -27 105.5 -31.5 c 128,-1,216
 105 -36 105 -36 104 -41 c 0,217,218
 103 -49 103 -49 96 -56 c 0,219,220
 90 -62 90 -62 82 -59 c 0,0,1
173 332 m 0,221,222
 179 332 179 332 184.5 332.5 c 128,-1,223
 190 333 190 333 196 334 c 0,224,225
 203 336 203 336 210 337 c 128,-1,226
 217 338 217 338 224 339 c 0,227,228
 238 341 238 341 251 345 c 0,229,230
 255 346 255 346 259 346.5 c 128,-1,231
 263 347 263 347 267 347 c 0,232,233
 274 347 274 347 277 348 c 0,234,235
 284 350 284 350 290.5 350 c 128,-1,236
 297 350 297 350 305 350 c 2,237,-1
 320 350 l 2,238,239
 332 351 332 351 339 360 c 2,240,-1
 347 369 l 2,241,242
 351 374 351 374 354.5 379.5 c 128,-1,243
 358 385 358 385 359 392 c 0,244,245
 361 407 361 407 358 419 c 256,246,247
 355 431 355 431 351 442.5 c 128,-1,248
 347 454 347 454 341 464 c 0,249,250
 335 477 335 477 323 484 c 0,251,252
 319 485 319 485 317 490 c 0,253,254
 315 496 315 496 310 499 c 0,255,256
 309 500 309 500 308 501 c 128,-1,257
 307 502 307 502 305 503 c 0,258,259
 301 507 301 507 294 507 c 0,260,261
 290 507 290 507 285.5 508.5 c 128,-1,262
 281 510 281 510 277 511 c 0,263,264
 273 513 273 513 269.5 515 c 128,-1,265
 266 517 266 517 263 519 c 0,266,267
 253 525 253 525 241 525 c 0,268,269
 232 525 232 525 221 528 c 0,270,271
 210 535 210 535 198 536 c 0,272,273
 196 536 196 536 192 538 c 2,274,-1
 184 541 l 2,275,276
 178 544 178 544 174 544 c 0,277,278
 161 548 161 548 155 535 c 0,279,280
 154 532 154 532 153 528.5 c 128,-1,281
 152 525 152 525 151 521 c 0,282,283
 150 513 150 513 149 505 c 128,-1,284
 148 497 148 497 147 489 c 0,285,286
 146 483 146 483 145 477 c 128,-1,287
 144 471 144 471 144 465 c 0,288,289
 143 452 143 452 143.5 439 c 128,-1,290
 144 426 144 426 146 412 c 2,291,-1
 146 402 l 2,292,293
 146 395 146 395 146.5 388 c 128,-1,294
 147 381 147 381 148 374 c 0,295,296
 149 371 149 371 149 366 c 2,297,-1
 152 339 l 2,298,299
 152 333 152 333 158 333 c 0,300,301
 162 332 162 332 165.5 332 c 128,-1,302
 169 332 169 332 173 332 c 0,221,222
EndSplineSet
EndChar

